<?xml version="1.0" encoding="utf-8"?>
<!-- Generator: Adobe Illustrator 24.1.0, SVG Export Plug-In . SVG Version: 6.00 Build 0)  -->
<svg version="1.1" id="Слой_1" xmlns="http://www.w3.org/2000/svg" xmlns:xlink="http://www.w3.org/1999/xlink" x="0px" y="0px"
	 viewBox="0 0 124.77 111.32" style="enable-background:new 0 0 124.77 111.32;" xml:space="preserve">
<style type="text/css">
	.st0{fill:#9AC6AC;}
</style>
<g id="Слой_2">
	<path class="st0" d="M106.06,18.52c0.89-0.32,2.08-0.67,3.51-0.92c1.73-0.29,2.61-0.43,3.45,0c1.43,0.74,1.89,2.48,1.98,2.81
		c0.11,0.42,0.1,0.61,0.19,2.49c0.05,1.03,0.1,1.88,0.13,2.42c-0.28,3.53-0.75,7.45-1.53,11.65c-0.79,4.28-1.78,8.15-2.81,11.58
		c1.08,1.33,2.72,3.18,4.79,4.91c1.27,1.07,2.51,1.92,2.89,2.18c0.79,0.54,1.5,0.98,2.06,1.32c0.57,0.37,0.97,0.61,1.15,0.69
		c0,0,0.27,0.12,0.41,0.3c0.01,0.01,0.02,0.03,0.02,0.03c0,0,0,0,0,0c0,0,0.09,0.14,0.03,0.35c-0.05,0.18-1.01,0.38-3.18-0.17
		c-0.7-0.18-0.49-0.17-3.15-1.06c-0.45-0.15-1.3-0.43-2.39-0.84c-1.19-0.44-1.41-0.57-1.55-0.65c-0.14-0.08-0.54-0.34-1.13-0.61
		c-0.11-0.05-0.2-0.09-0.21-0.1c-1.59-0.74-3.73-1.83-6.19-3.4c-1.2-0.7-3.01-1.78-5.17-3.21c-2.07-1.37-2.82-1.98-4.34-2.88
		c-1.3-0.77-3.21-1.79-5.72-2.73c-1.78-0.91-4.96-2.22-9.09-2.31c-2.78-0.06-5.08,0.44-6.68,0.94c-2.33,0.82-4,1.91-5.06,2.73
		c-1.44,1.11-2.39,2.2-3.23,3.16c-1.3,1.49-2.26,2.87-2.91,3.93c-1.03-1.64-2.65-3.82-5.09-5.91c-2.06-1.77-4.05-2.92-5.62-3.66
		c-1.59-0.56-3.52-1.04-5.74-1.18c-7.49-0.48-13.18,3.18-15.45,4.84c-3.49,2.36-6.98,4.71-10.47,7.07l-7.79,3.8l-6.64,2.09
		c-1.19,0.09-2.38,0.17-3.57,0.26c1.94-1.03,4.39-2.56,6.89-4.84c2.12-1.93,3.7-3.87,4.85-5.5c-1.33-3.83-2.66-8.64-3.45-14.27
		c-0.65-4.67-0.8-8.88-0.7-12.43c-0.04-1.5,0.72-2.91,1.98-3.66c1.91-1.15,3.86-0.12,3.96-0.07c2.95,0.76,6.44,1.9,10.21,3.66
		c4.17,1.95,7.57,4.13,10.21,6.09c2.82-1.74,6.47-3.65,10.89-5.19c5.8-2.02,10.98-2.74,14.89-2.97c3.52,0.11,8.11,0.6,13.28,2.09
		c5.86,1.7,10.46,4.12,13.7,6.15c2.36-1.73,5.24-3.58,8.64-5.32C100.49,20.57,103.45,19.39,106.06,18.52z"/>
	<path class="st0" d="M53.53,86.85c0.02-0.36,0.11-1.04,0.53-1.76c0.55-0.92,1.32-1.35,1.64-1.5c0.39-0.22,0.84-0.43,1.33-0.62
		c1.07-0.42,2.05-0.61,2.85-0.7c0.82-0.07,1.73-0.11,2.7-0.1c0.87,0.01,1.68,0.07,2.42,0.15c0.66,0.08,1.47,0.24,2.36,0.55
		c0.77,0.27,1.42,0.58,1.95,0.88c0.26,0.15,0.61,0.4,0.96,0.8c0.29,0.34,0.48,0.67,0.59,0.92c0.12,0.25,0.26,0.66,0.31,1.18
		c0.04,0.5-0.02,0.91-0.09,1.18c-0.1,0.4-0.27,0.91-0.56,1.46c-0.34,0.64-0.73,1.12-1.04,1.45c-0.45,0.44-1.03,0.93-1.75,1.41
		c-0.85,0.56-1.65,0.93-2.31,1.18c-0.79,0.2-1.86,0.38-3.12,0.37c-1.14-0.01-2.1-0.18-2.85-0.37c-0.66-0.2-1.54-0.55-2.47-1.17
		c-0.79-0.52-1.38-1.08-1.81-1.55c-0.32-0.32-0.8-0.88-1.16-1.69C53.65,88.08,53.56,87.32,53.53,86.85z"/>
	<path class="st0" d="M56.55,60.98c-0.32-1.7-0.94-3-1.4-3.82c-0.45-0.77-1.15-1.76-2.19-2.73c-1.51-1.4-3.07-2.11-4.06-2.47
		c-1.23-0.41-2.79-0.81-4.64-0.98c-2.65-0.24-4.88,0.08-6.45,0.44c-1.74,0.41-3.64,0.94-5.66,1.66c-1.91,0.68-3.65,1.41-5.19,2.14
		c-1.24,0.66-2.81,1.47-4.66,2.33c-0.46,0.22-1.49,0.69-2.77,1.23c-1.85,0.79-4.39,1.79-7.55,2.81c-1.07,0.38-2.43,0.75-4.02,0.96
		c-1.51,0.2-2.85,0.2-3.94,0.13c-0.57-0.18-1.17-0.02-1.51,0.41c-0.36,0.45-0.28,1-0.26,1.09c0.15,0.72,0.41,1.6,0.86,2.55
		c0.65,1.4,1.46,2.41,2.09,3.08c0.81,0.99,2.03,2.37,3.68,3.82c0.95,0.83,1.85,1.52,3.57,2.73c1.68,1.17,4.01,2.74,6.91,4.52
		c4.05,2.27,8.52,4.55,13.4,6.72c3.49,1.55,6.86,2.9,10.09,4.08c0.05-0.01,0.48-0.06,0.68-0.41c0.21-0.36,0.1-0.89-0.3-1.22
		c-0.38-1.11-0.77-2.23-1.15-3.34c-0.1-0.53-0.19-1.37,0.02-2.33c0.4-1.88,1.63-2.98,2.06-3.34c1.08-0.98,2.02-1.76,2.74-2.33
		c1.51-1.2,2.19-1.6,3.38-2.62c1.09-0.93,1.92-1.81,2.51-2.47c0.76-0.77,1.86-2.08,2.7-3.99c0.77-1.75,1.02-3.33,1.1-4.38
		C56.76,64.28,56.88,62.77,56.55,60.98z M44.09,67.89c-7.09,0.01-6.43-10.25,0-10.25C50.53,57.64,51.53,67.89,44.09,67.89z"/>
	<path class="st0" d="M67.98,65.19c0.08,1.05,0.33,2.63,1.1,4.38c0.84,1.91,1.95,3.22,2.7,3.99c0.59,0.66,1.42,1.53,2.51,2.47
		c1.19,1.02,1.87,1.42,3.38,2.62c0.72,0.57,1.67,1.35,2.74,2.33c0.44,0.36,1.66,1.46,2.06,3.34c0.21,0.97,0.12,1.8,0.02,2.33
		c-0.38,1.11-0.77,2.23-1.15,3.34c-0.4,0.33-0.5,0.86-0.3,1.22c0.2,0.36,0.63,0.41,0.68,0.41c3.22-1.18,6.6-2.53,10.09-4.08
		c4.89-2.17,9.36-4.45,13.4-6.72c2.9-1.78,5.23-3.34,6.91-4.52c1.73-1.21,2.62-1.89,3.57-2.73c1.65-1.45,2.87-2.83,3.68-3.82
		c0.63-0.67,1.43-1.68,2.09-3.08c0.45-0.95,0.7-1.84,0.86-2.55c0.02-0.09,0.09-0.64-0.26-1.09c-0.34-0.43-0.94-0.6-1.51-0.41
		c-1.09,0.07-2.43,0.07-3.94-0.13c-1.59-0.21-2.95-0.58-4.02-0.96c-3.16-1.03-5.7-2.03-7.55-2.81c-1.28-0.54-2.31-1.02-2.77-1.23
		c-1.85-0.86-3.42-1.66-4.66-2.33c-1.55-0.73-3.28-1.46-5.19-2.14c-2.02-0.71-3.92-1.25-5.66-1.66c-1.57-0.36-3.8-0.68-6.45-0.44
		c-1.84,0.17-3.41,0.57-4.64,0.98c-1,0.36-2.55,1.06-4.06,2.47c-1.04,0.96-1.74,1.96-2.19,2.73c-0.47,0.82-1.08,2.12-1.4,3.82
		C67.7,62.73,67.83,64.23,67.98,65.19z M80.5,57.59c6.43,0,7.09,10.26,0,10.25C73.06,67.84,74.06,57.59,80.5,57.59z"/>
</g>
</svg>
