<?xml version="1.0" encoding="utf-8"?>
<!-- Generator: Adobe Illustrator 24.1.0, SVG Export Plug-In . SVG Version: 6.00 Build 0)  -->
<svg version="1.1" id="Слой_1" xmlns="http://www.w3.org/2000/svg" xmlns:xlink="http://www.w3.org/1999/xlink" x="0px" y="0px"
	 viewBox="0 0 480 480" style="enable-background:new 0 0 480 480;" xml:space="preserve">
<style type="text/css">
	.st0{fill:#ADD8BC;}
	.st1{fill:#8CAF9A;}
</style>
<path class="st0" d="M238.8,24.4c-90.5,0-171.5,56.2-203.1,141s-7.3,180.3,61.1,239.6v-66.5c0-49.5,40.2-89.7,89.7-89.7h104.7
	c49.5,0,89.7,40.2,89.7,89.7v66.5c68.4-59.3,92.7-154.8,61.1-239.6S329.3,24.4,238.8,24.4z M238.8,218.8
	c-37.2,0-67.3-30.1-67.3-67.3s30.1-67.3,67.3-67.3s67.3,30.1,67.3,67.3S275.9,218.8,238.8,218.8z"/>
<path class="st1" d="M306.1,151.5c0,37.2-30.1,67.3-67.3,67.3s-67.3-30.1-67.3-67.3s30.1-67.3,67.3-67.3S306.1,114.3,306.1,151.5z"
	/>
<path class="st1" d="M291.1,248.7H186.5c-49.5,0-89.7,40.2-89.7,89.7v66.5c81.5,70.8,202.6,70.8,284.1,0v-66.5
	C380.8,288.8,340.7,248.7,291.1,248.7z"/>
<path d="M238.8,16.9c-123.9,0-224.3,100.4-224.3,224.3s100.4,224.3,224.3,224.3c6.8,0,13.5-0.3,20.2-0.9c6.2-0.6,12.4-1.4,18.5-2.5
	l2.4-0.4C393.7,440.4,472.7,335.9,462,220.6C451.4,105.2,354.6,17,238.8,16.9z M220.8,449.7h-0.5c-5.8-0.5-11.6-1.3-17.3-2.3
	c-0.3-0.1-0.7-0.1-1-0.2c-5.6-1-11.1-2.2-16.6-3.7l-1.3-0.3c-5.3-1.4-10.6-3.1-15.8-5c-0.5-0.2-1.1-0.4-1.6-0.6
	c-5.1-1.9-10.1-4-15.1-6.3c-0.6-0.3-1.2-0.5-1.8-0.8c-4.8-2.2-9.6-4.8-14.3-7.4c-0.7-0.4-1.3-0.7-2-1.1c-4.6-2.7-9.1-5.5-13.5-8.6
	c-0.7-0.5-1.3-0.9-2-1.4c-4.3-3.1-8.5-6.3-12.6-9.7l-1.1-1v-63c0.1-45.4,36.8-82.2,82.2-82.2h104.7c45.4,0.1,82.2,36.8,82.2,82.2v63
	l-1,0.8c-4.2,3.5-8.5,6.8-12.9,9.9c-0.6,0.4-1.2,0.8-1.8,1.2c-4.4,3.1-9,6-13.7,8.7c-0.6,0.3-1.2,0.7-1.8,1
	c-4.7,2.7-9.5,5.2-14.4,7.5c-0.6,0.3-1.1,0.5-1.7,0.7c-5,2.3-10,4.4-15.2,6.3c-0.5,0.2-1,0.4-1.5,0.5c-5.2,1.9-10.5,3.6-15.9,5
	l-1.3,0.3c-5.5,1.4-11,2.7-16.6,3.7c-0.3,0.1-0.6,0.1-1,0.1c-5.7,1-11.5,1.8-17.3,2.3h-0.5c-6,0.5-12,0.8-18,0.8
	S226.7,450.2,220.8,449.7z M388.3,387.6v-49.2c-0.1-53.6-43.5-97.1-97.2-97.2H186.5c-53.6,0.1-97.1,43.5-97.2,97.2v49.2
	c-80.5-82.2-79.6-213.9,2-295c81.6-81.1,213.4-81.1,295,0C467.9,173.6,468.8,305.4,388.3,387.6L388.3,387.6z"/>
<path d="M238.8,76.7c-41.3,0-74.8,33.5-74.8,74.8s33.5,74.8,74.8,74.8s74.8-33.5,74.8-74.8C313.5,110.2,280.1,76.8,238.8,76.7z
	 M238.8,211.3c-33,0-59.8-26.8-59.8-59.8s26.8-59.8,59.8-59.8s59.8,26.8,59.8,59.8C298.6,184.5,271.8,211.3,238.8,211.3z"/>
</svg>
