<?xml version="1.0" encoding="utf-8"?>
<!-- Generator: Adobe Illustrator 24.1.0, SVG Export Plug-In . SVG Version: 6.00 Build 0)  -->
<svg version="1.1" id="Слой_1" xmlns="http://www.w3.org/2000/svg" xmlns:xlink="http://www.w3.org/1999/xlink" x="0px" y="0px"
	 viewBox="0 0 512 512" style="enable-background:new 0 0 512 512;" xml:space="preserve">
<style type="text/css">
	.st0{fill:#FFFFFF;stroke:#000000;stroke-miterlimit:10;}
	.st1{fill:#5C6BC0;}
</style>
<rect x="83" y="114" class="st0" width="364" height="262"/>
<g>
	<path class="st1" d="M100.8,427.3H365l-12.6-40.9c1.9,1.6,108.2,92.8,108.2,92.8V80.4c-1.3-24.8-22.6-45.9-49.1-45.9l-310.7,0.1
		C74.5,34.6,53,55.7,53,80.5v300.9C53,407.6,74.4,427.3,100.8,427.3L100.8,427.3z M296.3,139.8l-0.6,0.2l0.2-0.2H296.3z
		 M154.9,163.4c34-24.7,65.4-23.5,65.4-23.5l2.5,2.5c-41.6,9.9-60.4,28.5-60.4,28.5c1.9-0.4,85.8-48.8,187.5,1.2
		c0,0-18.9-17.4-57.9-28.5l3.4-3.4c5.4,0,33.9,1,64.5,23.3c0,0,34.2,58.4,34.2,130.1c-1.1-1.4-21.2,30.9-72.8,32
		c0,0-8.7-9.9-15-18.5c30.2-8.7,41.5-26,41.5-26c-58.8,37-110.3,31.2-172,6.2c-0.6,0-0.8-0.3-1.1-0.6v-0.1c-0.3-0.3-0.6-0.6-1.1-0.6
		h-1.1c-3.8-2.5-6.3-3.7-6.3-3.7s11.3,17.3,40.3,26c-7.6,8.7-15.2,18.6-15.2,18.6c-51.6-1.2-70.4-33.5-70.4-33.5
		C120.9,221.6,154.9,163.4,154.9,163.4L154.9,163.4z"/>
	<path class="st1" d="M299.6,271.2c13.2,0,23.9-11.1,23.9-24.8c0-13.6-10.7-24.7-23.9-24.7v0.1c-13.1,0-23.9,11.1-23.9,24.8
		C275.7,260.1,286.4,271.2,299.6,271.2z"/>
	<path class="st1" d="M214,271.2c13.2,0,23.9-11.1,23.9-24.8c0-13.6-10.7-24.7-23.8-24.7l-0.1,0.1c-13.2,0-23.9,11.1-23.9,24.8
		C190.1,260.1,200.8,271.2,214,271.2z"/>
</g>
</svg>
