<?xml version="1.0" encoding="utf-8"?>
<!-- Generator: Adobe Illustrator 24.1.0, SVG Export Plug-In . SVG Version: 6.00 Build 0)  -->
<svg version="1.1" id="Capa_1" xmlns="http://www.w3.org/2000/svg" xmlns:xlink="http://www.w3.org/1999/xlink" x="0px" y="0px"
	 viewBox="0 0 512 475" style="enable-background:new 0 0 512 475;" xml:space="preserve">
<style type="text/css">
	.st0{fill:#9AC6AC;}
	.st1{fill:#6E8476;}
	.st2{fill:#60B8FF;}
	.st3{fill:#23A8FE;}
	.st4{fill:#FFFFFF;}
</style>
<path class="st0" d="M383.1,353.2v-72.4c0-5.6-5-10.1-11.2-10.1H127c-19.8,0-35.8-14.6-35.8-32.5V115.6H69.8
	C50,115.6,34,130.2,34,148.1v214.7c0,45.3,36.3,82.9,83.9,90c6.7,1,12.9-3.8,12.9-10V373c0-5.6,5-10.1,11.2-10.1h245.9
	c0.3,0,0.5,0,0.8,0C384.4,361.4,383.1,357.7,383.1,353.2z"/>
<path class="st1" d="M63.6,362.8V148.1c0-15.4,11.7-28.3,27.5-31.7v-0.9H69.8C50,115.6,34,130.2,34,148.1v214.7
	c0,45.3,36.3,82.9,83.9,90c4.5,0.7,8.8-1.3,11.1-4.5C90.8,435.4,63.6,402,63.6,362.8z"/>
<path class="st2" d="M442.2,26h-318c-19.8,0-35.8,14.6-35.8,32.5v182.2c0,18,16,32.5,35.8,32.5h245.9c6.2,0,11.2,4.5,11.2,10.1v69.9
	c0,6.2,6.1,11,12.9,10c47.6-7.2,83.9-44.7,83.9-90V58.5C478,40.6,462,26,442.2,26L442.2,26z"/>
<path class="st3" d="M118,240.7V58.5c0-18,16-32.5,35.8-32.5h-29.6c-19.8,0-35.8,14.6-35.8,32.5v182.2c0,18,16,32.5,35.8,32.5h29.6
	C134,273.2,118,258.7,118,240.7L118,240.7z"/>
<path class="st3" d="M410.9,353.2v-69.9c0-5.6-5-10.1-11.2-10.1h-29.6c6.2,0,11.2,4.5,11.2,10.1v69.9c0,6.2,6.1,11,12.9,10
	c6.4-1,12.6-2.5,18.6-4.5C411.5,357.2,410.9,355.3,410.9,353.2z"/>
<g>
	<path class="st4" d="M230.9,94.6h-57.8c-2.2,0-5.8,0.9-5.8,3.5v98.8c0,2.7,4.4,3.5,6.8,3.5c2.5,0,6.8-0.7,6.8-3.5v-43.6
		c0-0.7,0.7-1.3,1.5-1.3h26c3.6,0,3.6-4.2,3.6-4.4c0-1.7-0.8-4.6-3.6-4.6h-26c-0.8,0-1.5-0.6-1.5-1.3v-35.1c0-0.7,0.7-1.3,1.5-1.3
		h48.5c2.5,0,3.6-2.7,3.6-5.4C234.6,97.8,233.8,94.6,230.9,94.6L230.9,94.6z"/>
	<path class="st4" d="M310.4,194.8l-32.6-96.9c-1-2.8-5.4-4.1-9.3-4.1c-3.8,0-8.1,1.3-9.2,4.2l-32.7,96.8c-0.1,0.2-0.1,0.5-0.1,0.8
		c0,2.6,4.9,4.8,8.9,4.8c3.1,0,3.9-1.1,4.2-2l6.7-21.2c0.2-0.7,1-1.3,1.8-1.3h40.7c0.8,0,1.6,0.5,1.8,1.3l6.8,21.3
		c0.2,0.5,0.7,2,4,2c4.3,0,9.1-2.5,9.1-4.8C310.6,195.4,310.5,195,310.4,194.8L310.4,194.8z M285,166.7h-33.1
		c-1.3,0-2.2-1.1-1.8-2.2l16.5-51.5c0.5-1.7,3.1-1.7,3.7,0l16.5,51.5C287.2,165.6,286.3,166.7,285,166.7L285,166.7z"/>
	<path class="st4" d="M385.9,194.4c6.9-5.3,10.4-13.6,10.4-24.8v-43.5c0-26.1-19.1-31.6-35.1-31.6c-15.9,0-34.9,5.5-34.9,31.6v43.5
		c0,16.9,7.8,27.1,23.1,30.4c4.4,0.9,14.3,1.4,21.2,0.4l0.6-0.1c0.4-0.1,0.8,0.1,1,0.4l5.5,8c2,2.9,6.1,3.8,9.3,2
		c1.7-1,2.9-2.5,3.1-4.4c0.2-1.5-0.2-3-1.1-4.3l-4.1-6.1c-0.3-0.4-0.2-0.8,0.2-1.1L385.9,194.4z M382.8,169.7c0,5.3-1.2,9.7-3.6,13
		l-0.9,1.2c-0.4,0.5-1.3,0.5-1.6,0l-3.3-4.8c-2-2.9-6.3-4-9.5-2.2c-1.5,0.8-2.5,2.1-3,3.7c-0.5,1.7-0.1,3.5,0.9,5l2,2.9
		c0.4,0.6-0.1,1.3-0.8,1.3l-1.7,0c-0.7,0-1.4,0-2,0c-4.1,0-6.7-0.3-9.8-1.8c-6.4-3.1-9.7-9.3-9.7-18.4v-43.5
		c0-13.8,7.4-21.1,21.4-21.1c13.9,0,21.5,7.5,21.5,21.1L382.8,169.7z"/>
</g>
</svg>
