<?xml version="1.0" encoding="utf-8"?>
<!-- Generator: Adobe Illustrator 24.1.0, SVG Export Plug-In . SVG Version: 6.00 Build 0)  -->
<svg version="1.1" id="Слой_1" xmlns="http://www.w3.org/2000/svg" xmlns:xlink="http://www.w3.org/1999/xlink" x="0px" y="0px"
	 viewBox="0 0 125.91 114.81" style="enable-background:new 0 0 125.91 114.81;" xml:space="preserve">
<style type="text/css">
	.st0{fill:#E83927;}
	.st1{fill:#99281C;}
	.st2{fill:#9A281C;}
</style>
<path class="st0" d="M46.93,13.35L58.64,2.82c0.66-0.4,2.18-1.21,4.28-1.26c1.94-0.04,3.4,0.58,4.09,0.94
	c17.87,16.01,35.74,32.02,53.62,48.03c0.35,0.3,1.98,1.79,2.21,4.33c0.22,2.48-1.05,4.21-1.34,4.59
	c-17.52,15.79-35.04,31.57-52.55,47.36c-0.54,0.48-2.28,1.9-4.94,2.08c-2.28,0.16-3.98-0.69-4.64-1.06
	C41.65,92,23.93,76.17,6.21,60.34c-0.35-0.26-2.12-1.64-2.5-4.18c-0.36-2.4,0.79-4.16,1.05-4.55
	c12.26-11.16,24.51-22.33,36.77-33.49l13.49,12.13c-0.18,0.46-1.42,3.72,0.38,7.02c1.47,2.69,3.99,3.62,4.6,3.83
	c0.01,9.82,0.03,19.63,0.04,29.45c-0.52,0.18-3.45,1.27-4.84,4.43c-1.01,2.31-0.61,4.42-0.44,5.15c0.24,0.85,0.9,2.71,2.66,4.22
	c3.04,2.6,6.82,2.01,7.38,1.91c0.77-0.05,3.13-0.32,5.18-2.2c1.36-1.25,1.96-2.66,2.23-3.42c0.23-0.75,0.71-2.72-0.06-4.99
	c-1.12-3.31-4.03-4.66-4.54-4.88c0-9.72,0-19.43,0-29.15l12.17,11.02c-0.22,0.52-1.27,3.18-0.04,6.13c0.92,2.21,2.62,3.33,3.23,3.7
	c0.56,0.36,3.59,2.24,7.49,1.36c3.29-0.74,5.12-2.97,5.62-3.62c0.38-0.55,1.54-2.4,1.36-4.98c-0.2-2.93-1.99-4.73-2.43-5.15
	c-0.66-0.6-2.03-1.68-4.09-2.21c-2.56-0.66-4.68-0.07-5.53,0.21c-4.43-3.97-8.85-7.94-13.28-11.91c0.25-0.83,1.04-3.78-0.47-6.55
	c-1.86-3.42-6.46-5.2-11.19-3.96C55.95,21.56,51.44,17.45,46.93,13.35z"/>
<path class="st1" d="M46.93,13.35v5.15l13.64,12.22c0.44-0.1,6.59-1.36,9.97,2.51c0.52,0.59,1.28,1.51,1.69,2.9v5.23l12.93,11.7
	c0.69-0.16,5.85-1.28,9.57,2.01c1.19,1.06,1.9,2.26,2.31,3.21c0.39-1.04,0.46-1.93,0.47-2.5c0.01-1.75-0.64-3.03-0.98-3.7
	c-0.24-0.46-0.61-1.17-1.34-1.92c-1.21-1.25-2.55-1.73-3.45-2.04c-1.41-0.5-2.55-0.57-2.8-0.59c-1.56-0.09-2.82,0.22-3.59,0.48
	c-4.34-3.93-8.67-7.86-13.01-11.79c0.18-0.72,0.91-4.07-1.05-7.07c-2.11-3.22-6.46-4.71-10.76-3.54
	C56,21.52,51.46,17.44,46.93,13.35z"/>
<path class="st1" d="M67.62,70.77c0.02,1.78,0.05,3.56,0.07,5.35c0.68,0.27,1.92,0.87,3.02,2.14c0.82,0.95,1.24,1.9,1.46,2.52
	c0.26-0.74,0.8-2.62,0.17-4.83C71.31,72.4,68.09,70.97,67.62,70.77z"/>
<path class="st1" d="M54.89,80.52c0.34-0.7,0.94-1.72,1.97-2.71c1.17-1.14,2.38-1.73,3.14-2.03l0.05-5.22
	c-0.54,0.18-3.24,1.15-4.72,4.06c-1.41,2.77-0.75,5.37-0.59,5.96"/>
<path class="st1" d="M79.17,55.45c-0.02,0.45-0.01,1.02,0.1,1.67c0.12,0.71,0.33,1.3,0.52,1.75c0.03-0.99,0.04-2.01,0.04-3.05
	c0-1.09-0.01-2.15-0.04-3.18c-0.17,0.42-0.35,0.95-0.47,1.57C79.23,54.66,79.18,55.08,79.17,55.45z"/>
<path class="st1" d="M54.43,33.31c-0.03,0.53,0,1.23,0.2,2.02c0.11,0.43,0.25,0.8,0.39,1.11c0.01-1.07,0.01-2.14,0.02-3.21
	l-0.01-2.98c-0.18,0.44-0.38,1.01-0.49,1.69C54.44,32.46,54.42,32.93,54.43,33.31z"/>
<path class="st2" d="M119.55,60.94C102.2,76.59,84.84,92.24,67.48,107.9c-1.49,0.72-3.43,1.3-5.49,0.88
	c-2.03-0.42-3.35-1.63-3.8-2.04c-3.01-2.74-23.2-20.68-50.92-45.41c-0.22-0.22-0.55-0.54-0.93-0.94c-0.93-0.98-1.4-1.47-1.75-2.01
	c-0.35-0.53-0.81-1.43-0.94-2.82c-0.08,2.26,0.02,4.03,0.12,5.25c0.06,0.65,0.14,1.35,0.48,2.17c0.46,1.12,1.14,1.85,1.56,2.23
	c17.44,15.68,34.87,31.36,52.31,47.04c0.48,0.4,2.75,2.16,5.97,1.88c2.35-0.2,3.94-1.39,4.53-1.88l52.18-46.98
	c0.36-0.28,0.85-0.74,1.28-1.44c0.61-1.01,0.74-1.98,0.77-2.49c0-2.02,0-4.03,0-6.05c-0.04,0.64-0.18,1.68-0.75,2.81
	C121.31,59.69,120.13,60.56,119.55,60.94z"/>
</svg>
