<?xml version="1.0" encoding="utf-8"?>
<!-- Generator: Adobe Illustrator 24.1.0, SVG Export Plug-In . SVG Version: 6.00 Build 0)  -->
<svg version="1.1" id="Слой_1" xmlns="http://www.w3.org/2000/svg" xmlns:xlink="http://www.w3.org/1999/xlink" x="0px" y="0px"
	 viewBox="0 0 126.64 116.85" style="enable-background:new 0 0 126.64 116.85;" xml:space="preserve">
<style type="text/css">
	.st0{fill:#9AC6AC;}
</style>
<path class="st0" d="M57.32,23.53h55.4c0.99,0.05,4.69,0.37,7.74,3.36c2.25,2.21,2.98,4.73,3.23,5.83c0,18.77,0,37.53,0,56.3
	c0.03,1.01,0.01,4.19-2.21,7.19c-2.89,3.9-7.25,4.47-8,4.55c-32.81,0-65.62,0-98.43,0c-0.74,0.04-5.67,0.25-9.36-3.6
	c-2.82-2.94-3.18-6.43-3.24-7.45c0-22.24,0-44.49,0-66.73c0.12-1.26,0.52-3.55,2.14-5.74c3.49-4.73,9.47-4.75,10.2-4.74
	c10.04,0,20.08,0,30.12,0L57.32,23.53z M72.32,62.02L72.19,40H54l0.17,22.04H42l21.08,22l21.3-22L72.32,62.02z"/>
</svg>
