<svg height="512pt" viewBox="0 0 512 512" width="512pt" xmlns="http://www.w3.org/2000/svg" xmlns:xlink="http://www.w3.org/1999/xlink"><linearGradient id="a" gradientUnits="userSpaceOnUse" x1="256.0001972766" x2="256.0001972766" y1=".0001002766" y2="511.7164522766"><stop offset="0" stop-color="#2af598"/><stop offset="1" stop-color="#009efd"/></linearGradient><path d="m435.472656 235.871094-38.976562-38.980469 28.269531-28.269531 87.234375 87.238281-87.234375 87.234375-28.269531-28.269531 38.976562-38.976563h-114.652344v-39.976562zm-74.671875 235.867187h150.914063v39.976563h-511.714844v-451.75c0-33.0625 26.902344-59.964844 59.964844-59.964844h240.867187c33.066407 0 59.96875 26.902344 59.96875 59.964844v135.925781h-39.980469v-135.925781c0-11.019532-8.964843-19.988282-19.988281-19.988282h-23.425781c2.21875 6.257813 3.4375 12.984376 3.4375 19.988282v411.773437h39.976562v-155.914062h39.980469zm-320.824219 0h200.890626v-411.773437c0-11.019532-8.96875-19.988282-19.988282-19.988282h-160.914062c-11.019532 0-19.988282 8.96875-19.988282 19.988282zm141.421876-235.867187c-10.761719 0-19.488282 8.722656-19.488282 19.488281 0 10.761719 8.726563 19.488281 19.488282 19.488281 10.765624 0 19.488281-8.726562 19.488281-19.488281 0-10.765625-8.722657-19.488281-19.488281-19.488281zm0 0" fill="url(#a)"/></svg>