<?xml version="1.0" encoding="utf-8"?>
<!-- Generator: Adobe Illustrator 24.1.0, SVG Export Plug-In . SVG Version: 6.00 Build 0)  -->
<svg version="1.1" id="Слой_1" xmlns="http://www.w3.org/2000/svg" xmlns:xlink="http://www.w3.org/1999/xlink" x="0px" y="0px"
	 viewBox="0 0 434 278" style="enable-background:new 0 0 434 278;" xml:space="preserve">
<style type="text/css">
	.st0{fill:#8CAF9A;}
	.st1{fill:#9AC6AC;}
	.st2{fill:#ADD8BC;}
	.st3{fill:#6E8476;}
	.st4{display:none;fill:#CD5148;}
	.st5{display:none;}
	.st6{display:inline;fill:#E6E7E8;}
</style>
<path class="st0" d="M16.2,32.5h390.6V273H16.2L16.2,32.5z"/>
<path class="st1" d="M16.2,273V32.5l195.3,120.3L16.2,273z"/>
<path class="st1" d="M406.8,32.5V273L211.5,152.8L406.8,32.5z"/>
<path class="st2" d="M16.2,32.5l195.3,167.1L406.8,32.5H16.2z"/>
<path class="st3" d="M356.1,72c-16.7,13.4-33.4,26.8-50,40.4c-31.9,26-63.3,52.6-94.6,79.2c-31.3-26.6-62.8-53.2-94.6-79.2
	C100.4,98.9,83.7,85.4,67,72C50,58.9,33.4,45.4,16.2,32.5c15.4,15,31.3,29.3,46.9,44c15.8,14.5,31.7,28.9,47.7,43.1
	c31.9,28.6,64.3,56.6,96.8,84.6l3.9,3.4l3.9-3.4c32.5-27.9,64.9-56,96.8-84.5c16-14.2,31.9-28.6,47.7-43.1
	c15.6-14.7,31.5-29,46.9-44C389.7,45.4,373,58.9,356.1,72z"/>
<circle class="st4" cx="369.5" cy="65.9" r="62.9"/>
<g class="st5">
	<path class="st6" d="M369.8,84.5c-4.8,0-8.1,3.7-8.1,8.5c0,5.1,3.3,8.5,8.1,8.5c4.8,0,8.4-3.5,8.4-8.5
		C378.2,88.2,374.6,84.5,369.8,84.5z"/>
	<path class="st6" d="M369.7,81.4c2.5,0,4.6-1.9,4.8-4.4c1.7-18.7,5.4-38.9,5.4-40.7c-0.2-5-5.5-6-10.3-6c-5,0-10.1,1.2-10.1,5.9
		c0,1.8,3.7,22.4,5.4,40.9C365.1,79.5,367.2,81.4,369.7,81.4z"/>
</g>
</svg>
