<?xml version="1.0" encoding="utf-8"?>
<!-- Generator: Adobe Illustrator 24.1.0, SVG Export Plug-In . SVG Version: 6.00 Build 0)  -->
<svg version="1.1" id="Слой_1" xmlns="http://www.w3.org/2000/svg" xmlns:xlink="http://www.w3.org/1999/xlink" x="0px" y="0px"
	 viewBox="0 0 418.1 425.2" style="enable-background:new 0 0 418.1 425.2;" xml:space="preserve">
<style type="text/css">
	.st0{fill:#414042;}
	.st1{fill:#D1D3D4;}
	.st2{fill:#231F20;}
	.st3{fill:#7ED63E;}
	.st4{fill:#939598;}
	.st5{fill:#C2FB3B;}
	.st6{fill:#006DF0;}
	.st7{fill:#ACABB1;}
	.st8{fill:#D80027;}
	.st9{fill:#00DDC2;}
	.st10{fill:#808285;}
	.st11{fill:#A7A9AC;}
</style>
<path class="st0" d="M18.3,313.2h29.5c0-2,1.6-3.7,3.7-3.7c2,0,3.7,1.6,3.7,3.7h33.2c0-2,1.6-3.7,3.7-3.7c2,0,3.7,1.6,3.7,3.7h29.5
	v-84.7h-3.7v-7.4h3.7v-14.7H18.3V313.2z M77.2,303.9c0,2-1.6,3.7-3.7,3.7h-3.7c-2,0-3.7-1.6-3.7-3.7v-14.7c0-2,1.6-3.7,3.7-3.7h3.7
	c2,0,3.7,1.6,3.7,3.7V303.9z M93.8,281.8c-2,0-3.7-1.6-3.7-3.7s1.6-3.7,3.7-3.7s3.7,1.6,3.7,3.7S95.8,281.8,93.8,281.8z M55.1,215.5
	c0-2,1.6-3.7,3.7-3.7h53.4c2,0,3.7,1.6,3.7,3.7v16.6c0,2-1.6,3.7-3.7,3.7H58.8c-2,0-3.7-1.6-3.7-3.7V215.5z M71.7,241.3
	c10.2,0,18.4,8.2,18.4,18.4c0,10.2-8.2,18.4-18.4,18.4s-18.4-8.2-18.4-18.4C53.3,249.6,61.5,241.3,71.7,241.3z M23.8,215.5
	c0-2,1.6-3.7,3.7-3.7h18.4c2,0,3.7,1.6,3.7,3.7v16.6c0,2-1.6,3.7-3.7,3.7H27.5c-2,0-3.7-1.6-3.7-3.7V215.5z"/>
<path class="st1" d="M71.7,278.2c10.2,0,18.4-8.2,18.4-18.4c0-10.2-8.2-18.4-18.4-18.4s-18.4,8.2-18.4,18.4
	C53.3,269.9,61.5,278.2,71.7,278.2z M71.7,246.8c7.1,0,12.9,5.8,12.9,12.9c0,7.1-5.8,12.9-12.9,12.9s-12.9-5.8-12.9-12.9
	C58.8,252.6,64.6,246.8,71.7,246.8z"/>
<path class="st1" d="M97.5,278.2c0,2-1.6,3.7-3.7,3.7s-3.7-1.6-3.7-3.7s1.6-3.7,3.7-3.7S97.5,276.1,97.5,278.2z"/>
<path class="st1" d="M27.5,211.8h18.4c2,0,3.7,1.6,3.7,3.7v16.6c0,2-1.6,3.7-3.7,3.7H27.5c-2,0-3.7-1.6-3.7-3.7v-16.6
	C23.8,213.5,25.4,211.8,27.5,211.8z"/>
<path class="st1" d="M58.8,211.8h53.4c2,0,3.7,1.6,3.7,3.7v16.6c0,2-1.6,3.7-3.7,3.7H58.8c-2,0-3.7-1.6-3.7-3.7v-16.6
	C55.1,213.5,56.8,211.8,58.8,211.8z"/>
<g>
	<path class="st2" d="M125.1,222.9c1,0,1.8-0.8,1.8-1.8v-14.7c0-1-0.8-1.8-1.8-1.8H18.3c-1,0-1.8,0.8-1.8,1.8v106.8
		c0,1,0.8,1.8,1.8,1.8h29.5c1,0,1.8-0.8,1.8-1.8c0-1,0.8-1.8,1.8-1.8c1,0,1.8,0.8,1.8,1.8c0,1,0.8,1.8,1.8,1.8h33.2
		c1,0,1.8-0.8,1.8-1.8c0-1,0.8-1.8,1.8-1.8c1,0,1.8,0.8,1.8,1.8c0,1,0.8,1.8,1.8,1.8h29.5c1,0,1.8-0.8,1.8-1.8v-84.7
		c0-1-0.8-1.8-1.8-1.8h-1.8v-3.7H125.1z M121.4,230.3h1.8v81H97.2c-0.8-2.2-2.9-3.7-5.2-3.7c-2.3,0-4.4,1.5-5.2,3.7H56.6
		c-0.8-2.2-2.9-3.7-5.2-3.7c-2.3,0-4.4,1.5-5.2,3.7H20.1V208.2h103.2v11.1h-1.8c-1,0-1.8,0.8-1.8,1.8v7.4
		C119.6,229.4,120.4,230.3,121.4,230.3z"/>
	<path class="st2" d="M71.7,239.5c-11.2,0-20.3,9.1-20.3,20.3c0,11.2,9.1,20.3,20.3,20.3s20.3-9.1,20.3-20.3
		C91.9,248.5,82.9,239.5,71.7,239.5z M71.7,276.3c-9.2,0-16.6-7.4-16.6-16.6c0-9.2,7.4-16.6,16.6-16.6s16.6,7.4,16.6,16.6
		C88.2,268.9,80.8,276.3,71.7,276.3z"/>
	<path class="st2" d="M71.7,245c-8.1,0-14.7,6.6-14.7,14.7c0,8.1,6.6,14.7,14.7,14.7s14.7-6.6,14.7-14.7
		C86.4,251.6,79.8,245,71.7,245z M71.7,270.8c-6.1,0-11.1-4.9-11.1-11.1c0-6.1,4.9-11.1,11.1-11.1s11.1,4.9,11.1,11.1
		C82.7,265.8,77.8,270.8,71.7,270.8z"/>
	<path class="st2" d="M73.5,283.7h-3.7c-3.1,0-5.5,2.5-5.5,5.5v14.7c0,3.1,2.5,5.5,5.5,5.5h3.7c3.1,0,5.5-2.5,5.5-5.5v-14.7
		C79,286.2,76.6,283.7,73.5,283.7z M75.4,303.9c0,1-0.8,1.8-1.8,1.8h-3.7c-1,0-1.8-0.8-1.8-1.8v-14.7c0-1,0.8-1.8,1.8-1.8h3.7
		c1,0,1.8,0.8,1.8,1.8V303.9z"/>
	<path class="st2" d="M93.8,272.6c-3.1,0-5.5,2.5-5.5,5.5c0,3.1,2.5,5.5,5.5,5.5s5.5-2.5,5.5-5.5C99.3,275.1,96.8,272.6,93.8,272.6z
		 M93.8,280c-1,0-1.8-0.8-1.8-1.8c0-1,0.8-1.8,1.8-1.8s1.8,0.8,1.8,1.8C95.6,279.2,94.8,280,93.8,280z"/>
	<path class="st2" d="M51.4,215.5c0-3.1-2.5-5.5-5.5-5.5H27.5c-3.1,0-5.5,2.5-5.5,5.5v16.6c0,3.1,2.5,5.5,5.5,5.5h18.4
		c3.1,0,5.5-2.5,5.5-5.5V215.5z M47.7,232.1c0,1-0.8,1.8-1.8,1.8H27.5c-1,0-1.8-0.8-1.8-1.8v-16.6c0-1,0.8-1.8,1.8-1.8h18.4
		c1,0,1.8,0.8,1.8,1.8V232.1z"/>
	<path class="st2" d="M112.2,210H58.8c-3.1,0-5.5,2.5-5.5,5.5v16.6c0,3.1,2.5,5.5,5.5,5.5h53.4c3.1,0,5.5-2.5,5.5-5.5v-16.6
		C117.7,212.5,115.3,210,112.2,210z M114,232.1c0,1-0.8,1.8-1.8,1.8H58.8c-1,0-1.8-0.8-1.8-1.8v-16.6c0-1,0.8-1.8,1.8-1.8h53.4
		c1,0,1.8,0.8,1.8,1.8V232.1z"/>
</g>
<path class="st3" d="M164.7,148c-1.6-3.1-5.4-4.4-8.6-2.9l-5.7,2.7c-3.2,1.5-4.4,5.3-2.9,8.4l45.6,90.3l17.1-8.2L164.7,148z"/>
<path class="st4" d="M216,235.6l-5.7,2.7l-17.1,8.2l-5.7,2.7l17.1,33.9l28.5-13.7L216,235.6z M223.1,270.7l-10-19.8L223.1,270.7z
	 M201.8,256.4l10,19.7L201.8,256.4z"/>
<path class="st0" d="M244.5,278l-5.7,2.7l-28.5,13.7l-5.7,2.7l2.8,12.7l45.6-21.9L244.5,278z"/>
<path class="st1" d="M211.7,339.3l62.7-30.1l-12.8-25.4l-8.6,4.1l-45.6,21.9l-8.6,4.1L211.7,339.3z M257.3,296.4l4.3,8.5L216,326.7
	l-4.3-8.5L257.3,296.4z"/>
<path class="st1" d="M253.1,287.9l-45.6,21.9L253.1,287.9z"/>
<path class="st4" d="M240.2,339.6l17.1-8.2l17.1,33.9l-17.1,8.2L240.2,339.6z"/>
<g>
	<path class="st1" d="M211.7,318.2l45.6-21.9l4.3,8.5L216,326.7L211.7,318.2z"/>
	<path class="st1" d="M204.6,283.1l28.5-13.7l5.7,11.3l-28.5,13.7L204.6,283.1z"/>
	<path class="st1" d="M238.8,280.7l-28.5,13.7L238.8,280.7z"/>
</g>
<path class="st0" d="M257.4,331.4l5.7-2.7l-5.7-11.3l-28.5,13.7l5.7,11.3l5.7-2.7L257.4,331.4z"/>
<path class="st1" d="M240.2,339.6l17.1-8.2L240.2,339.6z"/>
<path class="st2" d="M277.3,363.9l-15.7-31l2.8-1.4c1.6-0.8,2.2-2.6,1.4-4.2l-4.3-8.5l14.2-6.8c1.6-0.8,2.2-2.6,1.4-4.2l-12.8-25.4
	c-0.8-1.6-2.7-2.2-4.3-1.5l-6.3,3l-6.9-8c-1-1.1-2.5-1.4-3.8-0.8l-2.9,1.4l-4.3-8.5l-17.1-33.9c-0.4-0.7-1-1.3-1.8-1.6
	c-0.8-0.3-1.7-0.2-2.4,0.1l-2.9,1.4l-44.2-87.5c-2.4-4.6-8.1-6.5-12.8-4.4L149,145c-4.7,2.3-6.6,7.9-4.3,12.6l44.2,87.5l-2.9,1.4
	c-0.8,0.4-1.3,1-1.6,1.8s-0.2,1.6,0.2,2.4l17.1,33.9l4.3,8.5l-2.9,1.4c-1.3,0.6-2,2.1-1.7,3.5l2.3,10.3l-6.3,3
	c-1.6,0.8-2.2,2.6-1.4,4.2l12.8,25.4c0.8,1.6,2.7,2.2,4.3,1.5l14.3-6.8l4.3,8.5c0.8,1.6,2.7,2.2,4.3,1.5l2.9-1.4l15.7,31
	c0.8,1.6,2.7,2.2,4.3,1.5l17.1-8.2c0.8-0.4,1.3-1,1.6-1.8C277.7,365.5,277.7,364.7,277.3,363.9z M243.7,281.9l4.3,5l-38.3,18.4
	l-1.4-6.3L243.7,281.9z M150.4,154.9c-0.4-0.7-0.4-1.6-0.2-2.4c0.3-0.8,0.8-1.4,1.6-1.8l5.7-2.7c1.6-0.8,3.5-0.1,4.3,1.5l44.2,87.5
	l-11.4,5.5L150.4,154.9z M214.6,239.8l14.3,28.2l-2.9,1.4l-10-19.8c-0.8-1.6-2.7-2.2-4.3-1.5c-1.6,0.8-2.2,2.6-1.4,4.2l10,19.8
	l-5.7,2.7l-10-19.8c-0.8-1.6-2.7-2.2-4.3-1.5c-1.6,0.8-2.2,2.6-1.4,4.2l10,19.7l-2.9,1.4l-14.3-28.2L214.6,239.8z M211.7,290.2
	l-2.9-5.6l22.8-10.9l2.9,5.6L211.7,290.2z M213.2,335.1l-10-19.8l5.7-2.7l45.6-21.9l5.7-2.7l10,19.8L213.2,335.1z M233.1,332.5
	l22.8-10.9l2.9,5.6L236,338.2L233.1,332.5z M258.8,369.3l-14.3-28.2l11.4-5.5l14.3,28.2L258.8,369.3z"/>
<path class="st2" d="M263.1,307.7c1.6-0.8,2.2-2.6,1.4-4.2l-4.3-8.5c-0.8-1.6-2.7-2.2-4.3-1.5l-45.6,21.9c-1.6,0.8-2.2,2.6-1.4,4.2
	l4.3,8.5c0.8,1.6,2.7,2.2,4.3,1.5L263.1,307.7z M216,319.7l39.9-19.1l1.4,2.8l-39.9,19.1L216,319.7z"/>
<path class="st0" d="M96.4,418.1l1.5,0.9c3.2,2,7.5,1.1,9.5-2.1l25.8-40.7c2-3.2,1.1-7.5-2.1-9.5l-40.7-25.8c-3.2-2-7.5-1.1-9.5,2.1
	L55,383.7c-2,3.2-1.1,7.5,2.1,9.5L96.4,418.1z M59.8,388.9l27.7-43.6l17.5,11.1l-27.7,43.6L59.8,388.9z M81.7,402.7l27.7-43.6
	l20.4,12.9L102,415.6L81.7,402.7z"/>
<path class="st1" d="M87.5,345.2l-27.7,43.6l17.5,11.1l27.7-43.6L87.5,345.2z M97.8,357.9l-22.1,34.9l-8.7-5.5l22.1-34.9L97.8,357.9
	z"/>
<path class="st5" d="M67,387.3l22.1-34.9l8.7,5.5l-22.1,34.9L67,387.3z"/>
<g>
	<path class="st1" d="M92.1,399.1l4.6-7.3l7.3,4.6l-4.6,7.3L92.1,399.1z"/>
	<path class="st1" d="M96.7,391.8l4.6-7.3l7.3,4.6l-4.6,7.3L96.7,391.8z"/>
	<path class="st1" d="M105.9,377.3l4.6-7.3l7.3,4.6l-4.6,7.3L105.9,377.3z"/>
	<path class="st1" d="M109.3,359l-27.7,43.6l20.4,12.9l27.7-43.6L109.3,359z M121.5,368.8l-22.1,34.9l-7.3-4.6l18.4-29.1l7.3,4.6
		L121.5,368.8z"/>
	<path class="st1" d="M101.3,384.6l4.6-7.3l7.3,4.6l-4.6,7.3L101.3,384.6z"/>
	<path class="st1" d="M72.6,339.8c-1.6-1-3.7-0.5-4.8,1.1l-20.3,32c-1,1.6-0.5,3.7,1.1,4.8l7.3,4.6l24-37.8L72.6,339.8z"/>
</g>
<path class="st0" d="M63.4,338.1c-1.6-1-3.7-0.5-4.8,1.1l-16.6,26.2c-1,1.6-0.5,3.7,1.1,4.8l4.4,2.8l20.3-32L63.4,338.1z"/>
<path class="st1" d="M115.5,420.1c1.6,1,3.7,0.5,4.8-1.1l20.3-32c1-1.6,0.5-3.7-1.1-4.8l-7.3-4.6l-24,37.8L115.5,420.1z"/>
<path class="st0" d="M124.6,421.8c1.6,1,3.7,0.5,4.8-1.1l16.6-26.2c1-1.6,0.5-3.7-1.1-4.8l-4.4-2.8l-20.3,32L124.6,421.8z"/>
<path class="st1" d="M55.6,392.3l-2.8,4.4l7.3,4.6l2.8-4.4L55.6,392.3z"/>
<path class="st1" d="M66,405l2.8-4.4l7.3,4.6l-2.8,4.4L66,405z"/>
<path class="st1" d="M91.1,417.9l2.8-4.4l7.3,4.6l-2.8,4.4L91.1,417.9z"/>
<path class="st1" d="M99,346.4l2.8-4.4l18.9,12l-2.8,4.4L99,346.4z"/>
<path class="st2" d="M86,344.3l-27.7,43.6c-0.5,0.8-0.3,1.9,0.5,2.4l17.5,11.1c0.8,0.5,1.9,0.3,2.4-0.5l27.7-43.6
	c0.5-0.8,0.3-1.9-0.5-2.4l-17.5-11.1C87.6,343.3,86.6,343.5,86,344.3z M102.6,356.8l-25.8,40.7l-14.5-9.2L88,347.6L102.6,356.8z"/>
<path class="st2" d="M77.2,393.7l22.1-34.9c0.5-0.8,0.3-1.9-0.5-2.4l-8.7-5.5c-0.8-0.5-1.9-0.3-2.4,0.5l-22.1,34.9
	c-0.5,0.8-0.3,1.9,0.5,2.4l8.7,5.5C75.6,394.8,76.7,394.5,77.2,393.7z M69.4,386.7l20.3-32l5.8,3.7l-20.3,32L69.4,386.7z"/>
<path class="st2" d="M107.9,358.1l-27.7,43.6c-0.5,0.8-0.3,1.9,0.5,2.4l20.4,12.9c0.8,0.5,1.9,0.3,2.4-0.5l27.7-43.6
	c0.5-0.8,0.3-1.9-0.5-2.4l-20.4-12.9C109.4,357.1,108.4,357.3,107.9,358.1z M89.9,405.8l2.8-4.4l4.4,2.8l-2.8,4.4L89.9,405.8z
	 M94.5,398.6l2.8-4.4l4.4,2.8l-2.8,4.4L94.5,398.6z M99.1,391.3l2.8-4.4l4.4,2.8l-2.8,4.4L99.1,391.3z M103.7,384l2.8-4.4l4.4,2.8
	l-2.8,4.4L103.7,384z M108.3,376.7l2.8-4.4l4.4,2.8l-2.8,4.4L108.3,376.7z M112.9,369.5l2.8-4.4l4.4,2.8l-2.8,4.4L112.9,369.5z
	 M109.9,361.4l2.9,1.8l-2.8,4.4l-2.9-1.8L109.9,361.4z M105.2,368.7l2.9,1.8l-2.8,4.4l-2.9-1.8L105.2,368.7z M100.6,376l2.9,1.8
	l-2.8,4.4l-2.9-1.8L100.6,376z M96,383.2l2.9,1.8l-2.8,4.4l-2.9-1.8L96,383.2z M91.4,390.5l2.9,1.8l-2.8,4.4l-2.9-1.8L91.4,390.5z
	 M84,402.2l2.8-4.4l2.9,1.8L87,404L84,402.2z M101.5,413.2l-4.4-2.8l2.8-4.4l4.4,2.8L101.5,413.2z M106.1,405.9l-4.4-2.8l2.8-4.4
	l4.4,2.8L106.1,405.9z M110.7,398.7l-4.4-2.8l2.8-4.4l4.4,2.8L110.7,398.7z M115.3,391.4l-4.4-2.8l2.8-4.4l4.4,2.8L115.3,391.4z
	 M119.9,384.1l-4.4-2.8l2.8-4.4l4.4,2.8L119.9,384.1z M127.3,372.5l-2.8,4.4l-4.4-2.8l2.8-4.4L127.3,372.5z"/>
<path class="st2" d="M100.3,341.1l-1.8,2.9l-7.3-4.6c-4-2.5-9.3-1.3-11.9,2.7l-5.8-3.7c-1.8-1.2-4.2-1-5.9,0.3l-3.2-2
	c-2.4-1.5-5.6-0.8-7.1,1.6l-16.6,26.2c-1.5,2.4-0.8,5.6,1.6,7.1l3.2,2c-0.5,2.1,0.4,4.3,2.3,5.5l5.8,3.7c-1.8,2.9-1.8,6.6,0.1,9.4
	l-2.2,3.5c-0.5,0.8-0.3,1.9,0.5,2.4l7.3,4.6c0.8,0.5,1.9,0.3,2.4-0.5l1.8-2.9l2.9,1.8l-1.8,2.9c-0.5,0.8-0.3,1.9,0.5,2.4l7.3,4.6
	c0.8,0.5,1.9,0.3,2.4-0.5l1.8-2.9l10.2,6.5l-1.8,2.9c-0.5,0.8-0.3,1.9,0.5,2.4l7.3,4.6c0.8,0.5,1.9,0.3,2.4-0.5l1.8-2.9
	c4,2.5,9.3,1.3,11.9-2.7l5.8,3.7c1.8,1.2,4.2,1,5.9-0.3l3.2,2c2.4,1.5,5.6,0.8,7.1-1.6l16.6-26.2c1.5-2.4,0.8-5.6-1.6-7.1l-3.2-2
	c0.5-2.1-0.4-4.3-2.3-5.5l-5.8-3.7c2.5-4,1.3-9.3-2.7-11.9l-11.6-7.4l1.8-2.9c0.5-0.8,0.3-1.9-0.5-2.4l-18.9-12
	C101.9,340.1,100.8,340.3,100.3,341.1z M44.1,368.7c-0.8-0.5-1-1.6-0.5-2.4l16.6-26.2c0.5-0.8,1.6-1,2.4-0.5l2.9,1.8L47,370.5
	L44.1,368.7z M49.5,376.2c-0.8-0.5-1-1.6-0.5-2.4l20.3-32c0.5-0.8,1.6-1,2.4-0.5l1.5,0.9L51,377.1L49.5,376.2z M53.9,379L76,344.1
	l1.5,0.9l-22.1,34.9L53.9,379z M59.6,398.9l-4.4-2.8l0.9-1.5l4.4,2.8L59.6,398.9z M72.7,407.2l-4.4-2.8l0.9-1.5l4.4,2.8L72.7,407.2z
	 M93.1,420.1l-4.4-2.8l0.9-1.5l4.4,2.8L93.1,420.1z M144,391.2c0.8,0.5,1,1.6,0.5,2.4l-16.6,26.2c-0.5,0.8-1.6,1-2.4,0.5l-2.9-1.8
	l18.4-29.1L144,391.2z M138.6,383.7c0.8,0.5,1,1.6,0.5,2.4l-20.3,32c-0.5,0.8-1.6,1-2.4,0.5l-1.5-0.9l22.1-34.9L138.6,383.7z
	 M134.2,380.9l-22.1,34.9l-1.5-0.9l22.1-34.9L134.2,380.9z M130.1,368.1c2.4,1.5,3.1,4.7,1.6,7.1L105.9,416
	c-1.5,2.4-4.7,3.1-7.1,1.6L58,391.8c-2.4-1.5-3.1-4.7-1.6-7.1l25.8-40.7c1.5-2.4,4.7-3.1,7.1-1.6L130.1,368.1z M118.3,354.5
	l-0.9,1.5l-16-10.1l0.9-1.5L118.3,354.5z"/>
<path class="st1" d="M334.4,25.2v2.9c0,1.1,0.9,1.9,1.9,1.9h1c1.1,0,1.9-0.9,1.9-1.9v-8.8c0-1.1-0.9-1.9-1.9-1.9h-3.6
	c-0.8,0-1.4,0.4-1.8,1.1L324.7,34h5.8L334.4,25.2z"/>
<path class="st1" d="M374.1,17.4h-3.6c-1.1,0-1.9,0.9-1.9,1.9v8.8c0,1.1,0.9,1.9,1.9,1.9h1c1.1,0,1.9-0.9,1.9-1.9v-2.9l3.9,8.8h5.8
	l-7.3-15.5C375.6,17.8,374.9,17.4,374.1,17.4z"/>
<path class="st4" d="M330.5,34h-5.8v5.8h58.5V34H330.5z"/>
<path class="st6" d="M324.7,49.6c0,4.3,3.5,7.8,7.8,7.8h13.6c2.2,0,3.9-1.7,3.9-3.9v-1.9c0-2.2,1.7-3.9,3.9-3.9
	c2.2,0,3.9,1.7,3.9,3.9v1.9c0,2.2,1.7,3.9,3.9,3.9h13.6c4.3,0,7.8-3.5,7.8-7.8v-9.7h-58.5V49.6z M373.4,56.4l3.9-15.6L373.4,56.4z
	 M373.4,40.8l-3.9,15.6L373.4,40.8z M366.6,40.8l-3.9,15.6L366.6,40.8z"/>
<path class="st2" d="M384.1,33.9c0-0.1,0-0.2-0.1-0.3c0,0,0,0,0,0c0,0,0,0,0,0l-7.3-15.5c-0.5-1-1.5-1.7-2.6-1.7h-3.6
	c-1.6,0-2.9,1.3-2.9,2.9v8.8c0,1.6,1.3,2.9,2.9,2.9h1c1.2,0,2.2-0.7,2.7-1.8l1.7,3.7H332l1.7-3.7c0.5,1.1,1.5,1.8,2.7,1.8h1
	c1.6,0,2.9-1.3,2.9-2.9v-8.8c0-1.6-1.3-2.9-2.9-2.9h-3.6c-1.1,0-2.2,0.7-2.6,1.7l-7.3,15.5c0,0,0,0,0,0c0,0,0,0,0,0
	c0,0.1-0.1,0.2-0.1,0.3c0,0,0,0,0,0v15.6c0,4.8,3.9,8.8,8.8,8.8h13.6c2.7,0,4.9-2.2,4.9-4.9v-1.9c0-1.6,1.3-2.9,2.9-2.9
	c1.6,0,2.9,1.3,2.9,2.9v1.9c0,2.7,2.2,4.9,4.9,4.9h13.6c4.8,0,8.8-3.9,8.8-8.8L384.1,33.9C384.1,34,384.1,34,384.1,33.9z
	 M372.5,56.4h-1.9l3.8-15.4c0-0.1,0-0.2,0-0.2h1.9l-3.8,15.4C372.4,56.2,372.4,56.3,372.5,56.4z M367.5,40.8h4.9l-3.8,15.4
	c0,0.1,0,0.2,0,0.2h-4.9l3.8-15.4C367.5,41,367.5,40.9,367.5,40.8z M325.6,38.9V35h56.5v3.9H325.6z M374.3,24.8
	c-0.2-0.4-0.6-0.7-1.1-0.6c-0.5,0.1-0.8,0.5-0.8,1v2.9c0,0.5-0.4,1-1,1h-1c-0.5,0-1-0.4-1-1v-8.8c0-0.5,0.4-1,1-1h3.6
	c0.4,0,0.7,0.2,0.9,0.6l6.6,14.1h-3.7L374.3,24.8z M332.8,18.9c0.2-0.3,0.5-0.6,0.9-0.6h3.6c0.5,0,1,0.4,1,1v8.8c0,0.5-0.4,1-1,1h-1
	c-0.5,0-1-0.4-1-1v-2.9c0-0.5-0.3-0.9-0.8-1c-0.5-0.1-0.9,0.1-1.1,0.6l-3.6,8.2h-3.7L332.8,18.9z M358.8,53.5v-1.9
	c0-2.7-2.2-4.9-4.9-4.9c-2.7,0-4.9,2.2-4.9,4.9v1.9c0,1.6-1.3,2.9-2.9,2.9h-13.6c-3.8,0-6.8-3.1-6.8-6.8v-8.8h39.9l-3.8,15.4
	c0,0.1,0,0.2,0,0.2h0C360.1,56.4,358.8,55.1,358.8,53.5z M382.2,49.6c0,3.8-3.1,6.8-6.8,6.8h-0.9l3.8-15.4c0-0.1,0-0.2,0-0.2h3.9
	V49.6z"/>
<path class="st7" d="M296.6,127.7c0,4.4,3.5,7.9,7.9,7.9h3.9v-5.9h-3.9v-5.9h11.8v5.9h-7.9v5.9h98.6c4.4,0,7.9-3.5,7.9-7.9V108
	H296.6V127.7z M357.8,129.7h-29.6v-7.9h29.6V129.7z M365.7,115.9h31.6v13.8h-31.6V115.9z"/>
<path class="st1" d="M304.5,88.2l-7.9,13.8v5.9H415V102l-7.9-13.8H304.5z"/>
<path class="st1" d="M397.2,129.7v-13.8h-31.6v13.8H397.2z"/>
<path class="st1" d="M316.4,123.7h-11.8v5.9h11.8V123.7z"/>
<path class="st8" d="M338.1,127.7v-5.9h-9.9v7.9h29.6v-7.9h-19.7V127.7z"/>
<path class="st7" d="M369.6,173.1H411v-21.7h-41.4V173.1z M403.1,163.2c1.1,0,2,0.9,2,2s-0.9,2-2,2c-1.1,0-2-0.9-2-2
	S402.1,163.2,403.1,163.2z M393.3,163.2c1.1,0,2,0.9,2,2s-0.9,2-2,2s-2-0.9-2-2S392.2,163.2,393.3,163.2z"/>
<path class="st1" d="M395.3,165.2c0,1.1-0.9,2-2,2s-2-0.9-2-2s0.9-2,2-2S395.3,164.1,395.3,165.2z"/>
<path class="st1" d="M405.1,165.2c0,1.1-0.9,2-2,2c-1.1,0-2-0.9-2-2s0.9-2,2-2C404.2,163.2,405.1,164.1,405.1,165.2z"/>
<g>
	<path class="st2" d="M416.7,101.1l-7.9-13.8c-0.4-0.6-1-1-1.7-1H304.5c-0.7,0-1.4,0.4-1.7,1l-7.9,13.8c-0.2,0.3-0.3,0.6-0.3,1v25.6
		c0,5.4,4.4,9.9,9.9,9.9h2v5.9c0,2.2,1.8,3.9,3.9,3.9h39.4v3.9h-19.7c-2.2,0-3.9,1.8-3.9,3.9v3.9c0,2.2,1.8,3.9,3.9,3.9h37.5v9.9
		c0,1.1,0.9,2,2,2H411c1.1,0,2-0.9,2-2v-21.7c0-1.1-0.9-2-2-2h-41.4c-1.1,0-2,0.9-2,2v7.9h-37.5v-3.9h19.7c2.2,0,3.9-1.8,3.9-3.9
		v-3.9c0-2.2-1.8-3.9-3.9-3.9h-39.4v-5.9h96.7c5.4,0,9.9-4.4,9.9-9.9V102C417,101.7,416.9,101.4,416.7,101.1z M409.1,153.3v17.8
		h-21.7v-17.8H409.1z M371.6,153.3h11.8v17.8h-11.8V153.3z M405.9,90.2l7.1,12.4v3.4h-17.8V90.2H405.9z M413,113.9H298.6v-3.9H413
		V113.9z M367.6,125.7h27.6v2h-27.6V125.7z M395.3,121.8h-27.6v-3.9h27.6V121.8z M373.6,96.1h17.8v9.9h-17.8V96.1z M391.3,90.2v2
		h-17.8v-2H391.3z M298.6,102.6l7.1-12.4h63.9V106h-71V102.6z M413,127.7c0,3.3-2.6,5.9-5.9,5.9h-96.7v-2h5.9c1.1,0,2-0.9,2-2v-5.9
		c0-1.1-0.9-2-2-2h-11.8c-1.1,0-2,0.9-2,2v5.9c0,1.1,0.9,2,2,2h2v2h-2c-3.3,0-5.9-2.6-5.9-5.9v-9.9h65.1v11.8c0,1.1,0.9,2,2,2h31.6
		c1.1,0,2-0.9,2-2v-11.8H413V127.7z M306.5,127.7v-2h7.9v2H306.5z"/>
	<path class="st2" d="M357.8,119.8h-29.6c-1.1,0-2,0.9-2,2v7.9c0,1.1,0.9,2,2,2h29.6c1.1,0,2-0.9,2-2v-7.9
		C359.7,120.7,358.9,119.8,357.8,119.8z M330.2,127.7v-3.9h5.9v3.9H330.2z M340,127.7v-3.9h5.9v3.9H340z M355.8,127.7h-5.9v-3.9h5.9
		V127.7z"/>
	<path class="st2" d="M397.2,165.2c0,2.2-1.8,3.9-3.9,3.9s-3.9-1.8-3.9-3.9c0-2.2,1.8-3.9,3.9-3.9S397.2,163,397.2,165.2z"/>
	<path class="st2" d="M407.1,165.2c0,2.2-1.8,3.9-3.9,3.9c-2.2,0-3.9-1.8-3.9-3.9c0-2.2,1.8-3.9,3.9-3.9
		C405.3,161.2,407.1,163,407.1,165.2z"/>
</g>
<path class="st1" d="M160.4,71.5l14.7,6.2l10.1-14.9l62,26.2l-3.6,17.7l14.7,6.2l28.9-68.6L189.3,3L160.4,71.5z M192.1,9.9
	l88.2,37.2l-17.9,42.4l-88.2-37.2L192.1,9.9z"/>
<path class="st4" d="M185.2,62.8l-10.1,14.9l68.6,28.9l3.6-17.7L185.2,62.8z"/>
<path class="st4" d="M280.3,47.1L192.1,9.9l-17.9,42.4l88.2,37.2L280.3,47.1z M195,16.9l4.9,2.1l-2.1,4.9l-4.9-2.1L195,16.9z
	 M195.8,42.2c1.5-3.6,5.7-5.3,9.3-3.8c3.6,1.5,5.3,5.7,3.8,9.3c-1.5,3.6-5.7,5.3-9.3,3.8C196,50,194.3,45.8,195.8,42.2z M241.5,61.5
	c1.5-3.6,5.7-5.3,9.3-3.8c3.6,1.5,5.3,5.7,3.8,9.3c-1.5,3.6-5.7,5.3-9.3,3.8C241.7,69.3,240,65.1,241.5,61.5z"/>
<path class="st1" d="M195,16.9l4.9,2.1l-2.1,4.9l-4.9-2.1L195,16.9z"/>
<g>
	<path class="st2" d="M287.9,42.6L190,1.3c-0.9-0.4-1.9,0-2.3,0.9l-28.9,68.6c-0.4,0.9,0,1.9,0.9,2.3l98,41.3c0.9,0.4,1.9,0,2.3-0.9
		l28.9-68.6C289.3,44,288.9,43,287.9,42.6z M177.8,76.9l8.1-12l59.4,25l-2.9,14.2L177.8,76.9z M257.4,110.5l-11.7-4.9l3.3-16.3
		c0.2-0.8-0.3-1.7-1-2l-62-26.2c-0.8-0.3-1.7-0.1-2.2,0.6l-9.3,13.8l-11.7-4.9l27.5-65.3l94.7,39.9L257.4,110.5z"/>
	<path class="st2" d="M173.6,54l88.2,37.2c0.9,0.4,1.9,0,2.3-0.9l17.9-42.4c0.4-0.9,0-1.9-0.9-2.3L192.8,8.3c-0.9-0.4-1.9,0-2.3,0.9
		l-17.9,42.4C172.2,52.6,172.7,53.6,173.6,54z M263.5,82.3l-6.5-2.8l8.3-19.6l6.5,2.8L263.5,82.3z M253.7,78.2l-19.6-8.3l8.3-19.6
		l19.6,8.3L253.7,78.2z M212,58.6l19.6,8.3l-0.7,1.6l-19.6-8.3L212,58.6z M232.9,63.6l-19.6-8.3l6.2-14.7l19.6,8.3L232.9,63.6z
		 M208,58.9l-19.6-8.3l8.3-19.6l19.6,8.3L208,58.9z M185.2,49.3l-6.5-2.8l8.3-19.6l6.5,2.8L185.2,49.3z M261.5,87.2l-84.9-35.8
		l0.7-1.6l84.9,35.8L261.5,87.2z M193.1,12.2L278,48l-4.8,11.4l-84.9-35.8L193.1,12.2z"/>
	<path class="st2" d="M198.9,53.1c4.5,1.9,9.7-0.2,11.6-4.7c1.9-4.5-0.2-9.7-4.7-11.6c-4.5-1.9-9.7,0.2-11.6,4.7
		C192.3,46,194.4,51.2,198.9,53.1z M204.4,40.1c2.7,1.1,4,4.3,2.8,7s-4.3,4-7,2.8s-4-4.3-2.8-7S201.7,38.9,204.4,40.1z"/>
	<path class="st2" d="M244.6,72.4c4.5,1.9,9.7-0.2,11.6-4.7c1.9-4.5-0.2-9.7-4.7-11.6c-4.5-1.9-9.7,0.2-11.6,4.7
		C238,65.3,240.1,70.5,244.6,72.4z M250.1,59.4c2.7,1.1,4,4.3,2.8,7c-1.1,2.7-4.3,4-7,2.8s-4-4.3-2.8-7
		C244.3,59.5,247.4,58.2,250.1,59.4z"/>
	<path class="st2" d="M272,53.2l-68.6-28.9c-0.9-0.4-1.9,0-2.3,0.9c-0.4,0.9,0,1.9,0.9,2.3l68.6,28.9c0.9,0.4,1.9,0,2.3-0.9
		C273.3,54.6,272.9,53.6,272,53.2z"/>
	<path class="st2" d="M274,48.3l-68.6-28.9c-0.9-0.4-1.9,0-2.3,0.9c-0.4,0.9,0,1.9,0.9,2.3l68.6,28.9c0.9,0.4,1.9,0,2.3-0.9
		C275.3,49.7,274.9,48.7,274,48.3z"/>
	<path class="st2" d="M200.6,17.3l-4.9-2.1c-0.9-0.4-1.9,0-2.3,0.9l-2.1,4.9c-0.4,0.9,0,1.9,0.9,2.3l4.9,2.1c0.9,0.4,1.9,0,2.3-0.9
		l2.1-4.9C201.9,18.7,201.5,17.7,200.6,17.3z M196.9,21.5l-1.6-0.7l0.7-1.6l1.6,0.7L196.9,21.5z"/>
</g>
<path class="st9" d="M361.9,204.9l-102.6-26.1c-2-0.5-4.1,0.7-4.6,2.7l-14,55c-0.5,2,0.7,4.1,2.7,4.6l102.6,26.1
	c2,0.5,4.1-0.7,4.6-2.7l14-55C365.2,207.5,364,205.5,361.9,204.9z M330.1,253.4l-55-14l6.5-25.6l55,14L330.1,253.4z"/>
<path class="st1" d="M275.2,239.4l55,14l6.5-25.6l-55-14L275.2,239.4z M322.9,228.2c4,1,6.5,5.1,5.5,9.2c-1,4-5.1,6.5-9.2,5.5
	c-4-1-6.5-5.1-5.5-9.2C314.7,229.6,318.8,227.1,322.9,228.2z M293.6,220.7c4,1,6.5,5.1,5.5,9.2c-1,4-5.1,6.5-9.2,5.5
	c-4-1-6.5-5.1-5.5-9.2C285.4,222.1,289.5,219.7,293.6,220.7z"/>
<path class="st0" d="M299,229.9c-1,4-5.1,6.5-9.2,5.5c-4-1-6.5-5.1-5.5-9.2c1-4,5.1-6.5,9.2-5.5C297.6,221.7,300.1,225.9,299,229.9z
	"/>
<path class="st0" d="M328.3,237.4c-1,4-5.1,6.5-9.2,5.5c-4-1-6.5-5.1-5.5-9.2c1-4,5.1-6.5,9.2-5.5S329.4,233.3,328.3,237.4z"/>
<path class="st1" d="M303.4,174.4l12.8,3.3l-1.4,5.5l-12.8-3.3L303.4,174.4z"/>
<path class="st1" d="M321.7,179.1l12.8,3.3l-1.4,5.5l-12.8-3.3L321.7,179.1z"/>
<path class="st1" d="M340,183.8l12.8,3.3l-1.4,5.5l-12.8-3.3L340,183.8z"/>
<path class="st0" d="M354.6,195.3l-56.8-14.4l-3.7,6.9l60.4,15.4L354.6,195.3z"/>
<g>
	<path class="st2" d="M362.4,203.1l-5.9-1.5l0-6.3c0-0.9-0.6-1.6-1.4-1.8l-1.8-0.5l1.4-5.5c0.3-1-0.4-2-1.4-2.3l-12.8-3.3
		c-1-0.3-2,0.4-2.3,1.4l-1.4,5.5l-1.8-0.5l1.4-5.5c0.3-1-0.4-2-1.4-2.3l-12.8-3.3c-1-0.3-2,0.4-2.3,1.4l-1.4,5.5l-1.8-0.5l1.4-5.5
		c0.3-1-0.4-2-1.4-2.3l-12.8-3.3c-1-0.3-2,0.4-2.3,1.4l-1.4,5.5l-1.8-0.5c-0.8-0.2-1.7,0.2-2.1,0.9l-3,5.6l-33.4-8.5
		c-3-0.8-6.1,1.1-6.9,4.1l-14,55c-0.8,3,1.1,6.1,4.1,6.9l102.6,26.1c3,0.8,6.1-1.1,6.9-4.1l14-55C367.3,207,365.4,203.9,362.4,203.1
		z M341.4,186.1l9.2,2.3l-0.5,1.8l-9.2-2.3L341.4,186.1z M323.1,181.4l9.2,2.3l-0.5,1.8l-9.2-2.3L323.1,181.4z M304.8,176.7l9.2,2.3
		l-0.5,1.8l-9.2-2.3L304.8,176.7z M362.8,209.1l-2.3,9.2l-12.8-3.3l2.8-11l11,2.8C362.5,207,363.1,208.1,362.8,209.1z M328.5,198.4
		l3.7,0.9l-1.4,5.5l-3.7-0.9L328.5,198.4z M335.8,200.3l3.7,0.9l-1.4,5.5l-3.7-0.9L335.8,200.3z M343.2,202.1l3.7,0.9l-1.4,5.5
		l-3.7-0.9L343.2,202.1z M298.8,183l53.9,13.7l0,3.9L297,186.5L298.8,183z M244,239.3c-1-0.3-1.6-1.3-1.4-2.3l14-55
		c0.3-1,1.3-1.6,2.3-1.4l3.7,0.9l-14.9,58.6L244,239.3z M251.3,241.2l14.9-58.6l58.6,14.9l-1.4,5.5l-42.1-10.7c-1-0.3-2,0.4-2.3,1.4
		l-13,51.3L251.3,241.2z M269.6,245.8l12.6-49.5l62.3,15.8l-12.6,49.5L269.6,245.8z M348.9,264c-0.3,1-1.3,1.6-2.3,1.4l-11-2.8
		l11.2-44l12.8,3.3L348.9,264z"/>
	<path class="st2" d="M337.1,225.9l-55-14c-1-0.3-2,0.4-2.3,1.4l-6.5,25.6c-0.3,1,0.4,2,1.4,2.3l55,14c1,0.3,2-0.4,2.3-1.4l6.5-25.6
		C338.7,227.2,338.1,226.2,337.1,225.9z M328.7,251.1l-51.3-13l5.6-22l51.3,13L328.7,251.1z"/>
	<path class="st2" d="M282.6,225.7c-1.3,5.1,1.8,10.2,6.8,11.5c5.1,1.3,10.2-1.8,11.5-6.8c1.3-5.1-1.8-10.2-6.8-11.5
		C289,217.6,283.8,220.7,282.6,225.7z M293.1,222.5c3,0.8,4.9,3.9,4.1,6.9c-0.8,3-3.9,4.9-6.9,4.1c-3-0.8-4.9-3.9-4.1-6.9
		C287,223.6,290.1,221.8,293.1,222.5z"/>
	<path class="st2" d="M311.9,233.2c-1.3,5.1,1.8,10.2,6.8,11.5c5.1,1.3,10.2-1.8,11.5-6.8s-1.8-10.2-6.8-11.5
		C318.3,225.1,313.2,228.1,311.9,233.2z M322.4,230c3,0.8,4.9,3.9,4.1,6.9s-3.9,4.9-6.9,4.1c-3-0.8-4.9-3.9-4.1-6.9
		C316.3,231.1,319.4,229.2,322.4,230z"/>
	<path class="st2" d="M303.6,227.2l7.3,1.9c1,0.3,2-0.4,2.3-1.4c0.3-1-0.4-2-1.4-2.3l-7.3-1.9c-1-0.3-2,0.4-2.3,1.4
		C302,225.9,302.6,226.9,303.6,227.2z"/>
	<path class="st2" d="M309.1,236.4l-7.3-1.9c-1-0.3-2,0.4-2.3,1.4c-0.3,1,0.4,2,1.4,2.3l7.3,1.9c1,0.3,2-0.4,2.3-1.4
		C310.7,237.6,310.1,236.6,309.1,236.4z"/>
	<path class="st2" d="M338.5,220.4l-55-14c-1-0.3-2,0.4-2.3,1.4c-0.3,1,0.4,2,1.4,2.3l55,14c1,0.3,2-0.4,2.3-1.4
		C340.1,221.7,339.5,220.7,338.5,220.4z"/>
</g>
<path class="st10" d="M314.8,311.7v87.1c0,4.3,3.5,7.7,7.7,7.7H400c4.3,0,7.7-3.5,7.7-7.7v-87.1c0-4.3-3.5-7.7-7.7-7.7h-77.5
	C318.2,303.9,314.8,307.4,314.8,311.7z M338,398.8h-15.5v-15.5H338V398.8z M400,396.9h-17.4v-5.8h-17.4v-11.6h17.4v-5.8H400V396.9z
	 M400,363.9h-77.5v-50.3H400V363.9z"/>
<path class="st10" d="M318.6,406.5v9.5c0,2.2,1.8,4.1,4.1,4.1h77.1c2.2,0,4.1-1.8,4.1-4.1v-9.5H318.6z"/>
<path class="st1" d="M322.5,363.9H400v-50.3h-77.5V363.9z M330.3,327.2c0-4.3,3.5-7.7,7.7-7.7h46.5c4.3,0,7.7,3.5,7.7,7.7v23.2
	c0,4.3-3.5,7.7-7.7,7.7H338c-4.3,0-7.7-3.5-7.7-7.7V327.2z"/>
<path class="st6" d="M338,319.4h46.5c4.3,0,7.7,3.5,7.7,7.7v23.2c0,4.3-3.5,7.7-7.7,7.7H338c-4.3,0-7.7-3.5-7.7-7.7v-23.2
	C330.3,322.9,333.7,319.4,338,319.4z"/>
<path class="st1" d="M322.5,398.8H338v-15.5h-15.5V398.8z M330.3,389.1c1.1,0,1.9,0.9,1.9,1.9s-0.9,1.9-1.9,1.9s-1.9-0.9-1.9-1.9
	S329.2,389.1,330.3,389.1z"/>
<path class="st1" d="M332.2,391.1c0,1.1-0.9,1.9-1.9,1.9s-1.9-0.9-1.9-1.9s0.9-1.9,1.9-1.9S332.2,390,332.2,391.1z"/>
<path class="st1" d="M382.5,379.4h-17.4v11.6h17.4v5.8H400v-23.2h-17.4V379.4z M386.4,379.4c0-1.1,0.9-1.9,1.9-1.9h5.8
	c1.1,0,1.9,0.9,1.9,1.9v7.7h-25.2c-1.1,0-1.9-0.9-1.9-1.9s0.9-1.9,1.9-1.9h15.5V379.4z"/>
<g>
	<path class="st2" d="M369,385.2c0,1.1,0.9,1.9,1.9,1.9h25.2v-7.7c0-1.1-0.9-1.9-1.9-1.9h-5.8c-1.1,0-1.9,0.9-1.9,1.9v3.9h-15.5
		C369.9,383.3,369,384.2,369,385.2z"/>
	<path class="st2" d="M400,302h-77.5c-5.3,0-9.7,4.3-9.7,9.7v87.1c0,3,1.4,5.9,3.9,7.7v0v9.5c0,3.3,2.7,6,6,6h77.1c3.3,0,6-2.7,6-6
		v-9.5c0,0,0,0,0,0c2.4-1.8,3.9-4.7,3.9-7.7v-87.1C409.6,306.3,405.3,302,400,302z M401.9,416c0,1.2-1,2.1-2.1,2.1h-77.1
		c-1.2,0-2.1-1-2.1-2.1v-1.7h81.3V416z M401.9,408.5v1.9h-81.3v-1.9H401.9z M405.8,398.8c0,3.2-2.6,5.8-5.8,5.8h-77.5
		c-3.2,0-5.8-2.6-5.8-5.8v-87.1c0-3.2,2.6-5.8,5.8-5.8H400c3.2,0,5.8,2.6,5.8,5.8V398.8z"/>
	<path class="st2" d="M400,311.7h-77.5c-1.1,0-1.9,0.9-1.9,1.9v50.3c0,1.1,0.9,1.9,1.9,1.9H400c1.1,0,1.9-0.9,1.9-1.9v-50.3
		C401.9,312.5,401,311.7,400,311.7z M398,362h-73.6v-46.5H398V362z"/>
	<path class="st2" d="M338,360.1h46.5c5.3,0,9.7-4.3,9.7-9.7v-23.2c0-5.3-4.3-9.7-9.7-9.7H338c-5.3,0-9.7,4.3-9.7,9.7v23.2
		C328.3,355.7,332.7,360.1,338,360.1z M332.2,327.2c0-3.2,2.6-5.8,5.8-5.8h46.5c3.2,0,5.8,2.6,5.8,5.8v23.2c0,3.2-2.6,5.8-5.8,5.8
		H338c-3.2,0-5.8-2.6-5.8-5.8V327.2z"/>
	<path class="st2" d="M338,381.4h-15.5c-1.1,0-1.9,0.9-1.9,1.9v15.5c0,1.1,0.9,1.9,1.9,1.9H338c1.1,0,1.9-0.9,1.9-1.9v-15.5
		C339.9,382.2,339.1,381.4,338,381.4z M336.1,396.9h-11.6v-11.6h11.6V396.9z"/>
	<path class="st2" d="M334.1,391.1c0,2.1-1.7,3.9-3.9,3.9c-2.1,0-3.9-1.7-3.9-3.9s1.7-3.9,3.9-3.9
		C332.4,387.2,334.1,388.9,334.1,391.1z"/>
	<path class="st2" d="M400,371.7h-17.4c-1.1,0-1.9,0.9-1.9,1.9v3.9h-15.5c-1.1,0-1.9,0.9-1.9,1.9v11.6c0,1.1,0.9,1.9,1.9,1.9h15.5
		v3.9c0,1.1,0.9,1.9,1.9,1.9H400c1.1,0,1.9-0.9,1.9-1.9v-23.2C401.9,372.6,401,371.7,400,371.7z M398,394.9h-13.6v-3.9
		c0-1.1-0.9-1.9-1.9-1.9H367v-7.7h15.5c1.1,0,1.9-0.9,1.9-1.9v-3.9H398V394.9z"/>
	<path class="st2" d="M369,385.2c0,1.1,0.9,1.9,1.9,1.9h25.2v-7.7c0-1.1-0.9-1.9-1.9-1.9h-5.8c-1.1,0-1.9,0.9-1.9,1.9v3.9h-15.5
		C369.9,383.3,369,384.2,369,385.2z"/>
</g>
<path class="st1" d="M93.6,23.6L7,66.2c-3.7,1.8-5.2,6.2-3.4,9.9l31.1,63.3c1.8,3.7,6.2,5.2,9.9,3.4l86.6-42.5
	c3.7-1.8,5.2-6.2,3.4-9.9L103.5,27C101.7,23.3,97.3,21.8,93.6,23.6z M18.6,72.9c-0.9-1.8-0.1-4.1,1.7-5l66.6-32.7
	c1.8-0.9,4.1-0.1,5,1.7l16.4,33.3c0.9,1.8,0.1,4.1-1.7,5l-66.6,32.7c-1.8,0.9-4.1,0.1-5-1.7L18.6,72.9z M48,132.8
	c-3.7,1.8-8.1,0.3-9.9-3.4c-1.8-3.7-0.3-8.1,3.4-9.9s8.1-0.3,9.9,3.4C53.2,126.6,51.7,131,48,132.8z M105.5,106.7l-40,19.6l-7.4-15
	l40-19.6L105.5,106.7z M121.3,96.8c-3.7,1.8-8.1,0.3-9.9-3.4c-1.8-3.7-0.3-8.1,3.4-9.9c3.7-1.8,8.1-0.3,9.9,3.4S125,95,121.3,96.8z"
	/>
<path class="st8" d="M51.4,122.9c1.8,3.7,0.3,8.1-3.4,9.9c-3.7,1.8-8.1,0.3-9.9-3.4c-1.8-3.7-0.3-8.1,3.4-9.9S49.6,119.2,51.4,122.9
	z"/>
<path class="st8" d="M124.7,86.9c1.8,3.7,0.3,8.1-3.4,9.9c-3.7,1.8-8.1,0.3-9.9-3.4c-1.8-3.7-0.3-8.1,3.4-9.9
	C118.4,81.7,122.9,83.2,124.7,86.9z"/>
<path class="st11" d="M65.5,126.3l40-19.6l-7.4-15l-40,19.6L65.5,126.3z"/>
<path class="st11" d="M39.9,107.9l66.6-32.7c1.8-0.9,2.6-3.1,1.7-5L91.8,36.9c-0.9-1.8-3.1-2.6-5-1.7L20.3,67.9
	c-1.8,0.9-2.6,3.1-1.7,5l16.4,33.3C35.8,108,38.1,108.8,39.9,107.9z M32.7,68l46.6-22.9l14.7,30L47.4,98L32.7,68z"/>
<path class="st6" d="M32.7,68l46.6-22.9l14.7,30L47.4,98L32.7,68z"/>
<g>
	<path class="st2" d="M94.2,75.3L47.5,98.2c-0.1,0.1-0.2,0-0.3-0.1l-14.7-30c-0.1-0.1,0-0.2,0.1-0.3l46.6-22.9
		c0.1-0.1,0.2,0,0.3,0.1l14.7,30C94.3,75.1,94.3,75.2,94.2,75.3z M47.5,97.7L93.8,75L79.2,45.4L33,68.1L47.5,97.7z"/>
	<path class="st2" d="M92.8,22L6.2,64.5C1.6,66.8-0.3,72.3,2,76.9L33,140.2c2.3,4.6,7.8,6.5,12.4,4.2l86.6-42.5
		c4.6-2.3,6.5-7.8,4.2-12.4l-31.1-63.3C102.9,21.6,97.4,19.7,92.8,22z M5.3,75.3c-1.4-2.8-0.2-6.1,2.5-7.4l86.6-42.5
		c2.8-1.4,6.1-0.2,7.4,2.5l21.3,43.3l-96.6,47.5L5.3,75.3z M132.9,91.1c1.4,2.8,0.2,6.1-2.5,7.4l-86.6,42.5
		c-2.8,1.4-6.1,0.2-7.4-2.5l-8.2-16.7l96.6-47.5L132.9,91.1z"/>
	<path class="st2" d="M48.8,134.5c4.6-2.3,6.5-7.8,4.2-12.4c-2.3-4.6-7.8-6.5-12.4-4.2c-4.6,2.3-6.5,7.8-4.2,12.4
		C38.7,134.9,44.2,136.7,48.8,134.5z M42.3,121.2c2.8-1.4,6.1-0.2,7.4,2.5s0.2,6.1-2.5,7.4c-2.8,1.4-6.1,0.2-7.4-2.5
		C38.4,125.8,39.5,122.5,42.3,121.2z"/>
	<path class="st2" d="M122.1,98.5c4.6-2.3,6.5-7.8,4.2-12.4c-2.3-4.6-7.8-6.5-12.4-4.2c-4.6,2.3-6.5,7.8-4.2,12.4
		C112,98.9,117.5,100.7,122.1,98.5z M115.6,85.2c2.8-1.4,6.1-0.2,7.4,2.5c1.4,2.8,0.2,6.1-2.5,7.4c-2.8,1.4-6.1,0.2-7.4-2.5
		C111.7,89.8,112.8,86.5,115.6,85.2z"/>
	<path class="st2" d="M66.3,128l40-19.6c0.9-0.4,1.3-1.6,0.8-2.5l-7.4-15c-0.4-0.9-1.6-1.3-2.5-0.8l-40,19.6
		c-0.9,0.4-1.3,1.6-0.8,2.5l7.4,15C64.3,128,65.4,128.4,66.3,128z M60.6,112.2l36.6-18l5.7,11.7l-36.6,18L60.6,112.2z"/>
	<path class="st2" d="M86.1,33.5L19.5,66.2c-2.8,1.4-3.9,4.7-2.5,7.4L33.3,107c1.4,2.8,4.7,3.9,7.4,2.5l66.6-32.7
		c2.8-1.4,3.9-4.7,2.5-7.4L93.5,36.1C92.1,33.3,88.8,32.2,86.1,33.5z M106.5,71c0.4,0.9,0.1,2-0.8,2.5l-66.6,32.7
		c-0.9,0.4-2,0.1-2.5-0.8L20.2,72.1c-0.4-0.9-0.1-2,0.8-2.5l66.6-32.7c0.9-0.4,2-0.1,2.5,0.8L106.5,71z"/>
	<path class="st2" d="M78.5,43.4L31.9,66.3c-0.9,0.4-1.3,1.6-0.8,2.5l14.7,30c0.4,0.9,1.6,1.3,2.5,0.8l46.6-22.9
		c0.9-0.4,1.3-1.6,0.8-2.5L81,44.3C80.6,43.4,79.4,43,78.5,43.4z M91.6,74.2L48.3,95.5L35.2,68.8l43.3-21.3L91.6,74.2z"/>
	<path class="st2" d="M91.4,99.1l-23.3,11.5c-0.9,0.4-1.3,1.6-0.8,2.5c0.4,0.9,1.6,1.3,2.5,0.8L93,102.4c0.9-0.4,1.3-1.6,0.8-2.5
		C93.4,99,92.3,98.7,91.4,99.1z"/>
	<path class="st2" d="M93.9,104.1l-23.3,11.5c-0.9,0.4-1.3,1.6-0.8,2.5c0.4,0.9,1.6,1.3,2.5,0.8l23.3-11.5c0.9-0.4,1.3-1.6,0.8-2.5
		C95.9,104,94.8,103.7,93.9,104.1z"/>
</g>
</svg>
