<?xml version="1.0" encoding="utf-8"?>
<!-- Generator: Adobe Illustrator 24.1.0, SVG Export Plug-In . SVG Version: 6.00 Build 0)  -->
<svg version="1.1" id="Layer_1" xmlns="http://www.w3.org/2000/svg" xmlns:xlink="http://www.w3.org/1999/xlink" x="0px" y="0px"
	 viewBox="0 0 375 438" style="enable-background:new 0 0 375 438;" xml:space="preserve">
<style type="text/css">
	.st0{fill:#C7D7E5;}
	.st1{fill:#F9D0B4;}
	.st2{fill:#5B5D60;}
	.st3{fill:#DAE6F1;}
	.st4{fill:#EDF4FC;}
	.st5{fill:#F5C84C;}
	.st6{fill:#70D6F9;}
	.st7{fill:#87D147;}
</style>
<g id="Layer_44">
	<g>
		<path class="st0" d="M359.2,226.6c-0.6-9-6.8-16.8-15.6-19l-40.8-10.2l-24.6-12.2L270,209c-0.4,1.4-1.8,2.4-3.2,2.4h-25.4
			c-1.4,0-2.8-1-3.2-2.4l-8.2-23.6c-4.8,7-11,12.8-18.4,16.8v20.2l24.6,12.2l40.8,10.2c8.8,2.2,15.2,9.8,15.6,19l3.4,61.4h60.2
			c4.6,0,8.2-3.6,8.2-8.2c0-0.2,0-0.4,0-0.4L359.2,226.6z"/>
		<path class="st1" d="M309,78.8c-1.2,0-2.2,0-3.4,0.2v39.8c0,1.2,0,2.4-0.2,3.6c12,2,23.2-6.2,25.2-18.2S324.4,81,312.4,79
			C311.4,78.8,310.2,78.8,309,78.8z"/>
		<path class="st1" d="M305.6,71.2c0-1.4-1.2-2.8-2.8-2.8c-21.8-0.6-33.4-9.2-37.8-13.6c-1.2-1-3-1-4,0l-0.2,0.2
			c-2.8,3.6-6,6.8-9.6,9.4c4,5.2,6.2,11.6,6.2,18V122c8.8,8.4,9.2,22.2,0.8,31c-5,5.2-12.4,7.8-19.6,6.4c-0.2,3.2-0.8,6.4-1.4,9.4
			c5.2,1.6,10.6,2.4,16,2.4c29,0,52.4-23.6,52.6-52.6V72C305.6,71.8,305.6,71.4,305.6,71.2L305.6,71.2z"/>
		<path class="st2" d="M294.2,15.4c-5.4,0-10.8,1.4-15.4,4.2C273.4,10.6,263.6,5,253,5h-15.4c-23.4,0-44,15-51.4,37.2
			c10.6,0,20.4,5.6,25.8,14.6c13.2-8,30.2-4.6,39.2,7.8c3.6-2.8,6.8-6,9.6-9.4c1-1.2,2.8-1.4,4-0.4L265,55c4.4,4.4,16,13,37.8,13.6
			c1.4,0,2.6,1.2,2.8,2.8v0.8v7c6.8-1,13.6,1.2,18.6,5.8V45.4C324.2,28.8,310.8,15.4,294.2,15.4L294.2,15.4z"/>
		<path class="st1" d="M253,171.4c-5.4,0-10.8-0.8-16-2.6c-1.6,6-4,11.6-7.4,16.6l8.2,23.6c0.4,1.4,1.8,2.4,3.2,2.4h25.4
			c1.4,0,2.8-1,3.2-2.4l8.2-23.8V165C270.4,169.2,261.8,171.4,253,171.4L253,171.4z"/>
		<path class="st3" d="M292.2,263.8c-0.6-9-6.8-16.8-15.6-19l-40.8-10.2l-24.6-12.2l-8.2,23.8c-0.4,1.4-1.8,2.4-3.2,2.4h-25.4
			c-1.4,0-2.8-1-3.2-2.4l-8.2-23.6c-4.8,7-11,12.8-18.4,16.8v20.2l24.6,12.2L210,282c8.8,2.2,15.2,9.8,15.6,19l3.4,61.4h60
			c4.6,0,8.2-3.6,8.2-8.2c0-0.2,0-0.4,0-0.4L292.2,263.8z"/>
		<path class="st1" d="M242.2,116c-1.2,0-2.2,0-3.4,0.2V156c0,1.2,0,2.4-0.2,3.6c12,2,23.2-6.2,25.2-18.2s-6.2-23.2-18.2-25.2
			C244.6,116,243.4,116,242.2,116L242.2,116z"/>
		<path class="st1" d="M238.8,108.4c0-1.4-1.2-2.8-2.8-2.8c-21.8-0.6-33.4-9.2-37.8-13.6c-1.2-1-3-1-4,0l-0.2,0.2
			c-2.8,3.6-6,6.8-9.6,9.4c4,5.2,6.2,11.6,6.2,18V159c8.8,8.4,9.2,22.2,0.8,31c-5,5.2-12.4,7.8-19.6,6.4c-0.2,3.2-0.8,6.4-1.4,9.4
			c5.2,1.6,10.6,2.4,16,2.4c29,0,52.4-23.6,52.6-52.6v-46.4C238.8,108.8,238.8,108.6,238.8,108.4L238.8,108.4z"/>
		<path class="st2" d="M227.4,52.6c-5.4,0-10.8,1.4-15.4,4.2c-5.4-9-15.2-14.6-25.8-14.6h-15.4c-23.4,0-44,15-51.4,37.2
			c10.6,0,20.4,5.6,25.8,14.6c13.2-8,30.2-4.6,39.2,7.6c3.6-2.8,6.8-6,9.6-9.4c1-1.2,2.8-1.4,4-0.4l0.2,0.2c4.4,4.4,16,13,37.8,13.6
			c1.4,0,2.6,1.2,2.8,2.8v0.8v7c6.8-1,13.6,1.2,18.6,5.8V82.6C257.4,66,244,52.6,227.4,52.6z"/>
		<path class="st1" d="M170.4,206c-1.6,6-4,11.6-7.4,16.6l8.2,23.6c0.4,1.4,1.8,2.4,3.2,2.4h25.4c1.4,0,2.8-1,3.2-2.4l8.2-23.8
			v-20.2C198.6,209,184,210.4,170.4,206L170.4,206z"/>
		<path class="st4" d="M225.4,301c-0.6-9-6.8-16.8-15.6-19L169,271.8l-24.6-12.2l-8.2,23.8c-0.4,1.4-1.8,2.4-3.2,2.4h-25.6
			c-1.4,0-2.8-1-3.2-2.4L96,259.6l-24.6,12.2L30.6,282c-8.8,2.2-15.2,9.8-15.6,19l-5,90c-0.2,4.6,3.2,8.4,7.8,8.6h0.4h204.2
			c4.6,0,8.2-3.6,8.2-8.2c0-0.2,0-0.4,0-0.4L225.4,301z"/>
		<g>
			<path class="st1" d="M175.4,153c-1.2,0-2.2,0-3.4,0.2V193c0,1.2,0,2.4-0.2,3.6c12,2,23.2-6.2,25.2-18.2s-6.2-23.2-18.2-25.2
				C177.6,153.2,176.4,153,175.4,153L175.4,153z"/>
			<path class="st1" d="M66.8,193.2v-39.8c-12-2-23.2,6.2-25.2,18.2s6.2,23.2,18.2,25.2c2.4,0.4,4.8,0.4,7.2,0
				C66.8,195.4,66.8,194.2,66.8,193.2L66.8,193.2z"/>
			<path class="st1" d="M127.2,129.4c-19.2,24-47.4,20.6-57,18.6c-1.6-0.4-3,0.6-3.4,2.2v0.6v42.4c0,29,23.6,52.4,52.6,52.6
				c29,0,52.4-23.6,52.6-52.6v-47c0-0.2,0-0.6,0-0.8c0-1.4-1.2-2.8-2.8-2.8c-21.8-0.6-33.4-9.2-37.8-13.6c-1.2-1-3-1-4,0
				C127.4,129.2,127.4,129.2,127.2,129.4z"/>
		</g>
		<path class="st2" d="M63.4,153c1.2,0,2.2,0,3.4,0.2v-2.6c0-1.6,1.2-2.8,2.8-2.8h0.6c9.6,2,37.8,5.4,57-18.8c1-1.2,2.8-1.4,4-0.4
			l0.2,0.2c4.4,4.4,16,13,37.8,13.6c1.4,0,2.6,1.2,2.8,2.8v0.8v7c6.8-1,13.6,1.2,18.6,5.8v-39c0-16.6-13.4-30-30-30
			c-5.4,0-10.8,1.4-15.4,4.2c-5.4-9-15.2-14.6-25.8-14.6H104c-30,0-54.2,24.4-54.2,54.2V158C53.6,154.8,58.4,153,63.4,153L63.4,153z
			"/>
		<path class="st1" d="M119.4,245.6c-8.2,0-16.2-2-23.4-5.6v19.4l8.2,23.8c0.4,1.4,1.8,2.4,3.2,2.4h25.4c1.4,0,2.8-1,3.2-2.4
			l8.2-23.8v-20.2C136.6,243.4,128.2,245.6,119.4,245.6L119.4,245.6z"/>
		<circle class="st5" cx="265.2" cy="394.8" r="6.2"/>
		<circle class="st6" cx="49.2" cy="59.4" r="6.2"/>
		<circle class="st7" cx="337.2" cy="165.4" r="6.2"/>
		<path class="st5" d="M107.6,20.6C99,19,92,12.4,90.4,3.6c0-0.2-0.2-0.4-0.4-0.4s-0.2,0.2-0.4,0.4c-1.8,8.6-8.6,15.4-17.2,17
			c-0.2,0-0.4,0.2-0.4,0.4s0.2,0.2,0.4,0.4C81,23,88,29.6,89.6,38.4c0,0.2,0.2,0.4,0.4,0.4s0.2-0.2,0.4-0.4
			c1.8-8.6,8.6-15.4,17.2-17c0.2,0,0.4-0.2,0.4-0.4S107.8,20.6,107.6,20.6z"/>
		<path d="M69.6,267l-40.4,10.2c-11,2.8-18.8,12.2-19.4,23.6l-5,90c-0.4,7.2,5.2,13.6,12.4,14H18h204.2c7.2,0,13.2-6,13.2-13.2
			c0-0.2,0-0.4,0-0.8l-1.2-23.2H289c7.2,0,13.2-6,13.2-13.2c0-0.2,0-0.4,0-0.8l-1.2-23.2h55c7.2,0,13.2-6,13.2-13.2
			c0-0.2,0-0.4,0-0.8l-5-90c-0.6-11.2-8.4-20.8-19.4-23.6l-40.4-10.2L283,182.2V168c14.4-8.8,24.4-23.6,27-40.4
			c14.8-0.6,26.4-13,26-27.8c-0.2-6.2-2.6-12.2-6.8-16.8V45.4c0-19.4-15.6-35-35-35c-4.8,0-9.4,1-13.8,2.8C273.8,4.8,263.6,0,253,0
			h-15.4c-24.2,0-45.8,14.8-55,37.2h-12c-24.2,0-45.8,14.8-55,37.2h-12c-32.8,0-59.2,26.6-59.2,59.2v22c-10.8,10.2-11,27.4-0.8,38
			c4.8,5,11.4,8,18.4,8.2c2.8,17.4,13.2,32.6,28.4,41.2v13.4L69.6,267z M222.2,394.6h-35.6v-45c0-2.8-2.2-5-5-5s-5,2.2-5,5v45H62.2
			v-45c0-2.8-2.2-5-5-5s-5,2.2-5,5v45h-34c-1.8,0-3.2-1.4-3.2-3.2v-0.2l5-90c0.4-6.8,5.2-12.8,11.8-14.4l40.8-10.2
			c0.4,0,0.6-0.2,1-0.4l19.4-9.6l6.4,18.4c1.2,3.4,4.4,5.6,8,5.6h25.4c3.6,0,6.8-2.2,8-5.6l6.4-18.4l19.4,9.6c0.4,0.2,0.6,0.2,1,0.4
			l40.8,10.2c6.6,1.6,11.6,7.6,11.8,14.4c1.4,25.6,3,54.2,5,90C225.6,393,224.2,394.4,222.2,394.6L222.2,394.6z M192.2,175
			c0,8.8-6.6,16-15.2,16.8v-33.6C185.6,159,192.2,166.2,192.2,175L192.2,175z M196.6,97c6,5.2,17.6,12.4,37.2,13.4V156
			c0,17.4-9.6,33.4-25,41.8c-10,5.4-21.6,7-32.6,4.6c0-0.2,0-0.4,0-0.4c14.4-0.6,26-12.4,26-27c0-6.6-2.4-12.8-6.8-17.8v-37.4
			c0-6-1.6-11.8-4.4-17C193,101,194.8,99,196.6,97L196.6,97z M259.2,137.8c0,8.8-6.6,16.2-15.4,16.8V121
			C254,122.8,259.2,129.4,259.2,137.8z M206.2,221.6l-7.6,22h-23.2l-7-20.2c2.2-3.6,4-7.2,5.4-11.2c10.8,2.4,22.2,1.6,32.6-2.2
			L206.2,221.6z M289,357.4h-35.6v-45c0-2.8-2.2-5-5-5s-5,2.2-5,5v45h-10l-3.2-56.8c-0.6-11.2-8.4-20.8-19.4-23.6l-40.4-10.2
			l-21.2-10.4v-14.2c4.4-2.6,8.2-5.8,11.8-9.4l5.2,15.2c1.2,3.4,4.4,5.6,8,5.6h25.4c3.6,0,6.8-2.2,8-5.6l6.4-18.4l19.4,9.6
			c0.4,0.2,0.6,0.2,1,0.4l40.8,10.2c1.6,0.4,3.2,1,4.6,2c4.2,2.8,7,7.4,7.2,12.4l5,90C292.4,355.8,291,357.2,289,357.4
			C289.2,357.4,289.2,357.4,289,357.4L289,357.4z M301.4,202.2l40.8,10.2c6.6,1.6,11.6,7.6,11.8,14.4l5,90c0,1.8-1.2,3.2-3,3.4h-0.2
			h-35.6v-45c0-2.8-2.2-5-5-5s-5,2.2-5,5v45h-10l-3.2-56.8c-0.6-11.2-8.4-20.8-19.4-23.6l-40.4-10.2L216,219.2V205
			c4.4-2.6,8.2-5.8,11.8-9.6l5.2,15.2c1.2,3.4,4.4,5.6,8,5.6h25.4c3.6,0,6.8-2.2,8-5.6l6.4-18.4l19.4,9.6
			C300.8,202,301,202.2,301.4,202.2L301.4,202.2z M273,184.4l-7.6,22h-23.2l-7-20.2c2.2-3.6,4-7.2,5.4-11.2
			c10.8,2.4,22.2,1.6,32.6-2.2L273,184.4z M243,165.2c0-0.2,0-0.4,0-0.4c14.4-0.6,26-12.4,26-27c0-6.6-2.4-12.8-6.8-17.8V82.6
			c0-6-1.6-11.8-4.4-17c2-1.8,3.8-3.6,5.4-5.6c6,5.2,17.6,12.4,37.2,13.4v45.4c0,26.2-21.4,47.6-47.6,47.6
			C249.6,166.4,246.4,166,243,165.2L243,165.2z M310.6,117.6V83.8c9.4,0.8,16.2,9.2,15.2,18.4C325.2,110.4,318.8,116.8,310.6,117.6z
			 M237.8,10h15.4c8.8,0,17,4.8,21.4,12.2c1.4,2.4,4.4,3.2,6.8,1.8c11.8-7.2,27.2-3.2,34.2,8.6c2.4,4,3.6,8.4,3.6,13V76
			c-2.8-1-5.6-1.8-8.6-2v-2.8c0-4.2-3.4-7.6-7.6-7.6c-20.4-0.6-30.8-8.8-34.4-12.2c-3.2-3-8-3-11.2,0.2c-0.2,0.2-0.4,0.4-0.6,0.6
			c-1.6,2-3.4,3.8-5.2,5.6c-10-10-25.2-12.8-38.2-7.2c-5.2-6.4-12.2-10.8-20.2-12.6C201.6,20.8,218.8,10,237.8,10L237.8,10z
			 M170.8,47.2h15.4c8.8,0,17,4.8,21.4,12.2c1.4,2.4,4.4,3.2,6.8,1.8c12-7,27.2-3,34.4,8.8c2.2,3.8,3.4,8.2,3.4,12.6V113
			c-2.8-1-5.6-1.8-8.6-2v-2.8c0-4.2-3.4-7.6-7.6-7.6c-20.4-0.6-30.8-8.8-34.4-12.2c-3-3-8-3-11,0.2c-0.2,0.2-0.4,0.4-0.6,0.6
			c-1.6,2-3.4,3.8-5.2,5.6c-10-10-25.2-12.8-38.2-7.2c-5.2-6.4-12.2-10.8-20.2-12.6C134.8,58,152,47.2,170.8,47.2L170.8,47.2z
			 M54.8,133.6c0-27.2,22-49.2,49.2-49.2h15.4c8.8,0,17,4.8,21.4,12.2c1.4,2.4,4.4,3.2,6.8,1.8c11.8-7,27.2-3.2,34.2,8.8
			c2.2,3.8,3.6,8.2,3.6,12.8v30c-2.8-1-5.6-1.8-8.6-2v-2.8c0-4.2-3.4-7.6-7.6-7.6c-20.4-0.6-30.8-8.8-34.4-12.2c-3-3-8-3-11,0.2
			c-0.2,0.2-0.4,0.4-0.6,0.6c-17.2,21.6-42.2,19-52.2,17c-3.8-0.8-7.6,1.2-9,4.8c-2.6,0.2-5.2,0.6-7.6,1.4L54.8,133.6z M46.4,175
			c0-8.8,6.6-16,15.4-16.8V192C53.2,191,46.6,183.8,46.4,175z M71.8,193.2v-39.8c21.2,3.6,43-2,57.8-19.2c6,5.2,17.6,12.4,37.2,13.4
			v45.6c0,17.4-9.6,33.4-25,41.8c-13.6,7.4-30,7.6-43.8,0.8h-0.2C82,227.4,71.8,211,71.8,193.2L71.8,193.2z M139.4,247v11.6l-7.6,22
			h-23.2l-7.6-22v-11C113.4,251.8,127,251.6,139.4,247z"/>
		<path d="M121.2,309.6c-2.8-0.6-5.4,1.2-5.8,4c-0.6,2.8,1.2,5.4,4,5.8s5.4-1.2,5.8-4c0-0.4,0-0.6,0-1
			C125.2,312.2,123.4,310,121.2,309.6z"/>
		<path d="M121.2,337.8c-2.8-0.6-5.4,1.2-5.8,4c-0.6,2.8,1.2,5.4,4,5.8s5.4-1.2,5.8-4c0-0.4,0-0.6,0-1
			C125.2,340.2,123.4,338.2,121.2,337.8z"/>
		<path d="M121.2,365.8c-2.8-0.6-5.4,1.2-5.8,4c-0.6,2.8,1.2,5.4,4,5.8s5.4-1.2,5.8-4c0-0.4,0-0.6,0-1
			C125.2,368.4,123.4,366.2,121.2,365.8z"/>
	</g>
</g>
</svg>
