<svg height="472pt" viewBox="-3 0 471 472" width="472pt" xmlns="http://www.w3.org/2000/svg"><path d="m.5 408v-192c0-13.253906 10.746094-24 24-24h416c13.253906 0 24 10.746094 24 24v192c0 13.253906-10.746094 24-24 24h-416c-13.253906 0-24-10.746094-24-24zm0 0" fill="#047fa7"/><path d="m.5 376v-192c0-13.253906 10.746094-24 24-24h416c13.253906 0 24 10.746094 24 24v192c0 13.253906-10.746094 24-24 24h-416c-13.253906 0-24-10.746094-24-24zm0 0" fill="#0093ba"/><path d="m24.5 288h16v16h-16zm0 0" fill="#ccdce5"/><path d="m24.5 256h16v16h-16zm0 0" fill="#ccdce5"/><path d="m48.5 400h16v32h-16zm0 0" fill="#06687f"/><path d="m328.5 176-96 56-96-56v-120l96-56 96 56zm0 0" fill="#faac2b"/><path d="m328.5 176v-120l-96 56v120zm0 0" fill="#d18d29"/><path d="m232.5 0 96 56-96 56-96-56zm0 0" fill="#ffc119"/><g fill="#06687f"><path d="m96.5 248h16v16h-16zm0 0"/><path d="m128.5 248h80v16h-80zm0 0"/><path d="m80.5 280h128v16h-128zm0 0"/><path d="m80.5 312h128v16h-128zm0 0"/><path d="m80.5 344h96v16h-96zm0 0"/></g><path d="m368.5 280v16c0-8.835938 7.164062-16 16-16s16 7.164062 16 16v8c0-8.835938 7.164062-16 16-16s16 7.164062 16 16v44.222656c0 23.527344-5.480469 46.734375-16 67.777344v56h-96v-43.152344c.011719-8.035156-4-15.542968-10.6875-20l-21.863281-14.574218c-10.285157-6.863282-16.136719-18.679688-15.363281-31.019532.773437-12.335937 8.054687-23.328125 19.113281-28.855468l12.800781-6.398438v-88c0-8.835938 7.164062-16 16-16s16 7.164062 16 16v40c0-8.835938 7.164062-16 16-16s16 7.164062 16 16zm0 0" fill="#f5be9a"/><path d="m296.5 328v24c0 4.417969 3.582031 8 8 8s8-3.582031 8-8v-24c0-4.417969-3.582031-8-8-8s-8 3.582031-8 8zm0 0" fill="#e9937c"/><path d="m328.5 280v40c0 4.417969 3.582031 8 8 8s8-3.582031 8-8v-40c0-4.417969-3.582031-8-8-8s-8 3.582031-8 8zm0 0" fill="#e9937c"/><path d="m360.5 288v16c0 4.417969 3.582031 8 8 8s8-3.582031 8-8v-16c0-4.417969-3.582031-8-8-8s-8 3.582031-8 8zm0 0" fill="#e9937c"/><path d="m392.5 296v24c0 4.417969 3.582031 8 8 8s8-3.582031 8-8v-24c0-4.417969-3.582031-8-8-8s-8 3.582031-8 8zm0 0" fill="#e9937c"/></svg>