<?xml version="1.0" encoding="utf-8"?>
<!-- Generator: Adobe Illustrator 24.1.0, SVG Export Plug-In . SVG Version: 6.00 Build 0)  -->
<svg version="1.1" id="Capa_1" xmlns="http://www.w3.org/2000/svg" xmlns:xlink="http://www.w3.org/1999/xlink" x="0px" y="0px"
	 viewBox="0 0 524 559" style="enable-background:new 0 0 524 559;" xml:space="preserve">
<style type="text/css">
	.st0{fill:#FFFFFF;}
</style>
<path class="st0" d="M405,80H197C99.9,80.2,21.2,158.9,21,256h64c0-61.9,50.1-112,112-112h208v64l96-96l-96-96V80z"/>
<path d="M85,272H21c-8.8,0-16-7.2-16-16C5.1,150,91,64.1,197,64h192V16c0-8.8,7.1-16,16-16c4.3,0,8.3,1.7,11.4,4.7l96,96
	c6.3,6.2,6.3,16.4,0,22.6c0,0,0,0,0,0l-96,96c-6.2,6.3-16.4,6.3-22.6,0c-3-3-4.7-7.1-4.7-11.4v-48H197c-53,0-96,43-96,96
	C101,264.9,93.9,272,85,272z M37.8,240H70c8.2-64,62.5-111.9,127-112h208c8.8,0,16,7.2,16,16v25.4l57.4-57.4L421,54.7V80
	c0,8.8-7.2,16-16,16H197C114.9,96.1,46.1,158.3,37.8,240z"/>
<path class="st0" d="M117,432h208c97.1-0.2,175.8-78.9,176-176h-64c0,61.9-50.1,112-112,112H117v-64l-96,96l96,96
	C117,496,117,432,117,432z"/>
<path id="XMLID_1_" d="M117,512c-4.2,0-8.3-1.7-11.3-4.7l-96-96c-6.3-6.2-6.3-16.4,0-22.6c0,0,0,0,0,0l96-96
	c4.6-4.5,11.5-5.9,17.4-3.5c6,2.5,9.9,8.3,9.9,14.8v48h192c53,0,96-43,96-96c0-8.8,7.2-16,16-16h64c8.8,0,16,7.2,16,16
	c-0.1,106-86,191.9-192,192H133v48c0,6.5-3.9,12.3-9.9,14.8C121.2,511.6,119.1,512,117,512z M43.7,400l57.4,57.4V432
	c0-8.8,7.2-16,16-16h208c82.1-0.1,150.9-62.3,159.2-144H452c-8.1,64-62.5,111.9-127,112H117c-8.8,0-16-7.2-16-16v-25.4L43.7,400z"/>
</svg>
