<?xml version="1.0" encoding="utf-8"?>
<!-- Generator: Adobe Illustrator 24.1.0, SVG Export Plug-In . SVG Version: 6.00 Build 0)  -->
<svg version="1.1" id="Layer_1" xmlns="http://www.w3.org/2000/svg" xmlns:xlink="http://www.w3.org/1999/xlink" x="0px" y="0px"
	 viewBox="0 0 512 512" style="enable-background:new 0 0 512 512;" xml:space="preserve">
<style type="text/css">
	.st0{fill:#ADD8BC;}
	.st1{fill:#E2E0E0;}
	.st2{fill:#8CAF9A;}
	.st3{fill:#CECCCC;}
</style>
<g>
	<path class="st0" d="M496,95.4v48.6H16V95.4c0-24.9,22.4-45,50-45h380C473.6,50.4,496,70.6,496,95.4z"/>
	<path class="st1" d="M496,144.1v257.5c0,24.9-22.4,45-50,45H66c-27.6,0-50-20.2-50-45V144.1H496z"/>
	<path class="st2" d="M496,95.4v48.6h-40V95.4c0-24.9-22.4-45-50-45h40C473.6,50.4,496,70.6,496,95.4z"/>
	<path class="st3" d="M496,144.1v257.5c0,24.9-22.4,45-50,45h-40c27.6,0,50-20.2,50-45V144.1H496z"/>
	<path class="st1" d="M496,144.1H16"/>
	<path d="M446,36h-46V14.4c0-8-7.2-14.4-16-14.4s-16,6.5-16,14.4V36H144V14.4c0-8-7.2-14.4-16-14.4s-16,6.5-16,14.4V36H66
		C29.6,36,0,62.7,0,95.4v306.1C0,434.3,29.6,461,66,461h380c36.4,0,66-26.7,66-59.4V95.4C512,62.7,482.4,36,446,36z M66,64.8h46
		v14.4c0,8,7.2,14.4,16,14.4s16-6.5,16-14.4V64.8h224v14.4c0,8,7.2,14.4,16,14.4s16-6.5,16-14.4V64.8h46c18.7,0,34,13.7,34,30.6
		v34.2H32V95.4C32,78.6,47.3,64.8,66,64.8z M446,432.2H66c-18.7,0-34-13.7-34-30.6V158.5h448v243.1C480,418.5,464.7,432.2,446,432.2
		z"/>
</g>
<path class="st0" d="M263,199h62.5v55.3H263V199z"/>
<path d="M333,405.5h68.8c8.4,0,15.1-6.1,15.1-13.6v-62v-68.8v-62c0-7.5-6.8-13.6-15.1-13.6H333h-77.5H178h-68.8
	c-8.4,0-15.1,6.1-15.1,13.6v62v68.8v62c0,7.5,6.8,13.6,15.1,13.6H178h77.5H333z M109,267.8h61.5v55.3H109V267.8z M185.5,267.8H248
	v55.3h-62.5V267.8z M402,323.2h-61.5v-55.3H402V323.2z M325.5,323.2H263v-55.3h62.5V323.2z M263,336.7h62.5V392H263V336.7z
	 M402,391.9c0,0.1-0.1,0.1-0.1,0.1h-61.3v-55.3H402V391.9z M402,199.1v55.2h-61.5V199h61.3C401.9,199,402,199,402,199.1L402,199.1z
	 M325.5,254.3H263V199h62.5V254.3z M248,254.3h-62.5V199H248V254.3z M109,199.1c0-0.1,0.1-0.1,0.1-0.1h61.3v55.3H109V199.1z
	 M109,391.9v-55.2h61.5V392h-61.3C109.1,392,109,391.9,109,391.9L109,391.9z M185.5,336.7H248V392h-62.5V336.7z"/>
<path class="st0" d="M106.6,199h62.5v55.3h-62.5V199z"/>
<path class="st0" d="M184.8,199h62.5v55.3h-62.5V199z"/>
<path class="st0" d="M185.5,267.8H248v55.3h-62.5V267.8z"/>
<path class="st0" d="M263,336.7h62.5V392H263V336.7z"/>
<path class="st0" d="M109,336.7h62.5V392H109V336.7z"/>
<path class="st0" d="M106.6,267.8h62.5v55.3h-62.5V267.8z"/>
<path class="st0" d="M340,267.8h62.5v55.3H340V267.8z"/>
</svg>
