<?xml version="1.0" encoding="utf-8"?>
<!-- Generator: Adobe Illustrator 24.1.0, SVG Export Plug-In . SVG Version: 6.00 Build 0)  -->
<svg version="1.1" id="Capa_1" xmlns="http://www.w3.org/2000/svg" xmlns:xlink="http://www.w3.org/1999/xlink" x="0px" y="0px"
	 viewBox="0 0 512 209.9" style="enable-background:new 0 0 512 209.9;" xml:space="preserve">
<style type="text/css">
	.st0{fill:#F9F8F8;}
	.st1{fill:#F7F06D;}
	.st2{fill:#EEDD55;}
	.st3{fill:#EDE8E5;}
	.st4{fill:#AAD7E5;}
	.st5{fill:#98CFDE;}
</style>
<g>
	<g>
		<path class="st0" d="M319.3,174.9h-26.4l-10-83.4l10-83.4h26.4C356,8.2,386,38.9,386,74.5v34C386,145.1,356,174.9,319.3,174.9z"/>
		<path class="st1" d="M12.3,103.3c-3.2-3.2-4.9-7.5-4.9-11.7s1.6-8.5,4.9-11.7l59.5-59.2c6.7-6.7,17.7-6.5,24.1,0.6
			c6,6.6,5.4,16.9-0.9,23.2L51.2,88c-2,2-2,5.1,0,7.1L95,138.7c6.3,6.3,6.9,16.6,0.9,23.2c-6.4,7-17.4,7.2-24.1,0.6L12.3,103.3z"/>
		<path class="st2" d="M12.6,103.6l-0.3-0.3c-3.3-3.2-4.9-7.5-4.9-11.7s1.6-8.5,4.9-11.7l59.5-59.2c6.7-6.7,17.7-6.5,24.1,0.6
			c0.7,0.8,1.3,1.6,1.8,2.5c-3.5,0.4-7,2-9.7,4.7L12.6,103.6z"/>
		<path class="st1" d="M499.6,102.3c3.2-3.2,4.9-7.5,4.9-11.7s-1.6-8.5-4.9-11.7l-59.5-59.2c-6.7-6.7-17.7-6.5-24.1,0.6
			c-6,6.6-5.4,16.9,0.9,23.2L460.7,87c2,2,2,5.1,0,7.1l-43.8,43.6c-6.3,6.3-6.9,16.6-0.9,23.2c6.4,7,17.4,7.2,24.1,0.6L499.6,102.3z
			"/>
		<path class="st2" d="M499.3,102.6l0.3-0.3c3.3-3.2,4.9-7.5,4.9-11.7s-1.6-8.5-4.9-11.7l-59.5-59.2c-6.7-6.7-17.7-6.5-24.1,0.6
			c-0.7,0.8-1.3,1.6-1.8,2.5c3.5,0.4,7,2,9.7,4.7L499.3,102.6z"/>
		<path class="st3" d="M386,94.6c0-35.7-30-66.4-66.7-66.4h-26.4v-20h26.4C356,8.2,386,38.9,386,74.5V94.6z"/>
		<path class="st4" d="M292.9,174.9h-99.6c-36.7,0-66.3-29.3-66.3-65.9V74.7c0-36.5,29.6-66.6,66.3-66.6h99.6V174.9z"/>
		<path class="st5" d="M127,94.8v-20c0-36.5,29.6-66.6,66.3-66.6h99.6v20h-99.6C156.6,28.2,127,58.2,127,94.8z"/>
	</g>
	<g>
		<path d="M393.5,108.6V74.5c0-19.4-7.7-37.9-21.8-52.1C357.6,8.1,339,0.3,319.3,0.3L244.1,0c-1.9,2.5-4.4,5.1-7.5,7.5
			c-13.5,10.3-29.9,8.6-35.1,7.8c28-0.1,56-0.1,84-0.2c0.3,53.3,0.5,106.5,0.8,159.8c0.2-2.2,0.7-5.1,2-8.2
			c3.3-7.7,9.4-11.8,12.1-13.3c0-18.2,0.1-36.4,0.1-54.6c28.8,0.2,57.6,0.3,86.4,0.5c-9.1-1.1-14.6-5.6-14.3-8.7
			c0.3-2.8,5.6-5.7,12.8-6.1c-28.3-0.2-56.6-0.5-84.9-0.7V15.2l18.9,0.1c32.1,0,59.2,27.1,59.2,59.2v9.3h-16.7
			c-4.1,0-7.5,3.4-7.5,7.5s3.4,7.5,7.5,7.5h16.7v9.8c0,32.7-26.6,59.2-59.2,59.2h-18.9V143c-1.7-5.3-5.5-7.9-7.5-7.3
			c-1.8,0.6-3.1,4.5-2,9c-1.8,7.7-3.6,15.4-5.5,23.1h-92.1c-32.4,0-58.8-26.3-58.8-58.7V74.7c0-32.8,26.4-59.4,58.8-59.4h23.1
			c42-6.7,54.7-10.4,54.6-12.5c-0.2-2.1-13.1-3.4-54.6-2.5h-23.1c-40.7,0-73.8,33.4-73.8,74.4v34.5c0,40.6,33.1,73.7,73.8,73.7h126
			C360.2,182.8,393.5,149.6,393.5,108.6z"/>
		<path d="M100.7,134L58.2,91.6l42.4-42.4c9.4-9.4,9.4-24.7,0-34.1c-9.4-9.4-24.7-9.4-34.1,0L7,74.5c-9.4,9-9.4,25.2,0,34.1
			c19.8,19.8,39.7,39.7,59.5,59.5c-2.2-9.5-3.4-14.7-3.4-14.7c0,0,4.5,1.3,14,4.1C57.3,137.7,37.4,117.8,17.6,98
			c-3.5-3.4-3.5-9.5,0-12.9l59.5-59.5c3.6-3.6,9.4-3.6,12.9,0c3.6,3.6,3.6,9.4,0,12.9L42.3,86.3c-2.9,2.8-2.9,7.8,0,10.6L90,144.6
			c3.6,3.6,3.6,9.4,0,12.9c-3.6,3.6-9.4,3.6-12.9,0l-15.7-15.7c-2.9-2.9-7.7-2.9-10.6,0s-2.9,7.7,0,10.6l15.7,15.7
			c9.4,9.4,24.7,9.4,34.1,0C110.1,158.7,110.1,143.4,100.7,134z"/>
		<path d="M404,31.2c0,6.4,2.5,12.5,7.1,17.1l42.5,42.3l-42.5,42.3c-9.4,9-9.4,25.2,0,34.1c9.4,9.4,24.8,9.4,34.2,0l59.6-59.4
			c9.4-9,9.4-25.2,0-34.1l-23.3-23.2c-0.4,0.9-1.1,2.1-2.3,2.6c-2.2,0.9-4.7-0.9-5.6-1.5c-7.6-5.2-23.1-11.1-23.2-10.9
			c-0.2,0.3,23.7,24.1,43.8,43.6c3.5,3.4,3.5,9.5,0,12.9l-59.6,59.4c-3.6,3.6-9.4,3.6-13,0c-3.5-3.4-3.5-9.5,0-12.9l47.9-47.6
			c2.9-2.8,2.9-7.8,0-10.6l-47.9-47.7c-3.5-3.4-3.5-9.5,0-12.9c3.6-3.6,9.4-3.6,13,0l15.8,15.8c3.6,2.1,8.9,5.4,15.1,9.7
			c1.4,1,4.9,3.4,10.6,7.9c14.9,11.5,19.8,16.7,21,15.8c0.8-0.7,0-3.8-6.7-14.7c-15-14.9-30-29.9-45-44.8
			c-8.2-8.2-22.7-9.5-31.8-2.4C407.4,16.7,404,23.6,404,31.2z"/>
	</g>
</g>
</svg>
