<?xml version="1.0" encoding="utf-8"?>
<!-- Generator: Adobe Illustrator 24.1.0, SVG Export Plug-In . SVG Version: 6.00 Build 0)  -->
<svg version="1.1" id="Color" xmlns="http://www.w3.org/2000/svg" xmlns:xlink="http://www.w3.org/1999/xlink" x="0px" y="0px"
	 viewBox="0 0 512 320" style="enable-background:new 0 0 512 320;" xml:space="preserve">
<style type="text/css">
	.st0{fill:#CFD8DC;}
	.st1{fill:#90A4AE;}
	.st2{fill:#03A9F4;}
</style>
<path class="st0" d="M37.3,320h160c20.6,0,37.3-16.7,37.3-37.3v-85.3c0-20.6-16.7-37.3-37.3-37.3h-160C16.7,160,0,176.7,0,197.3
	v85.3C0,303.3,16.7,320,37.3,320z"/>
<g>
	<path class="st1" d="M496,160H293.3c-8.8,0-16,7.2-16,16s7.2,16,16,16H496c8.8,0,16-7.2,16-16C512,167.2,504.8,160,496,160z"/>
	<path class="st1" d="M496,224H293.3c-8.8,0-16,7.2-16,16c0,8.8,7.2,16,16,16H496c8.8,0,16-7.2,16-16C512,231.2,504.8,224,496,224z"
		/>
	<path class="st1" d="M496,288H293.3c-8.8,0-16,7.2-16,16c0,8.8,7.2,16,16,16H496c8.8,0,16-7.2,16-16C512,295.2,504.8,288,496,288z"
		/>
</g>
<path class="st2" d="M462.7,91.5c4.7-8.5,7.3-18.5,7.3-29C470,28,440.9,0,405,0s-65,28-65,62.5s29.1,62.5,65,62.5
	c10.9,0,21.3-2.5,30.2-7l27.6,26.5c3.8,3.7,8.8,5.5,13.8,5.5c5,0,10-1.8,13.8-5.5c7.6-7.3,7.6-19.2,0-26.5L462.7,91.5z M379,62.5
	c0-13.8,11.7-25,26-25s26,11.3,26,25s-11.7,25-26,25S379,76.3,379,62.5z"/>
<path class="st2" d="M35.3,128h252.3c19.5,0,35.3-16.7,35.3-37.3V37.3C323,16.7,307.2,0,287.7,0H35.3C15.8,0,0,16.7,0,37.3v53.3
	C0,111.3,15.8,128,35.3,128z"/>
</svg>
