<?xml version="1.0" encoding="utf-8"?>
<!-- Generator: Adobe Illustrator 24.1.0, SVG Export Plug-In . SVG Version: 6.00 Build 0)  -->
<svg version="1.1" id="Слой_1" xmlns:amcharts="http://amcharts.com/ammap"
	 xmlns="http://www.w3.org/2000/svg" xmlns:xlink="http://www.w3.org/1999/xlink" x="0px" y="0px" viewBox="0 0 1008.9 651.4"
	 style="enable-background:new 0 0 1008.9 651.4;" xml:space="preserve">
<style type="text/css">
	.st0{fill:#A09F9F;stroke:#FFFFFF;stroke-width:0.5;}
</style>
<defs>
	
		<amcharts:ammap  bottomLatitude="-55.55" leftLongitude="-169.6" projection="mercator" rightLongitude="190.25" topLatitude="83.68">
		</amcharts:ammap>
</defs>
<g>
	<path id="AE" class="st0" d="M620.1,394l0.5-0.1l0.1,0.8l2.2-0.5l2.3,0.1l1.7,0.1l1.9-2.1l2.1-2l1.8-1.9l0.5,1.1l0.4,2.4l-1.4,0
		l-0.2,2l0.5,0.4l-1.3,0.6l0,1.2l-0.8,1.3l-0.1,1.2l-0.6,0.6l-8.4-1.5l-1.1-3.1L620.1,394z"/>
	<path id="AF" class="st0" d="M647.1,357.2l2.9,1.3l2.1-0.5l0.6-1.6l2.2-0.5l1.6-1.1l0.6-2.8l2.4-0.7l0.4-1.3l1.3,0.9l0.8,0.1l1.6,0
		l2.1,0.7l0.9,0.4l2-1.1l0.9,0.7l0.9-1.6l1.7,0.1l0.4-0.5l0.3-1.4l1.2-1.2l1.5,0.8l-0.3,1.1l0.8,0.2l-0.3,3l1.1,1.1l1-0.7l1.2-0.3
		l1.7-1.6l1.9,0.3l2.9,0l0.5,1l-1.6,0.4l-1.4,0.6l-3.2,0.4l-3,0.7l-1.6,1.5l0.7,1.5l0.3,1.7l-1.4,1.4l0.1,1.3l-0.8,1.2l-2.7-0.1
		l1.1,2.2l-1.8,0.8l-1.2,2l0.2,2l-1.1,0.9l-1-0.3l-2.1,0.4l-0.3,0.9l-2.1,0l-1.6,1.8l-0.1,2.8l-3.6,1.3l-2-0.3l-0.6,0.7l-1.7-0.4
		l-2.8,0.5l-4.7-1.6l2.5-2.9l-0.2-2.1l-2.1-0.6l-0.2-2.1l-0.9-2.6l1.2-1.8l-1.2-0.5l0.8-2.5L647.1,357.2z"/>
	<path id="AL" class="st0" d="M533.2,334.9l-0.4,1.3l0.4,1.6l1.2,0.9l-0.1,1l-0.9,0.5l-0.2,1.2l-1.3,1.8l-0.5-0.3l-0.1-0.8l-1.6-1.2
		l-0.2-1.8l0.2-2.5l0.4-1.2l-0.5-0.6l-0.2-1.2l1.2-1.9l0.2,0.7l0.8-0.3l0.6,1l0.7,0.4L533.2,334.9z"/>
	<path id="AM" class="st0" d="M597.7,337.8l3.9-0.6l0.6,1l1.1,0.6l-0.6,0.9l1.5,1.3l-0.8,1.2l1.2,1l1.3,0.6l0.1,2.5l-1,0.1l-1.1-2.1
		l0-0.6l-1.2,0l-0.8-1l-0.6,0.1l-1.1-1.1l-2.1-0.9l0.3-1.8L597.7,337.8z"/>
	<path id="AO" class="st0" d="M521.3,480l0.7,2.1l0.8,1.7l0.6,0.9l1.1,1.5l1.9-0.2l0.9-0.4l1.5,0.4l0.4-0.7l0.7-1.6l1.7-0.1l0.2-0.5
		l1.4,0l-0.2,1l3.4,0l0.1,1.8l0.6,1.1l-0.4,1.7l0.2,1.7l0.9,1l-0.2,3.4l0.7-0.3l1.2,0.1l1.7-0.4l1.3,0.2l0.3,0.9l-0.3,1.4l0.5,1.3
		l-0.4,1.1l0.2,1l-5.8,0l-0.1,9.2l1.9,2.4l1.8,1.8l-5.2,1.2l-6.8-0.4l-1.9-1.4l-11.4,0.1l-0.4,0.2l-1.7-1.3l-1.8-0.1l-1.7,0.5
		l-1.4,0.6l-0.3-1.8l0.4-2.6l1-2.6l0.1-1.2l0.9-2.6l0.7-1.2l1.6-1.9l0.9-1.3l0.3-2.1l-0.1-1.6l-0.8-1l-0.7-1.7l-0.7-1.7l0.1-0.6
		l0.9-1.1l-0.9-2.7l-0.6-1.9l-1.4-1.8l0.3-0.5l1.2-0.4l0.8,0.1l1-0.3L521.3,480z M510.4,479.5l-0.7,0.3l-0.8-2.1l1.1-1.2l0.8-0.5
		l1.1,1l-1,0.6l-0.5,0.7L510.4,479.5z"/>
	<path id="AR" class="st0" d="M291.9,649.2l-2.7,0.2l-1.4-1.7l-1.7-0.1l-3,0l0-10.6l1.1,2.1l1.4,3.5l3.6,2.9l3.9,1.2L291.9,649.2z
		 M293.4,526.7l1.6,2.2l1.1-2.4l3.2,0.1l0.5,0.6l5.2,4.9l2.3,0.5l3.4,2.3l2.9,1.2l0.4,1.4l-2.8,4.7l2.8,0.9l3.1,0.5l2.2-0.5l2.5-2.4
		l0.5-2.7l1.4-0.6l1.4,1.8l-0.1,2.5l-2.4,1.7l-1.9,1.3l-3.2,3.1l-3.7,4.4l-0.7,2.6l-0.8,3.4l0,3.3l-0.6,0.7l-0.2,2.2l-0.2,1.8
		l3.6,2.9l-0.4,2.4l1.8,1.5l-0.1,1.7l-2.7,4.5l-4.2,1.9l-5.6,0.7l-3.1-0.4l0.6,2.1l-0.6,2.7l0.5,1.9l-1.7,1.3l-2.9,0.5l-2.7-1.3
		l-1.1,1l0.4,3.7l1.9,1.1l1.5-1.2l0.8,2l-2.6,1.2l-2.3,2.4l-0.4,3.9l-0.7,2.1l-2.6,0l-2.2,2l-0.8,3l2.8,3l2.7,0.8l-1,3.7l-3.3,2.4
		l-1.8,5l-2.6,1.7l-1.1,2.1l0.9,4.6l1.9,2.6l-1.2-0.2l-2.6-0.7l-6.8-0.6l-1.2-2.6l0.1-3.3l-1.9,0.3l-1-1.6l-0.2-4.6l2.2-1.9l0.9-2.7
		l-0.3-2.1l1.5-3.5l1-5.3l-0.3-2.3l1.2-0.7l-0.3-1.5l-1.3-0.8l0.9-1.6l-1.3-1.5l-0.7-4.4l1.1-0.8l-0.5-4.5l0.7-3.8l0.8-3.2l1.7-1.3
		l-0.9-3.5l0-3.2l2.1-2.3l-0.1-2.9l1.6-3.3l0-3.1l-0.7-0.6l-1.3-5.7l1.7-3.3l-0.3-3.1l1-2.9l1.8-3l2-2l-0.8-1.2l0.6-1l-0.1-5.1
		l3.1-1.5l1-3.2l-0.3-0.8l2.3-2.7L293.4,526.7z"/>
	<path id="AT" class="st0" d="M523.1,310.1l-0.2,1.7l-1.6,0l0.5,0.9l-0.9,2.6l-0.5,0.7l-2.5,0.1l-1.4,0.9l-2.3-0.3l-4-1.1l-0.6-1.4
		l-2.8,0.7l-0.3,0.8l-1.7-0.6l-1.4-0.1l-1.3-0.7l0.4-1l-0.1-0.7l0.8-0.2l1.4,1.1l0.4-1.1l2.5,0.2l2-0.7l1.3,0.1l0.9,0.8l0.3-0.7
		l-0.4-2.7l1-0.5l1-2l2.1,1.4l1.6-1.7l1-0.3l2.2,1.3l1.3-0.2l1.3,0.8l-0.2,0.5L523.1,310.1z"/>
	<path id="AU" class="st0" d="M883.2,588.4l2.7,1.3l1.5-0.5l2.2-0.7l1.7,0.2l0.2,4.4l-1,1.3l-0.3,3.1l-1-1l-1.9,2.7l-0.6-0.2
		l-1.7-0.1l-1.7-3.3l-0.4-2.5l-1.6-3.3l0.1-1.7L883.2,588.4z M878,502.4l1,2.3l1.8-1.1l0.9,1.2l1.3,1.1l-0.3,1.3l0.6,2.5l0.4,1.5
		l0.7,0.4l0.8,2.5l-0.3,1.5l0.9,2l3,1.5l2,1.4l1.9,1.3l-0.4,0.7l1.6,1.9l1.1,3.2l1.1-0.7l1.1,1.3l0.7-0.5l0.5,3.2l2,1.9l1.3,1.2
		l2.2,2.5l0.8,2.5l0.1,1.8l-0.2,1.9l1.3,2.7l-0.2,2.8l-0.5,1.5l-0.8,2.9l0.1,1.9l-0.6,2.3l-1.2,3l-2.1,1.6l-1,2.6l-0.9,1.7l-0.8,2.9
		l-1.1,1.7l-0.7,2.6l-0.4,2.4l0.1,1.1l-1.6,1.2l-3.1,0.1l-2.6,1.5l-1.3,1.4l-1.7,1.5l-2.3-1.6l-1.7-0.6l0.4-1.9l-1.5,0.7l-2.5,2.6
		l-2.4-1l-1.6-0.6l-1.6-0.3l-2.7-1l-1.8-2.2l-0.5-2.7l-0.7-1.8l-1.4-1.4l-2.7-0.4l0.9-1.7l-0.7-2.5l-1.4,2.4l-2.5,0.6l1.5-1.9l0.4-2
		l1.1-1.6l-0.2-2.5l-2.3,2.8l-1.8,1.2l-1.1,2.7l-2.2-1.4l0.1-1.8l-1.8-2.4l-1.5-1.2l0.5-0.8l-3.6-2l-2-0.1l-2.7-1.6l-5,0.3l-3.6,1.2
		l-3.2,1.1l-2.7-0.2l-3,1.7l-2.4,0.8l-0.5,1.8l-1,1.4l-2.4,0.1l-1.8,0.3l-2.5-0.6l-2,0.4l-1.9,0.2l-1.7,1.8l-0.8-0.2l-1.4,1
		l-1.3,1.1l-2-0.1l-1.9,0l-3-2.2l-1.5-0.6l0.1-1.9l1.4-0.5l0.5-0.8l-0.1-1.2l0.3-2.3l-0.3-1.9l-1.5-3.3l-0.5-1.8l0.1-1.8l-1.1-2.1
		l-0.1-0.9l-1.2-1.3l-0.3-2.5l-1.6-2.5l-0.4-1.3l1.2,1.3l-0.9-2.9l1.4,0.9l0.8,1.2l0-1.6l-1.4-2.4l-0.3-1l-0.7-0.9l0.3-1.8l0.6-0.8
		l0.4-1.5l-0.3-1.8l1.2-2.2l0.2,2.3l1.2-2.1l2.3-1l1.4-1.3l2.1-1.1l1.3-0.2l0.8,0.4l2.2-1.1l1.7-0.3l0.4-0.7l0.7-0.3l1.5,0.1
		l2.9-0.9l1.5-1.3l0.7-1.6l1.6-1.5l0.1-1.2l0.1-1.6l2-2.5l1.2,2.5l1.2-0.6l-1-1.4l0.9-1.4l1.2,0.6l0.3-2.2l1.5-1.4l0.7-1.1l1.4-0.5
		l0-0.8l1.2,0.3l0-0.7l1.2-0.4l1.4-0.4l2.1,1.3l1.6,1.7l1.8,0l1.8,0.3l-0.6-1.6l1.3-2.3l1.3-0.7l-0.4-0.7l1.2-1.6l1.7-1l1.4,0.3
		l2.4-0.5l-0.1-1.5l-2.1-0.9l1.5-0.4l1.9,0.7l1.5,1.2l2.4,0.7l0.8-0.3l1.7,0.9l1.6-0.8l1.1,0.2l0.7-0.5l1.3,1.4l-0.7,1.5l-1.1,1.2
		l-1,0.1l0.3,1.1l-0.8,1.4l-1,1.4l0.2,0.8l2.2,1.6l2.2,0.9l1.4,1l2,1.7l0.8,0l1.5,0.7l0.4,0.9l2.7,1l1.9-1l0.5-1.6l0.6-1.3l0.3-1.6
		l0.9-2.3l-0.4-1.4l0.2-0.8l-0.3-1.6l0.4-2.2l0.5-0.6l-0.4-1l0.7-1.5l0.5-1.6l0.1-0.8l1-1.1l0.8,1.4l0.2,1.8l0.7,0.3l0.1,1.2l1,1.5
		l0.2,1.6L878,502.4z"/>
	<path id="AZ" class="st0" d="M601.7,342.7l0.8,1l1.2,0l0,0.6l1.1,2.1l-1.9-0.5l-1.4-1.7l-0.4-1.4L601.7,342.7z M608.3,337.3
		l1.2,0.3l0.5-0.9l1.7-1.5l1.5,2l1.4,2.6l1.3,0.2l0.9,1l-2.3,0.3L614,344l-0.5,1.3l-1,0.8l0.1,1.8l-0.7,0.2l-1.7-1.9l1-1.8l-0.8-1.1
		l-1.1,0.3l-3.3,2.7l-0.1-2.5l-1.3-0.6l-1.2-1l0.8-1.2l-1.5-1.3l0.6-0.9l-1.1-0.6l-0.6-1l0.7-0.6l2.1,1.1l1.5,0.2l0.4-0.4l-1.4-2
		l0.7-0.5l0.8,0.1L608.3,337.3z"/>
	<path id="BA" class="st0" d="M528.8,323.4l1,0l-0.7,1.7l1.4,1.5l-0.4,1.8l-0.7,0.2l-0.5,0.4l-0.9,0.9l-0.4,2.1l-2.5-1.4l-1.1-1.6
		l-1.1-0.9l-1.3-1.4l-0.6-1.2l-1.4-1.8l0.6-1.6l1,0.9l0.6-0.8l1.3-0.1l2.4,0.7l1.9-0.1L528.8,323.4z"/>
	<path id="BD" class="st0" d="M735.3,400.7l-0.1,2.2l-1-0.5l0.2,2.4l-0.8-1.6l-0.2-1.5l-0.5-1.4l-1.2-1.8l-2.6-0.1l0.3,1.2l-0.9,1.7
		l-1.2-0.6l-0.4,0.5l-0.8-0.3l-1.1-0.3l-0.4-2.5l-1-2.3l0.5-1.8l-1.7-0.8l0.6-1.1l1.8-1.1l-2-1.6l1-2.1l2.2,1.3l1.3,0.2l0.2,2.1
		l2.7,0.4l2.6,0l1.6,0.5l-1.3,2.6l-1.3,0.2l-0.9,1.7l1.5,1.6l0.5-1.9l0.8,0L735.3,400.7z"/>
	<path id="BE" class="st0" d="M484.8,296.2l2.1,0.4l2.6-0.9l1.8,2l1.5,1l-0.3,3l-0.7,0.2l-0.3,2.4l-2.5-2l-1.4,0.3l-2-2.1l-1.3-1.8
		l-1.3-0.1l-0.4-1.6L484.8,296.2z"/>
	<path id="BF" class="st0" d="M467.6,436.7l-1.9-0.7l-1.3,0.1l-1,0.7l-1.3-0.6l-0.5-0.9l-1.3-0.6l-0.2-1.6l0.8-1.2l-0.1-1l2.2-2.4
		l0.4-2l0.8-0.7l1.4,0.4l1.2-0.6l0.4-0.7l2.2-1.3l0.5-0.9l2.6-1.2l1.5-0.4l0.7,0.6l1.8,0l-0.2,1.4l0.4,1.3l1.6,1.9l0.1,1.4l3.2,0.6
		l-0.1,2l-0.6,0.9l-1.4,0.3l-0.6,1.2l-1,0.3l-2.5-0.1l-1.3-0.2l-0.9,0.5l-1.2-0.2l-4.9,0.1l-0.1,1.6L467.6,436.7z"/>
	<path id="BG" class="st0" d="M539,325.8l0.8,1.6l1.1-0.3l2.2,0.6l4.1,0.2l1.4-1l3.3-0.9l2,1.4l1.6,0.4l-1.5,1.6l-1,2.7l0.9,2.2
		l-2.4-0.5l-2.9,1.2l0,1.9l-2.5,0.4l-2-1.3l-2.2,1l-2.1-0.1l-0.2-2.5l-1.4-1.2l0.5-0.5l-0.3-0.5l0.5-1.2l1.1-1.2l-1.4-1.7l-0.3-1.4
		L539,325.8z"/>
	<path id="BI" class="st0" d="M557.8,476.2l-0.2-3.4l-0.7-1.3l1.7,0.2l0.9-1.6l1.5,0.2l0.2,1.1l0.6,0.6l0,0.9l-0.7,0.6l-1.1,1.5
		l-1,1L557.8,476.2z"/>
	<path id="BJ" class="st0" d="M483,446.2l-2.3,0.3l-0.7-1.9l0.1-6.5l-0.6-0.6l-0.1-1.4l-1-1l-0.9-0.8l0.4-1.5l1-0.3l0.6-1.2l1.4-0.3
		l0.6-0.9l0.9-0.8l1,0l2.1,1.6l-0.1,0.9l0.6,1.7l-0.6,1.1l0.3,0.8l-1.4,1.8l-0.9,0.9l-0.5,1.8l0.1,1.8L483,446.2z"/>
	<path id="BN" class="st0" d="M795.7,451l1.1-1l2.4-1.5l-0.1,1.4l-0.2,1.8l-1.3-0.1l-0.6,1L795.7,451z"/>
	<path id="BO" class="st0" d="M299.3,526.6l-3.2-0.1l-1.1,2.4l-1.6-2.2l-3.7-0.7l-2.3,2.7l-2,0.4l-1.1-4.2l-1.5-3.3l0.9-2.9
		l-1.5-1.3l-0.4-2.1l-1.4-2l1.8-3.1l-1.2-2.4l0.6-1l-0.5-1.1l1.1-1.4l0.1-2.4l0.1-2l0.6-1l-2.4-4.6l2.1,0.2l1.4-0.1l0.6-0.9l2.5-1.1
		l1.5-1.1l3.7-0.5l-0.3,2.1l0.3,1.1l-0.2,1.9l3,2.6l3.1,0.5l1.1,1.1l1.9,0.6l1.2,0.8l1.8,0l1.6,0.8l0.1,1.7l0.5,0.8l0,1.2l-0.8,0
		l1.1,3.4l5.4,0.1l-0.4,1.7l0.3,1.2l1.5,0.8l0.7,1.8l-0.5,2.3l-0.8,1.3l0.3,1.7l-0.9,0.6l0-0.9l-2.6-1.5l-2.6,0l-4.9,0.9l-1.3,2.6
		l-0.1,1.6l-1.1,3.6L299.3,526.6z"/>
	<path id="BR" class="st0" d="M313.9,552l3.7-4.4l3.2-3.1l1.9-1.3l2.4-1.7l0.1-2.5l-1.4-1.8l-1.4,0.6l0.5-1.8l0.4-1.8l0-1.7l-1-0.6
		l-1.1,0.5l-1-0.1l-0.3-1.2l-0.3-2.8l-0.5-0.9l-1.9-0.8l-1.1,0.6l-3-0.6l0.2-4.1l-0.8-1.7l0.9-0.6l-0.3-1.7l0.8-1.3l0.5-2.3
		l-0.7-1.8l-1.5-0.8l-0.3-1.2l0.4-1.7l-5.4-0.1l-1.1-3.4l0.8,0l0-1.2L306,504l-0.1-1.7l-1.6-0.8l-1.8,0l-1.2-0.8l-1.9-0.6l-1.1-1.1
		l-3.1-0.5l-3-2.6l0.2-1.9l-0.3-1.1l0.3-2.1l-3.7,0.5l-1.5,1.1l-2.5,1.1l-0.6,0.9l-1.4,0.1l-2.1-0.2l-1.6,0.5l-1.3-0.3l0.2-4.3
		l-2.3,1.7l-2.5-0.1l-1.1-1.5l-1.9-0.2l0.6-1.2l-1.6-1.7l-1.2-2.5l0.7-0.5l0-1.2l1.7-0.8l-0.3-1.5l0.7-1l0.2-1.3l3.2-1.9l2.3-0.5
		l0.4-0.4l2.5,0.1l1.3-7.6l0.1-1.2l-0.4-1.6l-1.2-1l0-2l1.6-0.5l0.6,0.3l0.1-1.1l-1.6-0.3l0-1.7l5.5,0.1l0.9-1l0.8,0.9l0.5,1.6
		l0.5-0.3l1.5,1.5l2.2-0.2l0.5-0.9l2.1-0.7l1.2-0.5l0.3-1.2l2-0.8l-0.2-0.6l-2.4-0.2l-0.4-1.8l0.1-1.9l-1.3-0.7l0.5-0.3l2.1,0.4
		l2.2,0.7l0.8-0.7l2-0.4l3.1-1l1-1.1l-0.4-0.8l1.5-0.1l0.7,0.6l-0.4,1.2l1,0.4l0.6,1.3l-0.8,1l-0.4,2.4l0.7,1.4l0.2,1.3l1.7,1.3
		l1.4,0.1l0.3-0.5l0.9-0.1l1.3-0.5l0.9-0.7l1.5,0.2l0.7-0.1l1.5,0.2l0.3-0.6l-0.5-0.6l0.3-0.8l1.1,0.2l1.3-0.3l1.6,0.6l1.2,0.6
		l0.9-0.8l0.6,0.1l0.4,0.8l1.3-0.2l1.1-1.1l0.9-2.1l1.7-2.6l1-0.1l0.7,1.5l1.6,4.9l1.5,0.5l0.1,1.9l-2.1,2.3l0.9,0.8l5,0.4l0.1,2.8
		l2.1-1.8l3.5,1l4.7,1.7l1.4,1.6l-0.5,1.5l3.3-0.9l5.5,1.5l4.2-0.1l4.1,2.3l3.6,3.1l2.2,0.8l2.4,0.1l1,0.9l1,3.6l0.5,1.7l-1.1,4.7
		l-1.4,1.8l-4,3.9l-1.8,3.2l-2.1,2.5l-0.7,0.1l-0.8,2.1l0.2,5.4l-0.8,4.5l-0.3,1.9l-0.9,1.2l-0.5,3.9l-2.8,3.9l-0.5,3.1l-2.3,1.3
		l-0.7,1.8l-3,0l-4.4,1.2l-2,1.4l-3.1,0.9l-3.3,2.4l-2.4,3.1l-0.4,2.3l0.5,1.7l-0.5,3.2l-0.6,1.5l-2,1.8l-3.1,5.7l-2.5,2.6l-1.9,1.5
		l-1.3,3.2l-1.9,1.9l-0.8-1.9l1.2-1.6l-1.6-2.2l-2.2-1.8l-2.9-2.1l-1,0.1l-2.8-2.5L313.9,552z"/>
	<path id="BS" class="st0" d="M258.1,395.5l-0.7,0.2l-0.7-1.8l-1.1-0.9l0.6-2l0.8,0.1l1,2.5L258.1,395.5z M257.3,386.8l-3.1,0.5
		l-0.2-1.2l1.3-0.3l1.9,0.1L257.3,386.8z M259.6,386.7l-0.5,2.2l-0.5-0.4l0-1.6l-1.3-1.2l0-0.4L259.6,386.7z"/>
	<path id="BT" class="st0" d="M732.6,383l1.1,1l-0.2,1.9l-2.3,0.1l-2.4-0.2l-1.8,0.5l-2.5-1.2l-0.1-0.6l1.9-2.3l1.5-0.8l2,0.7
		l1.5,0.1L732.6,383z"/>
	<path id="BW" class="st0" d="M547.4,516.2l0.6,0.5l0.9,1.7l3.2,3.3l1.2,0.3l0,1.1l0.8,1.9l2.2,0.5l1.8,1.4l-4,2.2l-2.5,2.3l-0.9,2
		l-0.8,1.2l-1.5,0.2l-0.5,1.5l-0.3,1l-1.8,0.7l-2.3-0.2l-1.3-0.9l-1.2-0.4l-1.4,0.7l-0.7,1.5l-1.3,0.9l-1.4,1.4l-2,0.3l-0.6-1.1
		l0.3-1.9l-1.7-2.9l-0.8-0.5l0-8.9l2.8-0.1l0.1-10.6l2.1-0.1l4.3-1l1.1,1.2l1.8-1.1l0.8,0l1.6-0.7l0.5,0.2L547.4,516.2z"/>
	<path id="BY" class="st0" d="M541.3,284.3l2.7,0l3-1.8l0.7-2.7l2.3-1.6l-0.3-2.2l1.7-0.8l3-1.9l3,1.3l0.4,1.2l1.5-0.6l2.7,1.2
		l0.3,2.3l-0.6,1.3l1.8,3.2l1.1,0.9l-0.2,0.9l1.9,0.8l0.8,1.3l-1.1,1l-2.3-0.2l-0.5,0.4l0.7,1.5l0.7,2.9l-2.4,0.3l-0.9,1l-0.2,2.3
		l-1.1-0.4l-2.5,0.2l-0.7-1l-1.1,0.8l-1.1-0.6l-2.2-0.1l-3.1-1.1l-2.8-0.4l-2.2,0.1l-1.5,1.2l-1.3,0.2l-0.1-2l-0.9-2.1l1.7-0.9
		l0-1.8l-0.8-1.8L541.3,284.3z"/>
	<path id="BZ" class="st0" d="M225.6,413.2l0-0.4l0.3-0.1l0.5,0.3l1-1.8l0.5,0l0,0.4l0.5,0l0,0.8l-0.5,1.3l0.2,0.5l-0.3,1l0.2,0.3
		l-0.3,1.5l-0.6,0.8l-0.5,0.1l-0.6,1l-0.8,0l0.2-3.3L225.6,413.2z"/>
	<path id="CA" class="st0" d="M199.2,96.5l-0.2-5.9l3.6,0.6l1.6,1l3.4,4.9l-0.8,5l-4.1,2.8l-2.3-3.1L199.2,96.5z M212.4,109.1
		l0.3-1.5l-2-2.4l-5.6-0.2l0.7,3.7l5.3,0.8L212.4,109.1z M248.7,156.1l3.1,5.1l0.8,0.6l3.1-1.3l3,0.2l3,0.3l-0.2-2.6l-4.8-5.4
		l-6.4-1.1l-1.3,0.7L248.7,156.1z M183.3,93.4l-2.7,4.2l6.2,0.5l4.6,4.4l4.6,1.5l-1.1-5.7l-2.1-6.7l-7.6-5.4l-5.5-2l0.2,5.7
		L183.3,93.4z M209.2,83.1l5.1-0.1l-2.2,4l0,5.3l3,5.8l5.8,1.8l5-1l5.2-10.7l3.9-4.4l-3.4-5l-2.2-10.6l-4.6-3.2l-4.7-3.7l-3.6-9.6
		l-6.5,0.9l1.2,4.1l-2.9,1.2l-1.9,5.3l-1.9,7.5l1.8,7.3L209.2,83.1z M145.5,136.5l3.9,2l12.7-1.3l-5.8,4.8l0.4,3.4l4.3-0.2l7.1-4.6
		l9.5-1.7l1.7-5.2l-0.5-5.6l-2.9-0.5l-2.5,1.9l-1.1-4.1l-0.9-5.7l-2.9-1.4l-2.6,4.4l4,11l-4.9-0.9l-5-6.8l-7.9-4l-2.6,3.3
		L145.5,136.5z M168,94.5l-3.6-2.9l-1.5-0.7l-2.9,4.3l0,2l4.7,0L168,94.5z M166.6,106.8l0.9-4l-4-2.1l-4.1,1.4l-2.3,4.3l4.2,4.2
		L166.6,106.8z M195.7,140.1l4.6-1.1l1.3-8.3l-0.1-5.9l-2.1-5.6l-0.2,1.6l-3.9-0.7l-4.2,4.1l-3-0.4l0.2,8.9l4.6-0.9l-0.1,6.5
		L195.7,140.1z M192.4,185.7l-5.1-3.9l-4.7-4.2l-0.9-6.2l-1.8-8.9l-3.1-3.8L174,157l-2.5,1.4l2,9.6l-1.4,3.7l-2.3-9l-2.6-3.1
		l-3.2,4.8l-3.9-4.8l-6.2,2.9l1.4-4.5l-2.9-1.9l-7.5,5.8l-2,3.7l-2.4,6.8l4.9,2.3l4.3-0.1l-6.5,3.5l1.5,3.1l4,0.2l6-0.7l5.4,2
		l-3.7,1.4l-4-0.4l-4.3,1.4l-1.9,0.9l3.5,6.4l2.5-0.9l3.8,2.1l1.5,3.7l5-0.7l7.1-1.2l5.3-2.6l3.3-0.5l4.8,2.1l5.1,1.2l0.9-2.9
		l-1.8-3l4.6-0.6L192.4,185.7z M200.1,184.7l-2,3.5l-2.5,2.5l3.8,3.5l2.3-0.9l3.8,2.4l1.7-2.7l-1.7-3l-0.8-1.5l-1.7-1.5L200.1,184.7
		z M182.5,155.2l-2.1-2.2l-3.8,0.4l-1,1.4l4.4,6.8L182.5,155.2z M211.2,168.4l3-6.9l3.3-1.8l4.2-8.7l-5.4-2.5l-5.8-0.4l-2.8,2.8
		l-1.5,4.2l0,4.8l1.8,8.2L211.2,168.4z M228.3,145.4l5.8-0.2l8-1.6l3.6,1.3l4.2-2.3l1.7-2.8l-0.6-4.5l-3-4.2l-4.6-0.8l-5.7,1
		l-4.5,2.4l-4.1-0.9l-3.8-0.5l-1.8-2.7l-3.2-2.6l0.6-4.4l-2.4-4l-5.5,0l-3.1-4l-5.8-0.8l-1.1,5.1l3.3,3.7l5.8,1.5l2.8,5.1l0.3,5.6
		l1,6l7.5,3.4L228.3,145.4z M139.3,127.1l5.2-5.1l2.6-0.6l2.2-4.2l0.4-9.8l-3.8,1.9l-4.3-0.2l-5.8,8.2l-4.8,9l3.8,2.5L139.3,127.1z
		 M211.5,143.3l1.5-4.1l-1-3.5l-2.4-3.9l-4,3l-1.5,4.9l3.4,2.8L211.5,143.3z M203.2,154.7l-0.7-2.9l-5,1.3l-3.3-2.1l-3.3,4.8
		l3.1,6.3l-5.7-1.2l-0.1,3l7,7l1.9,3.4l2.7,0.7l4.6-3.4l0.5-8.2l-4.2-4.1L203.2,154.7z M129.2,308.5l-1.2-2.3l-2.8-1.8l-1.4-2.1
		l-1-1.5l-2.6-0.5l-1.7-0.7l-2.9-1l-0.2,1l1.1,2.4l2.9,0.8l0.5,1.2l2.5,1.5l0.8,1.5l4.6,1.9L129.2,308.5z M250.9,230.9l-2-2.1
		l-2.1,0.5l-0.2-3.1l-3.2-2l-3.1-2.3l-1.6-1.8l-1.4,1l-0.5-3l-2-0.6l-1,6.1l-0.4,5.1l-2.4,3.1l3.8-0.6l1,3.6l4-3.2l2.8-3.4l1.6,2.9
		l4.4,1.5L250.9,230.9z M130.4,178.3l7.4-4.2v-3.9l3.5-6.4l6.9-6.7l3.5-2.5l-3-4.2l-2.7-3l-7.2-0.6l-4-2.2l-9.5,1.6l2.7,6.2
		l-2.4,6.4l-1.9,6.9l-1.2,3.9l6.5,4.7L130.4,178.3z M264.6,205.6l0.3-1l0-3.2l-2.2-2.1l-2.6,1l-1.2,4.2l0.7,3.6l3.1-0.4L264.6,205.6
		z M288.4,213.2l4.4,6.6l3.5,2.9l4.9-7.9l0.9-4.9l-4.4-0.5l-4-6.7l-4.5-1.6l-6.6-5l5.1-3.6l-2.7-7.5l-2.4-3.4l-6.8-3.4l-2.9-5.5
		l-5.2,2l-0.4-3.9l-3.9-4.3l-6.2-4.7l-2.7,3.7l-5.5,2.7l0.4-6.1l-4.8-10.1l-7.1,4.1l-2.6,7.7l-2.2-5.9l2.1-6.4l-7.2,2.7l-2.9,4
		l-2.2,8.4l0.9,9.1l4,0l-2.9,3.9l2.3,3l4.5,1.3l5.9,2.4l10.2,1.8l5.1-1l1.5-2.4l2.2,2.8l2.5,0.5l3,5l-1.8,2l5.7,2.6l4.3,3.7l1.1,2.6
		l0.8,3.2l-3.6,6.9l-1,3.4l0.9,2.4l-5.8,0.9l-5.3,0.1l-1.8,4.9l2.4,2.2l8.1-1l0-1.9l4.1,3.1l4.2,3.3l-1,1.8l3.4,3l6,3.5l7.6,2.4
		l-0.5-2.1l-2.9-3.7l-4-5.4l7,5l3.5,1.7l1-4.4l-1.8-6.3l-1.2-1.7l-3.8-3l-2.9-3.9l0.4-3.9L288.4,213.2z M222.6,51.6l2.3,7.3l5,5.9
		l9.8-1.1l6.3,2l-4.4,6.1l-2.2-1.8l-7.7-0.7l1.2,8.3l4,6l-0.8,5.2l-5,3.5l-2.3,5.5l4.5,2.6l3.8,8.5l-7.5-5.7l-1.7,0.9l1.4,9.4
		l-5.2,2.8l0.4,5.9l5.3,0.6l4.2,1.4l8.2-1.8l7.3,3.3l7.5-7.2l-0.1-3l-4.8,0.5l-0.4-2.8l3.9-3.8l1.3-5.2l4.3-3.8l2.7-4.8l-2.3-7.1
		l1.9-2.6l-3.9-1.9l8.5-1.6l1.8-3.1l5.8-2.6l4.8-13.5l4.6-4.9l6.6-11.1l-6.1,0.1l2.5-4.3l6.8-4l6.8-8.9l0.1-5.7l-5.1-6l-6-2.9
		l-7.5-1.8l-6.1-1.5l-6.1-1.5l-8.1,4l-1.5-2.5l-8.6,1l-5,2.6l-3.7,3.7l-2.1,11.7l-3-6l-3.5-1.1l-4.1,8l-5.5,3.3l-3.3,0.7l-4.2,3.8
		l0.6,6.6L222.6,51.6z M297,316.6l-1-2l-1.1,1.3l0.7,1.4l3.6,1.7l1-0.3l1.4-1.7l-2.6,0.1L297,316.6z M240,238.7l0.6,1.6l2,0.1
		l3.3-3.3l0.1-1.2l-3.9-0.1L240,238.7z M302.1,305.2l-2.9-1.8l-3.7-1.1l-1,0.4l2.6,2l3.6,1.3l1.4-0.1L302.1,305.2z M327,310
		l-0.4-2.2l-2,0.7l0.9-3.1l-2.8-1.3l-1.3,1l-2.5-1.2l1-1.5l-1.9-0.9l-1.8,1.5l1.9-3.8l1.5-2.8l0.5-1.2l-1.3-0.2l-2.4,1.5l-1.7,2.5
		l-2.9,6.9l-2.4,2.6l1.2,1.1l-1.7,1.5l0.4,1.2l5.4,0.1l3-0.2l2.7,1l-2,1.9l1.7,0.1l3.3-3.6l0.8,0.5l-0.6,3.4l1.8,0.8l1.3-0.2
		l1.2-3.6L327,310z M305.8,314.7l-2.8,4.6l-4.6,0.6l-3.6-2l-0.9-3.1l-0.9-4.5l2.6-2.8l-2.5-2.1l-4.2,0.4l-5.9,3.5l-4.5,5.5l-2.4,0.7
		l3.2-3.8l4-5.6l3.6-1.9l2.3-3.1l2.9-0.3l4.2,0l6,0.9l4.7-0.7l3.5-3.6l4.6-1.6l2-1.6l2-1.7l-0.2-5.2l-1.1-1.8l-2.2-0.6l-1.1-4
		l-1.8-1.5l-4.5-1.3l-2.5-2.8l-3.7-2.8l1.1-3.2l-3.1-6.3l-3.7-6.9l-2.2-5l-1.9,2.6l-2.7,6.1l-4.1,3l-2-3.2l-2.6-0.8l-0.9-7l0.1-4.8
		l-5-0.4l-0.9-2.3l-3.5-3.4l-2.6-2l-2.3,1.6l-2.9-0.6l-4.8-1.6l-2,1.4l0.9,9.2l1.2,5.1l-3.3,5.8l3.4,4l1.9,4.4l0.2,3.4l-1.6,3.5
		l-3.2,3.5l-4.5,2.3l2,2.5l1.5,7.4l-1.5,4.7l-2.2,1.5l-4.2-4.3l-2-5.2l-0.9-4.8l0.5-4.2l-3.1-0.5l-4.6-0.3l-3-2.1l-3.5-1.4l-2-2.4
		l-2.8-1.9l-5.2-2.2l-3.9,1l-1.3-3.9l-1.3-5l-4.1-0.9l0.2-6.4l1.1-4.5l3-6.6l3.4-4.9l3.3-0.8l0.2-4l2.2-2.7l4-0.4l3.3-4.4l0.8-2.9
		l2.7-5.7l0.8-3.5l2.9,2.1l3.9-1.1l5.5-5l0.4-3.5l-2-4l2.1-4.1l-0.2-3.9l-3.8-4l-4.1-1.2l-4-0.6l-0.2,8.7l-2,6.6l-2.9,5.3l-2.7-4.9
		l0.8-5.6l-3.4-5l-3.7,6.1l0-8l-5.2-1.6l2.5-4l-3.8-9.6l-2.8-3.9l-3.7-1.4l-3.3,6.4l-0.2,9.3l3.3,3.3l3,4.9L210,201l-2.3-0.2
		l-1.8,5.9l0-7l-4.3-2.6l-2.5,1.3l0.3,4.7l-4.1-0.2l-4.4,1.2l-5-3.4l-3.1,0.6l-2.8-4.1l-2.3-1.8l-2.2,0.8l-3.4,0.4l-1.8,2.6l2.9,3.2
		l-3.1,3.7l-3-4.4l-2.4,1.3l-7.6,0.9l-5.1-1.6l3.9-3.7l-3.8-3.9l-2.7,0.5l-3.9-1.3l-6.6-2.9l-4.3-3.4l-3.4-0.5l-1.1,2.4l-3.4,1.3
		l-0.4-6.1l-3.7,5.5l-4.7-7.3l-1.9-0.9l-0.6,3.9l-2.1,1.9l-1.9-3.4l-4.6,2l-4.2,3.6l-4.2-1l-3.4,2.5l-2.5,3.3l-2.9-0.7l-4.4-3.8
		l-5.2-1.9l0,27.6l0,35.4l2.8,0.2l2.7,1.6l2,2.4l2.5,3.6l2.7-3.1l2.8-1.8l1.5,2.9l1.9,2.2l2.6,2.4l1.8,3.8l2.9,5.9l4.8,3.2l0.1,3.1
		l-1.6,2.4l0.1,2.5l3.4,3.4l0.5,3.8l3.6,2l-0.4,2.8l1.6,4l5.1,1.8l2,1.9l5.4,4.2l0.4,0h8h8.3h2.8h8.5h8.3h8.4h8.4h9.5l9.6,0l5.8,0
		l0-1.6l0.9,0l0.5,2.3l0.9,0.7l2,0.3l2.9,0.7l2.7,1.3l2.3-0.5l3.4,1.1l1.1-1.7l1.6-0.7l0.6-1l0.6-0.6l2.6,0.9l1.9,0.1l0.7,0.6
		l0.9,2.4l3.1,0.6l-0.5,1.2l1.1,1.2l-0.5,1.6l1.2,0.5l-0.6,1.4l0.8,0.1l0.5-0.6l0.6,0.9l2.1,0.5l2.1,0l2.3,0.4l2.5,0.8l0.9,1.3
		l1.8,3l-0.9,1.3l-2.3-0.5l-1.4-2.4l0.4,2.5l-1.3,2.2l0.1,1.8l-0.2,1.1l-1.8,1.3l-1.3,2.1l-0.6,1.3l1.5,0.2l2.1-1.2l1.2-1.1l0.8-0.2
		l1.5,0.4l0.7-0.6l1.4-0.5l2.4-0.5v0v0l-0.2-1.1l-0.1,0l-0.9,0.2l-1.1-0.4l0.8-1.3l0.9-0.5l2-0.6l2.4-0.5l1.2,0.7l0.8-0.9l0.9-0.5
		l0.6,0.3l0,0.1l2.9-2.7l1.3-0.7l4.3,0l5.2,0l0.3-1l0.9-0.2l1.2-0.6l1-1.8l0.9-3.1l2.1-3.1l0.9,1.1l1.9-0.7l1.2,1.2l0,5.5l1.8,2.3
		l3.1-0.5l4.5-0.1l-4.9,3.3l0.1,3.3l2.1,0.3l3.1-2.8l2.8-1.6l6.2-2.4l3.5-2.6l-1.8-1.5L305.8,314.7z M252.2,243.6l1.1-3.1l-0.7-1.2
		l-1.1-0.1l-1.1,1.8l-0.1,0.4l0.7,1.8L252.2,243.6z M109.5,280.1L109.5,280.1l1.6-2.4L109.5,280.1z"/>
	<path id="CD" class="st0" d="M562,453.9l-0.2,3.3l1.1,0.4l-0.9,1l-1.1,0.7l-1.1,1.5l-0.6,1.3l-0.2,2.2l-0.6,1.1l0,2.1l-0.8,0.8
		l-0.1,1.7l-0.4,0.2l-0.3,1.5l0.7,1.3l0.2,3.4l0.5,2.6l-0.3,1.5l0.6,1.6l1.6,1.6l1.5,3.5l-1.1-0.3l-3.8,0.5l-0.8,0.3l-0.8,1.8
		l0.6,1.2l-0.5,3.4l-0.3,2.9l0.8,0.5l2,1.1l0.8-0.5l0.2,3.1l-2.1,0l-1.2-1.6l-1-1.2l-2.1-0.4l-0.6-1.5l-1.7,0.9l-2.2-0.4l-0.9-1.3
		l-1.8-0.3l-1.3,0.1l-0.2-0.9l-1-0.1l-1.3-0.2l-1.7,0.4l-1.2-0.1l-0.7,0.3l0.2-3.4l-0.9-1l-0.2-1.7l0.4-1.7l-0.6-1.1l-0.1-1.8
		l-3.4,0l0.2-1l-1.4,0l-0.2,0.5l-1.7,0.1l-0.7,1.6l-0.4,0.7l-1.5-0.4l-0.9,0.4l-1.9,0.2l-1.1-1.5l-0.6-0.9l-0.8-1.7l-0.7-2.1l-8.3,0
		l-1,0.3l-0.8-0.1l-1.2,0.4l-0.4-0.9l0.7-0.3l0.1-1.2l0.5-0.7l1-0.6l0.7,0.3l1-1.1l1.5,0l0.2,0.8l1,0.5l1.6-1.8l1.6-1.4l0.7-0.9
		l-0.1-2.3l1.2-2.7l1.3-1.4l1.8-1.3l0.3-0.9l0.1-1l0.5-1l-0.1-1.6l0.3-2.5l0.5-1.7l0.8-1.5l0.2-1.7l0.3-1.9l1.1-1.4l1.5-0.9l2.3,0.9
		l1.8,1l2.1,0.3l2.1,0.5l0.8-1.7l0.4-0.2l1.3,0.3l3.1-1.4l1.1,0.6l0.9-0.1l0.4-0.7l1-0.2l2.1,0.3l1.8,0.1l0.9-0.3l1.7,2.3l1.3,0.3
		l0.8-0.5l1.3,0.2l1.6-0.6l0.7,1.2L562,453.9z"/>
	<path id="CF" class="st0" d="M518.3,442.9l2.3-0.2l0.5-0.7l0.5,0.1l0.7,0.6l3.5-1.1l1.2-1.1l1.5-1l-0.3-1l0.8-0.3l2.7,0.2l2.6-1.3
		l2-3.1l1.4-1.1l1.8-0.5l0.3,1.2l1.6,1.8l0,1.2l-0.5,1.2l0.2,0.9l1,0.8l2.1,1.2l1.5,1.1l0,0.9l1.9,1.5l1.2,1.2l0.7,1.7l2.1,1.1
		l0.5,0.9l-0.9,0.3l-1.8-0.1l-2.1-0.3l-1,0.2l-0.4,0.7l-0.9,0.1l-1.1-0.6l-3.1,1.4l-1.3-0.3l-0.4,0.2l-0.8,1.7l-2.1-0.5l-2.1-0.3
		l-1.8-1l-2.3-0.9l-1.5,0.9l-1.1,1.4l-0.3,1.9l-1.8-0.2l-1.9-0.5l-1.7,1.5l-1.5,2.6l-0.3-0.8l-0.1-1.3l-1.3-0.9l-1-1.4l-0.2-1
		l-1.3-1.5l0.2-0.8l-0.3-1.2l0.2-2.2l0.7-0.5L518.3,442.9z"/>
	<path id="CG" class="st0" d="M511.9,477l-1-1l-0.8,0.5l-1.1,1.2l-2.3-3l2.1-1.5l-1.1-1.8l1-0.7l1.9-0.3l0.2-1.2l1.5,1.3l2.5,0.1
		l0.9-1.3l0.4-1.9l-0.3-2.2l-1.3-1.6l1.2-3.2l-0.7-0.6l-2.1,0.2l-0.8-1.4l0.2-1.2l3.5,0.1l2.3,0.7l2.2,0.7l0.2-1.5l1.5-2.6l1.7-1.5
		l1.9,0.5l1.8,0.2l-0.2,1.7l-0.8,1.5l-0.5,1.7l-0.3,2.5l0.1,1.6l-0.5,1l-0.1,1l-0.3,0.9l-1.8,1.3l-1.3,1.4l-1.2,2.7l0.1,2.3
		l-0.7,0.9l-1.6,1.4l-1.6,1.8l-1-0.5l-0.2-0.8l-1.5,0l-1,1.1L511.9,477z"/>
	<path id="CH" class="st0" d="M502.4,312.6l0.1,0.7l-0.4,1l1.3,0.7l1.4,0.1l-0.2,1.7l-1.2,0.7l-2.1-0.5l-0.6,1.6l-1.3,0.1l-0.5-0.6
		l-1.6,1.4l-1.4,0.2l-1.2-0.9l-1-1.8l-1.3,0.6l0-1.8l2-2.3l-0.1-1.1l1.3,0.4l0.8-0.7l2.4,0l0.6-0.9L502.4,312.6z"/>
	<path id="CI" class="st0" d="M467.5,449.7l-1.3,0l-2-0.5l-1.8,0l-3.3,0.5l-1.9,0.8l-2.8,1l-0.5-0.1l0.2-2.3l0.3-0.4l-0.1-1.1
		l-1.2-1.2l-0.9-0.2l-0.8-0.8l0.6-1.2l-0.3-1.4l0.1-0.8l0.4,0l0.2-1.2l-0.2-0.5l0.3-0.4l1-0.3l-0.7-2.3l-0.6-1.2l0.2-1l0.6-0.2
		l0.4-0.3l0.8,0.4l2.2,0l0.5-0.8l0.5,0.1l0.8-0.3l0.4,1.2l0.7-0.4l1.2-0.4l1.3,0.6l0.5,0.9l1.3,0.6l1-0.7l1.3-0.1l1.9,0.7l0.7,4
		l-1.2,2.4l-0.7,3.2l1.2,2.4L467.5,449.7z"/>
	<path id="CL" class="st0" d="M283.1,637l0,10.6l3,0l1.7,0.1l-0.9,2l-2.4,1.5L283,651l-1.7-0.4l-2-1.5l-2.9-0.7l-3.5-2.7l-2.9-2.6
		l-3.9-5.3l2.3,1l3.9,3.1l3.7,1.7l1.4-2.2l0.9-3.2l2.6-1.9L283.1,637z M284.2,525l1.1,4.2l2-0.4l0.3,0.8l-1,3.2l-3.1,1.5l0.1,5.1
		l-0.6,1l0.8,1.2l-2,2l-1.8,3l-1,2.9l0.3,3.1l-1.7,3.3l1.3,5.7l0.7,0.6l0,3.1l-1.6,3.3l0.1,2.9l-2.1,2.3l0,3.2l0.9,3.5l-1.7,1.3
		l-0.8,3.2l-0.7,3.8l0.5,4.5l-1.1,0.8l0.7,4.4l1.3,1.5l-0.9,1.6l1.3,0.8l0.3,1.5l-1.2,0.7l0.3,2.3l-1,5.3l-1.5,3.5l0.3,2.1l-0.9,2.7
		l-2.2,1.9l0.2,4.6l1,1.6l1.9-0.3l-0.1,3.3l1.2,2.6l6.8,0.6l2.6,0.7l-2.5,0l-1.4,1.1l-2.5,1.7l-0.5,4.4l-1.2,0.1l-3.2-1.5l-3.2-3.3
		l0,0l-3.5-2.6l-0.9-2.9l0.8-2.6l-1.4-2.9l-0.4-7.3l1.2-4l3-3.2l-4.3-1.2l2.7-3.6l1-6.6l3.1,1.4l1.5-8l-1.9-1l-0.9,4.7l-1.8-0.5
		l0.9-5.4l1-6.8l1.3-2.5l-0.8-3.5l-0.2-4l1.2-0.1l1.7-5.6l1.9-5.4l1.2-5l-0.6-4.9l0.8-2.7l-0.3-4l1.6-3.9l0.5-6l0.9-6.4l0.9-6.7
		l-0.2-4.9l-0.6-4.2l1.4-0.7l0.8-1.5l1.4,2l0.4,2.1l1.5,1.3l-0.9,2.9L284.2,525z"/>
	<path id="CM" class="st0" d="M512.2,457.3l-0.4-0.2l-1.7,0.4l-1.7-0.4l-1.3,0.2l-4.6-0.1l0.4-2.2l-1.1-1.8l-1.3-0.5l-0.6-1.3
		l-0.7-0.4l0-0.8l0.7-2l1.3-2.7l0.8,0l1.7-1.6l1.1,0l1.6,1.2l1.9-0.9l0.3-1.2l0.6-1.1l0.4-1.4l1.5-1.2l0.6-2l0.6-0.6l0.4-1.5
		l0.7-1.8l2.4-2.2l0.1-0.9l0.3-0.5l-1.1-1.1l0.1-0.9l0.8-0.2l1.1,1.8l0.2,1.9l-0.1,1.9l1.5,2.6l-1.6,0l-0.8,0.2l-1.3-0.3l-0.6,1.3
		l1.7,1.6l1.2,0.5l0.4,1.2l0.9,1.9l-0.4,0.8l-1.4,2.8l-0.7,0.5l-0.2,2.2l0.3,1.2l-0.2,0.8l1.3,1.5l0.2,1l1,1.4l1.3,0.9l0.1,1.3
		l0.3,0.8l-0.2,1.5l-2.2-0.7l-2.3-0.7L512.2,457.3z"/>
	<path id="CN" class="st0" d="M784.9,410.7l-2.4,1.4l-2.3-0.9l-0.1-2.5l1.4-1.3l3.1-0.8l1.6,0.1l0.6,1.1l-1.2,1.3L784.9,410.7z
		 M833.4,303.1l4.9,1.4l3.3,3l1.1,3.9l4.3,0l2.4-1.6l4.6-1.2l-1.5,3.8l-1.1,1.5l-1,4.5l-1.9,3.9l-3.4-0.7l-2.4,1.4l0.7,3.4l-0.4,4.6
		l-1.4,0.1l0,1.9l-1.8-2.2l-1.1,2.1l-4.3,1.6l0.4,2l-2.4-0.1l-1.3-1.2l-1.9,2.6l-3.1,2l-2.3,2.3l-3.9,1.1l-2.1,1.7l-3,1l1.5-1.7
		l-0.6-1.4l2.2-2.5l-1.5-1.9l-2.4,1.3l-3.2,2.5l-1.7,2.3l-2.8,0.2l-1.4,1.7l1.5,2.4l2.3,0.6l0.1,1.6l2.2,1l3.1-2.5l2.5,1.4l1.8,0.1
		l0.5,1.8l-4,1l-1.3,1.9l-2.7,1.7l-1.4,2.4l3,1.9l1.1,3.3l1.7,3l1.9,2.5l0,2.4l-1.8,0.9l0.7,1.7l1.7,1l-0.4,2.6l-0.7,2.5l-1.6,0.3
		l-2,3.4l-2.3,4.1l-2.6,3.7l-3.9,2.8l-3.9,2.6l-3.2,0.3l-1.7,1.3l-1-1l-1.6,1.5l-3.9,1.5l-3,0.5l-1,3.2l-1.6,0.2l-0.7-2.2l0.7-1.2
		l-3.8-1l-1.3,0.5l-2.8-0.8l-1.3-1.2l0.4-1.7l-2.6-0.6l-1.4-1.1l-2.4,1.6l-2.7,0.3l-2.2,0l-1.5,0.7l-1.5,0.4l0.4,3.4l-1.5-0.1
		l-0.3-0.7l-0.1-1.2l-2.1,0.9l-1.2-0.6l-2.1-1.1l0.8-2.5l-1.8-0.6l-0.7-2.8l-3,0.5l0.3-3.6l2.7-2.6l0.1-2.6l-0.1-2.4l-1.2-0.8
		l-0.9-1.9l-1.6,0.2l-3-0.5l0.9-1.3l-1.3-2l-2,1.3l-2.4-0.8l-3.2,2l-2.6,2.4l-2.3,0.4l-1.2-0.8l-1.5-0.1l-2-0.7l-1.5,0.8l-1.9,2.3
		l-0.2-2.5l-1.7,0.7l-3.3-0.3l-3.2-0.7l-2.3-1.4l-2.2-0.6l-0.9-1.5l-1.6-0.5l-2.8-2.1l-2.2-1l-1.2,0.8l-3.9-2.3l-2.8-2.1l-0.8-3.6
		l2,0.4l0.1-1.7l-1.1-1.7l0.3-2.7l-3-4l-4.6-1.4l-0.8-2.7l-2.1-1.6l-0.5-1l-0.4-2l0.1-1.4l-1.7-0.8l-0.9,0.4l-0.7-3.3l0.8-0.8
		l-0.4-0.9l2.7-1.7l1.9-0.7l3,0.5l1.1-2.4l3.6-0.4l1-1.5l4.4-2l0.4-0.9l-0.2-2.2l1.9-1l-2.5-6.8l5.6-1.6l1.4-0.9l2-7.3l5.6,1.4
		l1.6-1.9l0.1-4.2l2.3-0.4l2.1-2.8l1.1-0.4l0.7,3l2.4,2.2l4,1.6l1.9,3.3l-1.1,4.7l1,1.7l3.3,0.7l3.8,0.6l3.4,2.4l1.7,0.4l1.3,3.6
		l1.6,2.3l3.1-0.1l5.8,0.9l3.7-0.5l2.8,0.6l4.1,2.3l3.4,0l1.2,1.2l3.3-2l4.5-1.3l4.2-0.1l3.3-1.3l2-2.1l2-1.3l-0.5-1.3l-0.9-1.5
		l1.5-2.5l1.6,0.4l2.9,0.8l2.8-2.1l4.3-1.5l2.1-2.7l2-1.2l4.1-0.5l2.2,0.5l0.3-1.5l-2.5-2.9l-2.3-1.3l-2.2,1.5l-2.8-0.6l-1.6,0.5
		l-0.7-1.7l2-4.2l1.4-3.2l3.4,1.6l4-2.7l0-1.9l2.5-4.7l1.6-1.5l0-2.5l-1.5-1.1l2.3-2.3l3.5-0.8l3.7-0.1l4.2,1.4l2.5,1.7l1.7,4.6
		l1.1,1.9l1,2.7L833.4,303.1z"/>
	<path id="CO" class="st0" d="M264.2,464.1l-1.2-0.7l-1.4-0.9l-0.8,0.4l-2.4-0.4l-0.7-1.2l-0.5,0l-2.8-1.6l-0.4-0.9l1-0.2l-0.1-1.4
		l0.7-1l1.4-0.2l1.2-1.8l1.1-1.5l-1-0.7l0.5-1.6l-0.6-2.6l0.6-0.7l-0.4-2.4l-1.1-1.5l0.4-1.4l0.9,0.2l0.5-0.8l-0.7-1.7l0.3-0.4
		l1.4,0.1l2.1-2l1.2-0.3l0-0.9l0.5-2.4l1.6-1.3l1.8-0.1l0.2-0.6l2.2,0.2l2.2-1.4l1.1-0.6l1.4-1.4l1,0.2l0.7,0.8l-0.5,1l-1.8,0.5
		l-0.7,1.4l-1.1,0.8l-0.8,1.1l-0.3,2L270,438l1.4,0.2l0.4,1.3l0.6,0.6l0.2,1.1l-0.3,1l0.1,0.6l0.7,0.2l0.7,1l3.6-0.3l1.6,0.4l2,2.4
		l1.1-0.3l2,0.1l1.6-0.3l1,0.5l-0.5,1.5l-0.6,0.9l-0.2,2l0.6,1.9l0.8,0.8l0.1,0.6l-1.4,1.4l1,0.6l0.7,1l0.9,2.8l-0.5,0.3l-0.5-1.6
		l-0.8-0.9l-0.9,1l-5.5-0.1l0,1.7l1.6,0.3l-0.1,1.1l-0.6-0.3l-1.6,0.5l0,2l1.2,1l0.4,1.6l-0.1,1.2l-1.3,7.6l-1.4-1.5l-0.8-0.1
		l1.8-2.8l-2.1-1.3l-1.7,0.2l-1-0.5l-1.5,0.7l-2.1-0.4l-1.7-2.9l-1.3-0.7l-0.9-1.3l-1.9-1.3L264.2,464.1z"/>
	<path id="CR" class="st0" d="M242.9,440.7l-1.5-0.6l-0.6-0.6l0.3-0.5l-0.1-0.6l-0.8-0.7l-1.1-0.6l-1-0.4l-0.2-0.8l-0.7-0.5l0.2,0.8
		l-0.6,0.7l-0.6-0.8l-0.9-0.3l-0.4-0.6l0-0.9l0.4-0.9l-0.8-0.4l0.6-0.5l0.4-0.4l1.8,0.8l0.6-0.4l0.9,0.2l0.5,0.6l0.8,0.2l0.7-0.6
		l0.7,1.5l1.1,1.1l1.3,1.2l-1.1,0.3l0,1.1l0.6,0.4l-0.4,0.3l0.1,0.5l-0.2,0.6L242.9,440.7z"/>
	<path id="CU" class="st0" d="M244.8,397.2l2.4,0.2l2.2,0l2.6,1l1.1,1.1l2.6-0.3l1,0.7l2.4,1.9l1.7,1.4l0.9,0l1.7,0.6l-0.2,0.8
		l2.1,0.1l2.1,1.2l-0.3,0.7l-1.9,0.4l-1.9,0.1l-1.9-0.2l-4,0.3l1.9-1.7l-1.1-0.8l-1.8-0.2l-1-0.9l-0.7-1.7l-1.6,0.1l-2.6-0.8
		l-0.8-0.6l-3.7-0.5l-1-0.6l1.1-0.8l-2.8-0.2l-2,1.6l-1.2,0l-0.4,0.7l-1.4,0.3l-1.2-0.3l1.5-0.9l0.6-1.1l1.3-0.7l1.4-0.6l2.1-0.3
		L244.8,397.2z"/>
	<path id="CY" class="st0" d="M570.6,358.5l1.9-1.5l-2.5,1l-2,0l-0.4,0.8l-0.2,0l-1.3,0.1l0.7,1.4l1.4,0.4l2.9-1.4l-0.1-0.3
		L570.6,358.5z"/>
	<path id="CZ" class="st0" d="M523.1,308.1l-1.3-0.8l-1.3,0.2l-2.2-1.3l-1,0.3l-1.6,1.7l-2.1-1.4l-1.6-1.8l-1.4-1l-0.3-1.8l-0.5-1.3
		l2-1l1-1.1l2-0.9l0.7-0.8l0.7,0.5l1.3-0.5l1.3,1.4l2.1,0.4l-0.2,1.2l1.5,0.9l0.4-1.1l1.9,0.5l0.3,1.4l2.1,0.3l1.3,2.1l-0.8,0
		l-0.4,0.8l-0.6,0.2l-0.2,1l-0.5,0.2l-0.1,0.4l-1,0.4l-1.2-0.1L523.1,308.1z"/>
	<path id="DE" class="st0" d="M503.3,279.2l0.1,1.9l2.8,1.1l0,1.7l2.9-0.9l1.6-1.3l3.2,1.9l1.3,1.5l0.7,2.4l-0.8,1.2l1,1.6l0.7,2.4
		l-0.2,1.6l1.1,2.9l-1.3,0.5l-0.7-0.5l-0.7,0.8l-2,0.9l-1,1.1l-2,1l0.5,1.3l0.3,1.8l1.4,1l1.6,1.8l-1,2l-1,0.5l0.4,2.7l-0.3,0.7
		l-0.9-0.8l-1.3-0.1l-2,0.7l-2.5-0.2l-0.4,1.1l-1.4-1.1l-0.8,0.2l-3-1.3l-0.6,0.9l-2.4,0l0.4-3l1.4-2.9l-4-0.8l-1.3-1.1l0.2-1.9
		l-0.6-1l0.3-3l-0.5-4.7l1.7,0l0.7-1.7l0.7-4.2l-0.5-1.6l0.5-1l2.3-0.3l0.5,1l1.9-2.3l-0.6-1.8l-0.1-2.7l2.1,0.6L503.3,279.2z"/>
	<path id="DJ" class="st0" d="M596.3,428l0.7,0.9l-0.1,1.2l-1.6,0.7l1.2,0.8l-1,1.5l-0.6-0.5l-0.7,0.2l-1.6,0l0-0.9l-0.2-0.8
		l0.9-1.3l1-1.3l1.2,0.2L596.3,428z"/>
	<path id="DK" class="st0" d="M511.1,276.1l-1.7,4l-2.9-2.8l-0.4-2.1l4.1-1.7L511.1,276.1z M506.1,271.8l-0.7,1.9l-0.8-0.5l-2,3.6
		l0.8,2.4l-1.8,0.7l-2.1-0.6l-1.1-2.7l-0.1-5.1l0.5-1.4l0.8-1.5l2.5-0.3l1-1.4l2.3-1.5l-0.1,2.7l-0.8,1.7l0.3,1.4L506.1,271.8z"/>
	<path id="DO" class="st0" d="M274.4,407.6l0.4-0.5l2.2,0l1.7,0.8l0.7-0.1l0.5,1l1.5-0.1l-0.1,0.9l1.2,0.1l1.4,1.1l-1,1.2l-1.3-0.6
		l-1.3,0.1l-0.9-0.1l-0.5,0.5l-1.1,0.2l-0.4-0.7l-0.9,0.4l-1.1,2l-0.7-0.5l-0.1-0.8l0.1-0.8l-0.7-0.9l0.7-0.5l0.2-1.1L274.4,407.6z"
		/>
	<path id="DZ" class="st0" d="M509.1,396.3l-9.6,5.8l-8.1,5.9l-4,1.3l-3.1,0.3l0-1.9l-1.3-0.5l-1.7-0.8l-0.7-1.4l-9.5-6.5l-9.5-6.7
		l-10.5-7.5l0.1-0.6l0-0.2l0-3.8l4.5-2.4l2.8-0.5l2.3-0.9l1.1-1.6l3.3-1.3l0.1-2.4l1.6-0.3l1.3-1.2l3.7-0.6l0.5-1.3l-0.7-0.7l-1-3.5
		l-0.2-2.1l-1.1-2.2l2.7-1.9l3-0.6l1.8-1.4l2.7-1.1l4.8-0.6l4.6-0.3l1.4,0.5l2.6-1.4l3,0l1.1,0.8l1.9-0.2l-0.6,1.8l0.4,3.3l-0.7,2.8
		l-1.7,1.9l0.2,2.5l2.3,2l0,0.8l1.7,1.3l1.2,5.9l0.9,2.8l0.2,1.5l-0.5,2.6l0.2,1.4l-0.4,1.7l0.2,2l-1.1,1.3l1.7,2.3l0.1,1.3l1,1.7
		l1.3-0.6l2.2,1.4L509.1,396.3z"/>
	<path id="EC" class="st0" d="M250.3,473.1l1.5-2.1l-0.6-1.2l-1.1,1.3l-1.7-1.2l0.6-0.8l-0.5-2.5l1-0.4l0.5-1.7l1.1-1.8l-0.2-1.1
		l1.5-0.6l1.9-1.1l2.8,1.6l0.5,0l0.7,1.2l2.4,0.4l0.8-0.4l1.4,0.9l1.2,0.7l0.4,2.1l-0.9,1.8l-3.1,2.9l-3.4,1.1l-1.7,2.4l-0.5,1.9
		l-1.6,1.1l-1.2-1.4l-1.1-0.3L250,476l-0.1-1l0.8-0.7L250.3,473.1z"/>
	<path id="EE" class="st0" d="M543.7,265l0.3-3.1l-1,0.7l-1.8-1.9l-0.2-3.1l3.5-1.5l3.5-0.8l3,0.9l2.9-0.2l0.4,1l-2,3.1l0.8,5
		l-1.2,1.7l-2.3,0l-2.4-1.9l-1.2-0.6L543.7,265z"/>
	<path id="EG" class="st0" d="M573.4,377.5l-0.8,1.3l-0.6,2.4l-0.8,1.6l-0.7,0.6l-0.9-1l-1.3-1.4l-2-4.6l-0.3,0.3l1.2,3.4l1.7,3.2
		l2.1,4.9l1,1.7l0.9,1.7l2.5,3.4l-0.6,0.5l0.1,2l3.3,2.7l0.5,0.6h-11.1h-10.9h-11.3v-11.2v-11.2l-0.8-2.6l0.7-2l-0.4-1.4l1-1.6
		l3.7-0.1l2.7,0.9l2.8,1l1.3,0.5l2.2-1l1.2-0.9l2.5-0.3l2,0.4l0.8,1.6l0.7-1.1l2.2,0.8l2.2,0.2l1.4-0.8L573.4,377.5z"/>
	<path id="EH" class="st0" d="M438.7,383.4l-1.8,3.2l-1.9,1.1l-1,1.9l-0.1,1.6l-0.7,1.8l-0.9,0.5l-1.6,1.9l-1,2.1l0.2,1l-0.9,1.6
		l-1.1,0.8l-0.1,1.4l-0.1,1.3l0.6-1l11,0l-0.5-4.3l0.7-1.6l2.6-0.3l-0.1-7.9l9.2,0.2l0-4.7l0.1-0.6l0-0.2L438.7,383.4L438.7,383.4z"
		/>
	<path id="ER" class="st0" d="M594.3,428.4l-1-0.9l-1.2-1.7l-1.2-0.9l-0.7-1l-2.4-1.2l-1.9,0l-0.7-0.6l-1.6,0.7l-1.7-1.3l-0.9,2.1
		l-3.3-0.6l-0.3-1.2l1.2-4.3l0.3-1.9l0.9-0.9l2.1-0.5l1.4-1.7l1.6,3.4l0.8,2.7l1.5,1.4l3.8,2.7l1.6,1.6l1.5,1.7l0.9,1l1.4,0.9
		l-0.8,0.7L594.3,428.4z"/>
	<path id="ES" class="st0" d="M450.2,334.8l0.1-2.7l-1.1-1.7l4-2.8l3.4,0.7l3.8,0l3,0.7l2.3-0.2l4.5,0.1l1.1,1.5l5.2,1.7l1-0.8
		l3.2,1.7l3.3-0.5l0.1,2.2l-2.7,2.5l-3.6,0.8l-0.3,1.2l-1.7,2l-1.1,3l1.1,2.1l-1.6,1.6l-0.6,2.3l-2.1,0.7l-2,2.7l-3.6,0.1l-2.7-0.1
		l-1.8,1.2l-1.1,1.3l-1.4-0.3l-1-1.2l-0.8-2l-2.6-0.5l-0.2-1.2l1-1.3l0.4-1l-1-1.1l0.8-2.3l-1.1-2.2l1.2-0.3l0.1-1.7l0.5-0.5l0-2.9
		l1.3-1l-0.8-1.9l-1.6-0.1l-0.5,0.5l-1.7,0l-0.7-1.8l-1.1,0.5L450.2,334.8z"/>
	<path id="ET" class="st0" d="M581.8,421.5l1.7,1.3l1.6-0.7l0.7,0.6l1.9,0l2.4,1.2l0.7,1l1.2,0.9l1.2,1.7l1,0.9l-1,1.3l-0.9,1.3
		l0.2,0.8l0,0.9l1.6,0l0.7-0.2l0.6,0.5l-0.6,1l1,1.6l1,1.4l1.1,1l9.2,3.3l2.4,0l-7.9,8.4l-3.7,0.1l-2.5,2l-1.8,0.1l-0.8,0.9l-1.9,0
		l-1.1-0.9l-2.6,1.2l-0.8,1.2l-1.9-0.2l-0.6-0.3l-0.7,0.1l-0.9,0l-3.5-2.4h-2l-1-0.9v-1.6l-1.5-0.5l-1.7-3l-1.3-0.7l-0.5-1.1
		l-1.4-1.4l-1.7-0.2l1-1.6l1.5-0.1l0.4-0.9l0-2.5l0.8-3l1.3-0.8l0.3-1.2l1.2-2.2l1.7-1.4l1.1-2.8l0.4-2.5l3.3,0.6L581.8,421.5z"/>
	<path id="FK" class="st0" d="M303.9,633.4l3.4-2.7l2.4,1.1l1.7-1.8l2.2,2l-0.8,1.6L309,635l-1.3-1.6l-2.4,2L303.9,633.4z"/>
	<path id="FI" class="st0" d="M555.7,193.4l-0.4,5.4l4.3,5l-2.6,5.5l3.3,8l-1.9,5.8l2.5,4.9l-1.1,4.1l4.2,4.3l-1.1,3.1l-2.6,3.5
		l-6,7.4l-5.1,0.5l-4.9,2.1l-4.6,1.2l-1.6-3.1l-2.7-1.9l0.6-5.7l-1.4-5.4l1.3-3.6l2.5-3.9l6.4-7l1.9-1.4l-0.3-2.8l-3.9-3.2l-0.9-2.7
		l-0.1-11.1l-4.4-5.2l-3.7-3.8l1.7-2.1l3.1,4.2l3.7-0.4l3,1.9l2.7-3.4l1.4-5.9l4.4-2.8l3.6,3.3L555.7,193.4z"/>
	<path id="FJ" class="st0" d="M980.8,508.9l-0.3,1.4l-0.2,0.2l-1.8,0.7l-1.8,0.6l-0.4-1.1l1.4-0.6l0.9-0.2l1.6-0.9L980.8,508.9z
		 M974.9,513.2l-1.3-0.4l-1.1,1l0.3,1.3l1.5,0.4l1.7-0.4l0.5-1.5l-1-0.8L974.9,513.2z"/>
	<path id="FR" class="st0" d="M502.3,333.8l-0.9,2.9l-1.3-0.8l-0.6-2.5l0.6-1.4l1.8-1.5L502.3,333.8z M485.6,300.4l2,2.1l1.4-0.3
		l2.5,2l0.6,0.4l0.8-0.1l1.3,1.1l4,0.8l-1.4,2.9l-0.4,3l-0.8,0.7l-1.3-0.4l0.1,1l-2.1,2.3l0,1.8l1.3-0.6l1,1.8l-0.1,1.1l0.8,1.5
		l-1,1.2l0.7,3l1.5,0.5l-0.3,1.7l-2.5,2.2l-5.5-1l-4.1,1.2l-0.3,2.3l-3.3,0.5l-3.2-1.7l-1,0.8l-5.2-1.7l-1.1-1.5l1.5-2.3l0.5-7.9
		l-2.9-4.3l-2.1-2.1l-4.3-1.6l-0.3-3.1l3.6-0.9l4.7,1.1l-0.9-4.8l2.6,1.8l6.5-3.4l0.8-3.6l2.5-0.9l0.4,1.6l1.3,0.1L485.6,300.4z"/>
	<path id="GA" class="st0" d="M506.6,474.7l-2.9-2.8l-1.9-2.3l-1.7-2.9l0.1-0.9l0.6-0.9l0.7-2l0.6-2.1l0.9-0.2l4.1,0l0-3.4l1.3-0.2
		l1.7,0.4l1.7-0.4l0.4,0.2l-0.2,1.2l0.8,1.4l2.1-0.2l0.7,0.6l-1.2,3.2l1.3,1.6l0.3,2.2l-0.4,1.9l-0.9,1.3l-2.5-0.1l-1.5-1.3
		l-0.2,1.2l-1.9,0.3l-1,0.7l1.1,1.8L506.6,474.7z"/>
	<path id="GB" class="st0" d="M459.6,281.3l-1.5,3.3l-2.1-1l-1.7,0.1l0.6-2.6l-0.6-2.6l2.4-0.2L459.6,281.3z M467.1,260.5l-3,5.7
		l2.9-0.7l3.1,0l-0.7,4.2l-2.5,4.5l2.9,0.3l0.2,0.5l2.5,5.8l1.9,0.8l1.7,5.4l0.8,1.8l3.4,0.9l-0.3,2.9l-1.4,1.3l1.1,2.3l-2.5,2.3
		l-3.8,0l-4.8,1.2l-1.3-0.9l-1.9,2.1l-2.6-0.5l-2,1.7l-1.5-0.9l4.1-4.6l2.5-1l0,0l-4.4-0.7l-0.8-1.8l2.9-1.4l-1.5-2.5l0.5-3.1
		l4.2,0.4h0l0.4-2.7l-1.9-3l0-0.1l-3.4-0.9l-0.7-1.3l1-2.2l-0.9-1.4l-1.5,2.3l-0.2-4.8l-1.4-2.6l1-5.4l2.2-4.3l2.2,0.4L467.1,260.5z
		"/>
	<path id="GE" class="st0" d="M592,336.1l0.4-1.6l-0.7-2.6l-1.6-1.4l-1.6-0.4l-1-1.2l0.3-0.5l2.4,0.7l4.1,0.6l3.8,1.8l0.5,0.7
		l1.7-0.6l2.6,0.8l0.9,1.5l1.8,0.9l-0.7,0.5l1.4,2l-0.4,0.4l-1.5-0.2l-2.1-1.1l-0.7,0.6l-3.9,0.6l-2.7-1.8L592,336.1z"/>
	<path id="GF" class="st0" d="M328.1,456.7l-1.1,1.1l-1.3,0.2l-0.4-0.8l-0.6-0.1l-0.9,0.8l-1.2-0.6l0.7-1.2l0.2-1.3l0.5-1.2
		l-1.1-1.6l-0.2-1.9l1.5-2.4l1,0.3l2.1,0.7l3,2.4l0.5,1.1l-1.7,2.6L328.1,456.7z"/>
	<path id="GH" class="st0" d="M478.5,447.1l-4.4,1.6l-1.6,1l-2.5,0.8l-2.5-0.8l0.1-1.1l-1.2-2.4l0.7-3.2l1.2-2.4l-0.7-4l-0.4-2.1
		l0.1-1.6l4.9-0.1l1.2,0.2l0.9-0.5l1.3,0.2l-0.2,0.9l1.2,1.5l0,2.1l0.3,2.2l0.7,1l-0.6,2.5l0.2,1.4l0.7,1.8L478.5,447.1z"/>
	<path id="GL" class="st0" d="M344.4,24.2l9.4-13.6l9.8,1.1l3.6-9l9.9-2.4l22.4,3.1L417.1,22l-5.2,8.3l-10.7,0.9l-15.1,2l1.4,3.6
		l9.9-2.2l8.4,6.9l5.4-6.1l2.3,7.2l-3.1,11l7.1-6.9l13.6-7.5l8.4,3.8l1.6,8.1l-11.4,12.7l-1.6,3.9l-9,2.9l6.5,0.8l-3.3,11.5
		l-2.3,9.6l0.1,15.3l3.4,8.3l-4.4,0.5l-4.6,3.9l5.2,6.3l0.7,9.6l-3,1l3.6,9.2l-6.2,0.7l3.3,4.1l-0.9,3.5l-4,1.5l-3.9,0l3.5,6.5
		l0,4.1l-5.5-3.8l-1.4,2.5l3.8,2.3l3.7,5.5l1.1,7l-5,1.6l-2.2-3.3l-3.5-5l1,5.9l-3.3,4.4l7.4,0.4l3.9,0.5l-7.5,7l-7.6,6.1l-8.2,2.6
		l-3.1,0l-2.9,2.9l-3.9,7.6l-6,4.9l-1.9,0.3l-3.7,1.7l-4,1.6l-2.4,4.1l0,4.6l-1.4,4.2l-4.6,4.9l1.1,4.7l-1.3,4.8l-1.4,5.6l-4,0.3
		l-4.1-4.6l-5.6,0l-2.7-3.2l-1.9-5.8l-4.9-7.7l-1.4-4.2l-0.4-5.9l-3.9-6.3l1-5.2l-1.9-2.5l2.8-8.7l4.2-2.8l1.1-3.3l0.6-6.3l-3.2,2.9
		l-1.5,1.2l-2.5,1.1l-3.4-2.6l-0.2-5.6l1.1-4.5l2.6-0.1l5.7,2.3l-4.8-5.4l-2.5-3l-2.8,1.2l-2.3-2.2l3.1-8.5l-1.7-3.5l-2.2-6.7
		l-3.4-10.9l-3.6-4.2l0-4.6l-7.5-6.7l-6-0.9l-7.5,0.5l-6.8,0.9l-3.3-3.7l-4.9-7.7l7.4-4l5.6-0.7l-12-3.4l-6.3-5.4l0.4-5.3L281,90
		l10.3-7.2l1.1-5.6l-7.6-5.8l2.4-6.6l9.7-12.3l4.1-2l-1.2-8.6l6.6-5.2l8.6-3.2l8.6-0.2l3.1,6.3l7.4-11.3l6.7,7.8l3.9,1.6l5.8,6.4
		L344,33.3L344.4,24.2z"/>
	<path id="GM" class="st0" d="M428.3,426.7l0.4-1.3l3.1-0.1l0.6-0.7l0.9,0l1.1,0.7l0.9,0l0.9-0.5l0.6,0.8l-1.2,0.6l-1.2-0.1
		l-1.2-0.6l-1,0.7l-0.5,0l-0.7,0.4L428.3,426.7z"/>
	<path id="GN" class="st0" d="M451.8,442.2l-0.8-0.1l-0.6,1.1l-0.8,0l-0.5-0.6l0.2-1.1l-1.2-1.7l-0.7,0.3l-0.6,0.1l-0.8,0.2l0-1
		l-0.5-0.7l0.1-0.8l-0.6-1.2l-0.8-1l-2.2,0l-0.7,0.5l-0.8,0.1l-0.5,0.6l-0.3,0.8l-1.5,1.2l-1.2-1.7L436,436l-0.7-0.4l-0.7-0.6
		l-0.3-1.3l-0.4-0.6l-0.8-0.5l1.2-1.4l0.9,0.1l0.7-0.5l0.6,0l0.4-0.4l-0.2-0.9l0.3-0.3l0.1-1l1.4,0l2,0.7l0.6-0.1l0.2-0.3l1.5,0.2
		l0.4-0.2l0.2,1l0.4,0l0.7-0.4l0.5,0.1l0.8,0.7l1.2,0.2l0.8-0.6l0.9-0.4l0.7-0.4l0.6,0.1l0.6,0.6l0.3,0.8l1.1,1.2l-0.6,0.7l-0.1,0.9
		l0.6-0.3l0.4,0.3l-0.1,0.8l0.9,0.8l-0.6,0.2l-0.2,1l0.6,1.2l0.7,2.3l-1,0.3l-0.3,0.4l0.2,0.5l-0.2,1.2L451.8,442.2z"/>
	<path id="GQ" class="st0" d="M502.1,460.8l-0.5-0.4l1-3.1l4.6,0.1l0,3.4l-4.1,0L502.1,460.8z"/>
	<path id="GR" class="st0" d="M542,357l1.5,1.2l2.2-0.2l2.1,0.2l-0.1,0.6l1.5-0.4l-0.4,1l-4,0.3l0-0.6l-3.4-0.7L542,357z M550.1,336
		l-0.9,2.3l-0.7,0.4l-1.7-0.1l-1.5-0.4l-3.4,1l1.9,2.1l-1.4,0.6l-1.6,0l-1.5-1.9l-0.5,0.8l0.6,2.2l1.4,1.7l-1.1,0.8l1.6,1.6l1.4,1
		l0,2l-1.4-1.1l-1.2,0.2l0.8,1.8l-0.9,0.2l-1-0.7l1.2,4l-0.6,0l-0.4-1.3l-0.6,0l-0.3,1.3l-0.5-0.3l0.1-0.7l-0.6-1H537l0.1,0.8
		l-0.3,0.3l-0.6-0.5l-0.4-1l0.5-0.6l-0.4-0.7l-0.4-0.4l-0.4-0.1l-0.5-0.9l0.6-0.5l0.4-0.5l0.6,0.1l0.3-0.4l0.6-0.2l0.7,0.5l0.6,0.2
		l0.4-0.6l-0.9-0.1l-0.6-0.2l-1.3,0.3l-1.2,0l-1.1-1.6l-0.2-0.3l0.2-0.6l-1.4-1.2l-0.2-1l1.3-1.8l0.2-1.2l0.9-0.5l0.1-1l1.8-0.3
		l1.1-0.8l1.5,0.1l0.5-0.6l0.5-0.1l2.1,0.1l2.2-1l2,1.3l2.5-0.4l0-1.9L550.1,336z"/>
	<path id="GT" class="st0" d="M222.9,425l-1.4-0.5l-1.7-0.1l-1.3-0.6l-1.5-1.2l0.1-0.8l0.3-0.7l-0.4-0.5l1.3-2.4l3.6,0l0.1-1
		l-0.5-0.2l-0.3-0.6l-1-0.7l-1-1l1.3,0l0-1.6l2.6,0l2.6,0l0,2.3l-0.2,3.3l0.8,0l0.9,0.5l0.2-0.4l0.8,0.4l-1.3,1.1l-1.3,0.8l-0.2,0.6
		l0.2,0.6L225,423l-0.7,0.2l0.1,0.3l-0.5,0.3l-1,0.7L222.9,425z"/>
	<path id="GW" class="st0" d="M433.1,432.7l-1.5-1.2l-1.2-0.2l-0.6-0.8l0-0.4l-0.9-0.6l-0.2-0.6l1.5-0.5l0.9,0.1l0.8-0.3l5.2,0.1
		l-0.1,1l-0.3,0.3l0.2,0.9l-0.4,0.4l-0.6,0l-0.7,0.5l-0.9-0.1L433.1,432.7z"/>
	<path id="GY" class="st0" d="M308,440.3l1.8,1l1.7,1.8l0.1,1.4l1.1,0.1l1.5,1.4l1.1,1l-0.4,2.5l-1.7,0.7l0.2,0.7l-0.5,1.4l1.2,2
		l0.9,0l0.4,1.6l1.7,2.4l-0.7,0.1l-1.5-0.2l-0.9,0.7l-1.3,0.5l-0.9,0.1l-0.3,0.5L310,460l-1.7-1.3l-0.2-1.3l-0.7-1.4l0.4-2.4l0.8-1
		l-0.6-1.3l-1-0.4l0.4-1.2l-0.7-0.6l-1.5,0.1l-1.9-2.1l0.8-0.8l-0.1-1.3l1.7-0.4l0.7-0.5l-1-1l0.2-1L308,440.3z"/>
	<path id="HN" class="st0" d="M230.7,427.2l-0.5-0.9l-0.9-0.2l0.2-1.1l-0.4-0.3l-0.6-0.2l-1.2,0.3l-0.1-0.4l-0.8-0.5l-0.6-0.6
		L225,423l0.6-0.7l-0.2-0.6l0.2-0.6l1.3-0.8l1.3-1.1l0.3,0.1l0.6-0.5l0.8,0l0.3,0.2l0.4-0.1l1.3,0.3l1.3-0.1l0.9-0.3l0.3-0.3
		l0.9,0.1l0.7,0.2l0.7-0.1l0.6-0.3l1.3,0.4l0.4,0.1l0.9,0.5l0.8,0.6l1,0.4l0.7,0.8l-1-0.1l-0.4,0.4l-1,0.4l-0.7,0l-0.6,0.4l-0.6-0.1
		l-0.5-0.4l-0.3,0.1l-0.4,0.7l-0.3,0l0,0.6l-1,0.8l-0.5,0.3l-0.3,0.4l-0.8-0.6l-0.6,0.8l-0.6,0l-0.7,0.1l0.1,1.4l-0.4,0l-0.4,0.7
		L230.7,427.2z"/>
	<path id="HR" class="st0" d="M528.3,319.2l0.7,1.6l0.9,1.1l-1.1,1.5l-1.3-0.9l-1.9,0.1l-2.4-0.7l-1.3,0.1l-0.6,0.8l-1-0.9l-0.6,1.6
		l1.4,1.8l0.6,1.2l1.3,1.4l1.1,0.9l1.1,1.6l2.5,1.4l-0.3,0.6l-2.6-1.4l-1.6-1.4l-2.6-1.1l-2.4-2.9l0.6-0.3l-1.3-1.6l-0.1-1.3
		l-1.8-0.6l-0.9,1.7l-0.8-1.3l0.1-1.4l0.1-0.1l2,0.1l0.5-0.7l1,0.7l1.1,0.1l0-1.1l1-0.4l0.3-1.6l2.2-1.1l0.9,0.5l2.1,1.7l2.3,0.8
		L528.3,319.2z"/>
	<path id="HT" class="st0" d="M270.3,407l1.7,0.1l2.4,0.5l0.2,1.6l-0.2,1.1l-0.7,0.5l0.7,0.9l-0.1,0.8l-1.9-0.5l-1.3,0.2l-1.7-0.2
		l-1.3,0.5l-1.5-0.9l0.2-0.9l2.6,0.4l2.1,0.2l1-0.7l-1.3-1.3l0-1.1l-1.8-0.5L270.3,407z"/>
	<path id="HU" class="st0" d="M520.9,315.4l0.9-2.6l-0.5-0.9l1.6,0l0.2-1.7l1.4,1.1l1,0.5l2.4-0.5l0.2-0.8l1.1-0.1l1.4-0.7l0.3,0.3
		l1.3-0.5l0.7-1l0.9-0.3l3,1.3l0.6-0.4l1.6,1.1l0.2,1.1l-1.7,0.9l-1.3,2.8l-1.7,2.8l-2.2,0.8l-1.8-0.2l-2.1,1.1l-1,0.6l-2.3-0.8
		l-2.1-1.7l-0.9-0.5l-0.5-1.4L520.9,315.4z"/>
	<path id="ID" class="st0" d="M814,492.3l-1.2,0.1l-3.7-2l2.6-0.6l1.5,0.9l1,0.9L814,492.3z M824.4,492l-2.4,0.6l-0.3-0.3l0.3-1
		l1.2-1.7l2.8-1.1l0.3,0.6l0.1,0.9L824.4,492z M806.1,486.3l1,0.8l1.7-0.2l0.7,1.2l-3.2,0.6l-1.9,0.4l-1.5,0l1-1.6l1.5,0
		L806.1,486.3z M820.1,486.3l-0.4,1.6l-4.2,0.8l-3.7-0.3l0-1l2.2-0.6l1.8,0.8l1.9-0.2L820.1,486.3z M780.1,482.6l5.4,0.3l0.6-1.2
		l5.2,1.3l1,1.8l4.2,0.5l3.4,1.7l-3.2,1.1l-3.1-1.1l-2.5,0.1l-2.9-0.2l-2.6-0.5l-3.2-1.1l-2.1-0.3l-1.2,0.4l-5.1-1.2l-0.5-1.2
		l-2.6-0.2l1.9-2.7l3.4,0.2l2.3,1.1l1.2,0.2L780.1,482.6z M853.3,481l-1.4,1.9l-0.3-2.1l0.5-1l0.6-0.9l0.6,0.8L853.3,481z
		 M832.3,473.3l-1,0.9l-1.9-0.5l-0.5-1.2l2.8-0.1L832.3,473.3z M841.3,472.3l1,2.1l-2.4-1.1l-2.3-0.2l-1.6,0.2l-1.9-0.1l0.7-1.5
		l3.5-0.1L841.3,472.3z M851.6,466.8l0.8,4.5l2.9,1.7l2.3-3l3.2-1.7l2.5,0l2.4,1l2.1,1l3,0.5l0,9.1l0,9.2l-2.5-2.3l-2.8-0.6
		l-0.7,0.8l-3.6,0.1l1.2-2.3l1.8-0.8l-0.7-3l-1.3-2.4l-5.4-2.4l-2.3-0.2l-4.2-2.6l-0.8,1.4l-1.1,0.2l-0.6-1l0-1.2l-2.1-1.4l3-1
		l2,0.1l-0.2-0.7l-4.1,0l-1.1-1.7l-2.5-0.5l-1.2-1.4l3.8-0.7l1.4-0.9l4.5,1.1L851.6,466.8z M826.7,459.7l-2.3,2.8l-2.1,0.5l-2.7-0.5
		l-4.7,0.1l-2.4,0.4l-0.4,2.1l2.5,2.5l1.5-1.3l5.2-0.9l-0.2,1.3l-1.2-0.4l-1.2,1.6l-2.5,1.1l2.7,3.6l-0.5,1l2.5,3.2l0,1.8l-1.5,0.8
		l-1.1-1l1.4-2.3l-2.8,1.1l-0.7-0.8l0.4-1.1l-2-1.6l0.2-2.7l-1.9,0.8l0.2,3.3l0.1,4l-1.8,0.4l-1.2-0.8l0.8-2.6l-0.4-2.7l-1.2,0
		l-0.9-1.9l1.2-1.8l0.4-2.2l1.4-4.2l0.6-1.1l2.4-2.1l2.2,0.8l3.5,0.4l3.2-0.1l2.8-2L826.7,459.7z M836.3,460.5l-0.1,2.4l-1.4-0.3
		l-0.4,1.7l1.2,1.5l-0.8,0.3l-1.1-1.8l-0.8-3.6l0.6-2.2l0.9-1l0.2,1.5l1.7,0.2L836.3,460.5z M806,458.5l3.1,2.6l-3.3,0.3l-0.9,1.9
		l0.1,2.5l-2.7,1.9l-0.1,2.8l-1.1,4.3l-0.4-1l-3.2,1.3l-1.1-1.7l-2-0.2l-1.4-0.9l-3.3,1l-1-1.4l-1.8,0.2l-2.3-0.3l-0.4-3.7l-1.4-0.8
		l-1.3-2.4l-0.4-2.4l0.3-2.6l1.7-1.9l0.5,1.9l1.9,1.6l1.8-0.6l1.8,0.2l1.6-1.4l1.3-0.2l2.7,0.8l2.3-0.6l1.4-3.9l1.1-1l1-3.2l3.2,0
		l2.4,0.5l-1.6,2.5l2.1,2.6L806,458.5z M772.2,480l-3.1,0.1l-2.4-2.3l-3.6-2.3l-1.2-1.7l-2.1-2.3l-1.4-2.1l-2.1-3.9l-2.5-2.3
		l-0.8-2.4l-1-2.2l-2.5-1.8l-1.5-2.4l-2.1-1.6l-2.9-3.1l-0.2-1.4l1.8,0.1l4.3,0.5l2.5,2.7l2.2,1.9l1.5,1.2l2.7,3l2.9,0l2.4,1.9
		l1.6,2.3l2.1,1.3l-1.1,2.3l1.6,1l1,0.1l0.5,1.9l1,1.6l2.1,0.2l1.4,1.8l-0.7,3.5L772.2,480z"/>
	<path id="IE" class="st0" d="M458.1,284.5l0.5,3.4l-2.1,4.1l-5,2.7l-4-0.7l2.3-4.8l-1.5-4.8l3.8-3.8l2.1-2.3l0.6,2.6l-0.6,2.6
		l1.7-0.1L458.1,284.5z"/>
	<path id="IL" class="st0" d="M575.7,367.1l-0.5,1l-1-0.5l-0.6,2.2l0.7,0.4l-0.7,0.5l-0.1,0.9l1.3-0.4l0.1,1.3l-1.4,5.2l-1.8-5.6
		l0.8-1.1l-0.2-0.2l0.7-1.5l0.6-2.5l0.4-0.8l0.1,0l0.9,0l0.3-0.6l0.8,0l0,1.4L575.7,367.1L575.7,367.1z"/>
	<path id="IN" class="st0" d="M693.7,357.7l3,4l-0.3,2.7l1.1,1.7l-0.1,1.7l-2-0.4l0.8,3.6l2.8,2.1l3.9,2.3l-1.8,1.5l-1.1,3l2.7,1.2
		l2.6,1.6l3.7,1.8l3.8,0.4l1.6,1.6l2.2,0.3l3.4,0.7l2.3-0.1l0.3-1.2l-0.4-2l0.2-1.4l1.7-0.7l0.2,2.5l0.1,0.6l2.5,1.2l1.8-0.5
		l2.4,0.2l2.3-0.1l0.2-1.9l-1.1-1l2.3-0.4l2.6-2.4l3.2-2l2.4,0.8l2-1.3l1.3,2l-0.9,1.3l3,0.5l0.2,1.2l-1,0.6l0.2,1.9l-2-0.6
		l-3.6,2.2l0.1,1.8l-1.5,2.6l-0.1,1.5l-1.3,2.5l-2.2-0.7l-0.1,3.1l-0.6,1l0.3,1.3l-1.4,0.7l-1.5-4.8l-0.8,0l-0.5,1.9l-1.5-1.6
		l0.9-1.7l1.3-0.2l1.3-2.6l-1.6-0.5l-2.6,0l-2.7-0.4l-0.2-2.1l-1.3-0.2l-2.2-1.3l-1,2.1l2,1.6l-1.8,1.1l-0.6,1.1l1.7,0.8l-0.5,1.8
		l1,2.3l0.4,2.5l-0.4,1.1l-1.9,0l-3.5,0.6l0.2,2.2l-1.5,1.8l-4,2l-3.1,3.5l-2.1,1.8l-2.8,1.9l0,1.3l-1.4,0.7l-2.5,1l-1.3,0.2
		l-0.8,2.2l0.6,3.7l0.1,2.4l-1.2,2.7l0,4.8l-1.5,0.1l-1.3,2.2l0.9,0.9l-2.6,0.8l-0.9,1.9l-1.1,0.8l-2.7-2.6l-1.3-4l-1.1-2.9l-1-1.3
		l-1.5-2.7l-0.7-3.6l-0.5-1.8l-2.5-4l-1.2-5.6l-0.8-3.8l0-3.6l-0.5-2.8l-4.1,1.8l-2-0.4l-3.7-3.6l1.3-1.1l-0.8-1.2l-3.3-2.6l1.9-2
		l6.2,0l-0.6-2.6l-1.6-1.6l-0.3-2.4l-1.8-1.4l3.1-3.3l3.3,0.2l2.9-3.3l1.8-3.3l2.7-3.2l0-2.3l2.4-1.9l-2.3-1.6l-1-2.3l-1-2.9
		l1.4-1.5l4.3,0.8l3.1-0.5L693.7,357.7z"/>
	<path id="IQ" class="st0" d="M602.9,356l1.8,1l0.2,2l-1.4,1.2l-0.7,2.6l1.9,3.2l3.4,1.8l1.4,2.5l-0.5,2.4l0.9,0l0,1.7l1.6,1.7
		L610,376l-1.9-0.3l-2.1,3.1l-5.2-0.3l-7.9-6.5l-4.2-2.3l-3.4-0.9l-1.1-4l6.2-3.5l1.1-4.1l-0.3-2.5l1.5-0.9l1.4-2.2l1.2-0.5l3.3,0.5
		l1,0.9l1.3-0.6L602.9,356z"/>
	<path id="IR" class="st0" d="M626.7,351.8l2.5-0.7l2-2l1.9,0.1l1.2-0.7l2,0.3l3.1,1.8l2.2,0.4l3.2,3.1l2.1,0.1l0.2,2.9l-1.1,4.2
		l-0.8,2.5l1.2,0.5l-1.2,1.8l0.9,2.6l0.2,2.1l2.1,0.6l0.2,2.1l-2.5,2.9l1.4,1.7l1.1,1.9l2.7,1.4l0.1,2.8l1.3,0.5l0.2,1.4l-4,1.6
		l-1.1,3.6l-5.3-0.9l-3.1-0.7l-3.2-0.4l-1.2-3.8l-1.3-0.6l-2.2,0.6l-2.8,1.5l-3.4-1l-2.8-2.4l-2.7-0.9l-1.9-3l-2.1-4.3l-1.5,0.5
		l-1.8-1.1l-1,1.3l-1.6-1.7l0-1.7l-0.9,0l0.5-2.4l-1.4-2.5l-3.4-1.8l-1.9-3.2l0.7-2.6l1.4-1.2l-0.2-2l-1.8-1l-1.8-4.1l-1.5-2.8
		l0.5-1.1l-0.9-4.1l1.9-1l0.4,1.4l1.4,1.7l1.9,0.5l1-0.1l3.3-2.7l1.1-0.3l0.8,1.1l-1,1.8l1.7,1.9l0.7-0.2l0.9,2.6l2.7,0.7l1.9,1.8
		l4,0.6l4.4-0.9L626.7,351.8z"/>
	<path id="IS" class="st0" d="M434.8,212.7l-0.6,4.5l3.2,4.6l-3.6,5l-8.1,4.4l-2.4,1.1l-3.7-0.9l-7.8-2l2.8-2.8l-6.1-3.2l5-1.3
		l-0.1-2l-5.9-1.6l1.9-4.5l4.3-1l4.4,4.7l4.3-3.8l3.5,2l4.6-3.7L434.8,212.7z"/>
	<path id="IT" class="st0" d="M519,348.1l-1,2.8l0.4,1.1l-0.6,1.8l-2.1-1.3l-1.4-0.4l-3.9-1.8l0.4-1.8l3.3,0.3l2.9-0.4L519,348.1z
		 M501.3,337.3l1.7,2.6l-0.4,4.8l-1.3-0.2l-1.1,1.2l-1.1-1l-0.1-4.4l-0.6-2.1l1.5,0.2L501.3,337.3z M510.2,315.7l4,1.1l-0.3,2
		l0.7,1.7l-2.2-0.6l-2.3,1.4l0.2,2l-0.3,1.1l0.9,2l2.6,2l1.4,3.2l3.1,3l2.2,0l0.7,0.8l-0.8,0.7l2.5,1.3l2.1,1.1l2.4,1.9l0.3,0.7
		l-0.5,1.3l-1.6-1.7l-2.4-0.6l-1.2,2.4l2,1.3l-0.3,1.9l-1.2,0.2l-1.5,3.1l-1.2,0.3l0-1.1l0.6-1.9l0.6-0.8l-1.1-2.1l-0.9-1.8
		l-1.2-0.5l-0.8-1.6l-1.8-0.7l-1.2-1.5l-2.1-0.2l-2.2-1.7l-2.6-2.4l-1.9-2.2l-0.9-3.8l-1.4-0.5l-2.3-1.3l-1.3,0.5l-1.6,1.8l-1.2,0.3
		l0.3-1.7l-1.5-0.5l-0.7-3l1-1.2l-0.8-1.5l0.1-1.1l1.2,0.9l1.4-0.2l1.6-1.4l0.5,0.6l1.3-0.1l0.6-1.6l2.1,0.5l1.2-0.7l0.2-1.7
		l1.7,0.6l0.3-0.8l2.8-0.7L510.2,315.7z"/>
	<path id="JM" class="st0" d="M258,411.2l1.9,0.3l1.5,0.7l0.5,0.8l-2,0.1l-0.9,0.5l-1.6-0.5l-1.6-1.1l0.3-0.7l1.2-0.2L258,411.2z"/>
	<path id="JO" class="st0" d="M575.2,368.1l0.5-1l3.1,1.3l5.5-3.5l1.1,4l-0.5,0.5l-5.6,1.6l2.8,3.3l-0.9,0.5l-0.5,1.1l-2.1,0.4
		l-0.7,1.2l-1.2,1l-3.1-0.5l-0.1-0.5l1.4-5.2l-0.1-1.3l0.4-1L575.2,368.1z"/>
	<path id="JP" class="st0" d="M853,362.3l0.4,1.2l-1.6,2l-1.2-1.1l-1.4,0.8l-0.7,1.9l-1.8-0.9l0-1.6l1.6-2l1.6,0.4l1.2-1.4
		L853,362.3z M870.8,352l-1.1,2.8l0.5,1.7l-1.5,2.4l-3.6,1.6l-4.9,0.2l-4,3.8l-1.9-1.3l-0.1-2.5l-4.9,0.7l-3.3,1.6l-3.3,0.1l2.8,2.5
		l-1.9,5.6l-1.8,1.4l-1.4-1.3l0.7-3l-1.8-1l-1.1-2.3l2.7-1l1.5-2.1l2.8-1.8l2.1-2.3l5.6-1l3,0.7l2.9-6.2l1.9,1.7l4.1-3.5l1.6-1.4
		l1.8-4.4l-0.5-4.1l1.2-2.3l3-0.7l1.5,5.1l-0.1,2.9l-2.6,3.6L870.8,352z M879,326l2,0.8l2-1.7l0.6,4.3l-4.2,1l-2.5,3.8l-4.4-2.6
		l-1.5,4.1l-3.1,0.1l-0.4-3.7l1.4-2.9l3-0.2l0.8-5.4l0.8-3.1l3.3,4.1L879,326z"/>
	<path id="KE" class="st0" d="M590.4,466l1.7,2.3l-2,1.1l-0.7,1.2l-1,0.2l-0.4,2l-0.9,1.1l-0.5,1.9l-1.1,0.9l-4-2.8l-0.2-1.6
		l-10.2-5.7l-0.5-0.3l0-3l0.8-1.1l1.4-1.8l1-2l-1.2-3.2l-0.3-1.4l-1.3-1.9l1.7-1.7l1.9-1.8l1.5,0.5v1.6l1,0.9h2l3.5,2.4l0.9,0
		l0.7-0.1l0.6,0.3l1.9,0.2l0.8-1.2l2.6-1.2l1.1,0.9l1.9,0l-2.4,3.2L590.4,466z"/>
	<path id="KG" class="st0" d="M674.5,333.4l0.6-1.7l1.8-0.5l4.6,1.3l0.4-2.2l1.6-0.8l4,1.6l1-0.4l4.6,0.1l4.2,0.4l1.4,1.4l1.7,0.6
		l-0.4,0.9l-4.4,2l-1,1.5l-3.6,0.4l-1.1,2.4l-3-0.5l-1.9,0.7l-2.7,1.7l0.4,0.8l-0.8,0.8l-5.3,0.5l-3.5-1.2l-3,0.3l0.3-2.1l3.1,0.6
		l1-1.1l2.1,0.4l3.6-2.6l-3.3-2l-2,0.9l-2.1-1.4l2.4-2.4L674.5,333.4z"/>
	<path id="KH" class="st0" d="M765.7,433.9l-1.1-1.5l-1.4-2.9l-0.7-3.5l1.8-2.4l3.6-0.5l2.6,0.4l2.3,1.1l1.3-2l2.5,1.1l0.6,1.9
		l-0.3,3.4l-4.7,2.2l1.2,1.7l-2.9,0.2l-2.4,1.1L765.7,433.9z"/>
	<path id="KP" class="st0" d="M841.8,332.9l0.4,0.7l-1.1-0.2l-1.2,1.3l-0.8,1.3l0.1,2.7l-1.4,0.8l-0.5,0.6l-1.1,1.1l-1.9,0.6l-1.2,1
		l-0.1,1.6l-0.3,0.4l1.1,0.6l1.6,1.6l-0.4,0.9l-1.2,0.2l-2,0.2l-1.1,1.6l-1.3-0.1l-0.2,0.3l-1.4-0.7l-0.3,0.7l-0.8,0.3l-0.1-0.7
		l-0.7-0.3l-0.8-0.6l0.8-1.6l0.7-0.4l-0.2-0.7l0.7-1.9l-0.2-0.6l-1.6-0.4l-1.3-1l2.3-2.3l3.1-2l1.9-2.6l1.3,1.2l2.4,0.1l-0.4-2
		l4.3-1.6l1.1-2.1L841.8,332.9z"/>
	<path id="KR" class="st0" d="M835.4,346.8l2.4,4.2l0.7,2.3l0,4l-1.1,1.9l-2.5,0.7l-2.2,1.4l-2.5,0.3l-0.3-1.8l0.5-2.6l-1.2-3.6
		l2.1-0.6l-1.9-3l0.2-0.3l1.3,0.1l1.1-1.6l2-0.2l1.2-0.2L835.4,346.8z"/>
	<path id="XK" class="st0" d="M533.7,334.2l-0.1,0.8l-0.4,0l-0.2-1.4l-0.7-0.4l-0.6-1l0.5-0.9l0.7-0.3l0.4-1.3l0.5-0.2l0.4,0.5
		l0.5,0.2l0.4,0.6l0.5,0.2l0.5,0.7l0.4,0l-0.3,0.9l-0.3,0.5l0.1,0.3l-0.6,0.1L533.7,334.2z"/>
	<path id="KW" class="st0" d="M610,376l0.6,1.4l-0.3,0.7l0.9,2.4l-2,0.1l-0.7-1.5l-2.5-0.3l2.1-3.1L610,376z"/>
	<path id="KZ" class="st0" d="M674.5,333.4l-1.6,0.7l-3.7,2.6l-1.2,2.6l-1,0l-0.8-1.8l-3.6-0.1l-0.6-3.1l-1.4,0l0.2-3.8l-3.4-2.8
		l-4.8,0.3l-3.3,0.6l-2.7-3.5l-2.3-1.5l-4.3-2.8l-0.5-0.3l-7.2,2.3l0.1,14.1l-1.4,0.2l-2-2.9l-1.9-1.1l-3.2,0.8l-1.2,1.3l-0.2-0.9
		l0.7-1.6l-0.5-1.3l-3.2-1.3l-1.3-3.5l-1.5-1l-0.1-1.3l2.7,0.4l0.1-2.9l2.4-0.6l2.5,0.6l0.5-3.9l-0.5-2.5l-2.8,0.2l-2.4-1l-3.2,1.8
		l-2.6,0.9l-1.4-0.7l0.3-2.1l-1.8-2.8l-2.1,0.1l-2.4-2.8l1.6-3.2l-0.8-0.9l2.2-4.8l2.9,2.5l0.3-3.2l5.8-4.8l4.4-0.1l6.2,3.1l3.3,1.8
		l3-1.9l4.4-0.1l3.6,2.3l0.8-1.3l3.9,0.2l0.7-2.1l-4.5-3.1l2.7-2.2l-0.5-1.3l2.7-1.2l-2-3.2l1.3-1.6l10.5-1.7l1.4-1.2l7-1.8l2.5-2
		l5,1.1l0.9,5l2.9-1.2l3.6,1.6l-0.2,2.6l2.7-0.3l7-4.5l-1,1.5l3.6,3.7l6.3,11.6l1.5-2.3l3.9,2.6l4-1.1l1.5,0.8l1.3,2.5l2,0.8
		l1.2,1.8l3.6-0.6l1.5,2.6l-2.1,2.8l-2.3,0.4l-0.1,4.2l-1.6,1.9l-5.6-1.4l-2,7.3l-1.4,0.9l-5.6,1.6l2.5,6.8l-1.9,1l0.2,2.2l-1.7-0.6
		l-1.4-1.4l-4.2-0.4l-4.6-0.1l-1,0.4l-4-1.6l-1.6,0.8l-0.4,2.2l-4.6-1.3l-1.8,0.5L674.5,333.4z"/>
	<path id="LA" class="st0" d="M770.5,423.5l0.9-1.3l0.1-2.4l-2.3-2.5l-0.2-2.9l-2.1-2.4l-2.1-0.2l-0.6,1l-1.6,0.1l-0.8-0.5l-3,1.7
		l-0.1-2.6l0.7-3.1l-1.9-0.1l-0.2-1.8l-1.2-0.9l0.6-1.1l2.4-1.9l0.3,0.7l1.5,0.1l-0.4-3.4l1.5-0.4l1.6,2.4l1.3,2.7l3.5,0l1.1,2.6
		l-1.8,0.8l-0.8,1.1l3.4,1.8l2.3,3.5l1.8,2.6l2.1,2l0.7,2l-0.5,2.9l-2.5-1.1l-1.3,2L770.5,423.5z"/>
	<path id="LB" class="st0" d="M575.9,365.2l-0.8,0l-0.3,0.6l-0.9,0l1-2.7l1.4-2.4l0.1-0.1l1.3,0.2l0.5,1.3l-1.5,1.3L575.9,365.2z"/>
	<path id="LK" class="st0" d="M704.8,442.6l-0.4,2.9l-1.2,0.8l-2.4,0.6l-1.3-2.2l-0.5-4l1.3-4.6l1.9,1.6l1.3,2L704.8,442.6z"/>
	<path id="LR" class="st0" d="M453.9,451.5l-0.7,0l-2.9-1.3l-2.5-2.1l-2.4-1.5l-1.9-1.8l0.7-0.9l0.1-0.8l1.3-1.5l1.3-1.3l0.6-0.1
		l0.7-0.3l1.2,1.7l-0.2,1.1l0.5,0.6l0.8,0l0.6-1.1l0.8,0.1l-0.1,0.8l0.3,1.4l-0.6,1.2l0.8,0.8l0.9,0.2l1.2,1.2l0.1,1.1l-0.3,0.4
		L453.9,451.5z"/>
	<path id="LS" class="st0" d="M556.8,548l1,1l-0.9,1.6l-0.5,1l-1.6,0.5l-0.5,1l-1,0.3l-2.1-2.5l1.5-2l1.5-1.2l1.3-0.6L556.8,548z"/>
	<path id="LT" class="st0" d="M539.2,282.3l-0.2-1.2l0.3-1.3l-1.2-0.8l-2.9-0.9l-0.6-4.2l3.2-1.5l4.7,0.3l2.8-0.5l0.4,1l1.5,0.3
		l2.7,2.4l0.3,2.2l-2.3,1.6l-0.7,2.7l-3,1.8l-2.7,0l-0.7-1.5L539.2,282.3z"/>
	<path id="LU" class="st0" d="M492.4,301.5l0.6,1l-0.2,1.9l-0.8,0.1l-0.6-0.4l0.3-2.4L492.4,301.5z"/>
	<path id="LV" class="st0" d="M534.5,274l0.1-3.8l1.4-3.2l2.6-1.8l2.2,3.9l2.3-0.1l0.5-4l2.4-0.9l1.2,0.6l2.4,1.9l2.3,0l1.4,1.2
		l0.2,2.5l0.9,3l-3,1.9l-1.7,0.8l-2.7-2.4l-1.5-0.3l-0.4-1l-2.8,0.5l-4.7-0.3L534.5,274z"/>
	<path id="LY" class="st0" d="M517.1,398.2l-2,1.1l-1.6-1.7l-4.4-1.3l-1.2-1.9l-2.2-1.4l-1.3,0.6l-1-1.7l-0.1-1.3l-1.7-2.3l1.1-1.3
		l-0.2-2l0.4-1.7l-0.2-1.4l0.5-2.6l-0.2-1.5l-0.9-2.8l1.4-0.8l0.2-1.4l-0.3-1.4l1.9-1.3l0.9-1.1l1.4-0.9l0.2-2.5l3.3,1.1l1.2-0.3
		l2.3,0.6l3.7,1.5l1.3,2.9l2.5,0.6l4,1.4l3,1.6l1.4-0.8l1.3-1.5l-0.7-2.5l0.9-1.6l2-1.5l1.9-0.5l3.8,0.7l1,1.5l1,0l0.9,0.6l2.8,0.4
		l0.7,1.1l-1,1.6l0.4,1.4l-0.7,2l0.8,2.6v11.2v11.2v6l-3.2,0l0,1.2l-11.2-5.7l-11.2-5.8L517.1,398.2z"/>
	<path id="MA" class="st0" d="M471.6,366.6l-1-3.5l-0.2-2.1l-1.1-2.2l-1.2,0l-2.9-0.8l-2.7,0.2l-1.7-1.5l-2.1,0l-0.9,2.1l-1.9,3.5
		l-2.1,1.4l-2.8,1.5l-1.8,2.2l-0.4,1.7l-1.1,2.8l0.7,4l-2.3,2.7l-1.4,0.9l-2.2,2.2l-2.6,0.4l-1.4,1.2l0,0l12.5,0v0l0-3.8l4.5-2.4
		l2.8-0.5l2.3-0.9l1.1-1.6l3.3-1.3l0.1-2.4l1.6-0.3l1.3-1.2l3.7-0.6l0.5-1.3L471.6,366.6z"/>
	<path id="MD" class="st0" d="M550.1,309.7l0.7-0.6l1.9-0.4l2.1,1.3l1.2,0.2l1.3,1.1l-0.2,1.4l1,0.7l0.4,1.7l1,1l-0.2,0.6l0.5,0.4
		l-0.7,0.3l-1.7-0.1l-0.3-0.6l-0.6,0.3l0.2,0.7l-0.8,1.3l-0.5,1.4l-0.7,0.4l-0.5-1.8l0.3-1.7l-0.1-1.8l-1.6-2.4l-0.9-1.7l-0.9-1.2
		L550.1,309.7z"/>
	<path id="ME" class="st0" d="M531,332.5l-0.2-0.7l-1.2,1.9l0.2,1.2l-0.6-0.3l-0.8-1.2l-1.2-0.8l0.3-0.6l0.4-2.1l0.9-0.9l0.5-0.4
		l0.7,0.7l0.4,0.5l0.9,0.4l1.1,0.8l-0.2,0.3l-0.5,0.9L531,332.5z"/>
	<path id="MG" class="st0" d="M614.4,498.7l0.7,1.2l0.7,1.9l0.5,3.5l0.7,1.3l-0.3,1.4l-0.5,0.9l-1-1.7l-0.5,0.9l0.5,2.1l-0.3,1.2
		l-0.8,0.7l-0.2,2.5l-1.1,3.4l-1.4,4.1l-1.7,5.7l-1.1,4.2l-1.3,3.6l-2.3,0.7l-2.4,1.3l-1.6-0.8l-2.2-1.1l-0.8-1.6l-0.2-2.7l-1-2.4
		l-0.3-2.2l0.5-2.2l1.3-0.5l0-1l1.3-2.3l0.3-1.9l-0.7-1.4l-0.5-1.9l-0.2-2.7l1-1.6l0.4-1.8l1.4-0.1l1.6-0.6l1-0.5l1.2,0l1.6-1.6
		l2.3-1.8l0.8-1.4l-0.4-1.2l1.2,0.3l1.5-2l0.1-1.7l0.9-1.3L614.4,498.7z"/>
	<path id="MK" class="st0" d="M533.2,334.9l0.4,0l0.1-0.8l1.7-0.6l0.6-0.1l1-0.2l1.3-0.1l1.4,1.2l0.2,2.5l-0.5,0.1l-0.5,0.6
		l-1.5-0.1l-1.1,0.8l-1.8,0.3l-1.2-0.9l-0.4-1.6L533.2,334.9z"/>
	<path id="ML" class="st0" d="M441.4,422.5l0.9-0.5l0.5-1.7l0.9-0.1l2,0.8l1.6-0.6l1.1,0.2l0.4-0.6l11.3,0l0.6-2l-0.5-0.4l-1.4-12.7
		l-1.4-13.1l4.3-0.1l9.5,6.7l9.5,6.5l0.7,1.4l1.7,0.8l1.3,0.5l0,1.9l3.1-0.3l0,6.8l-1.5,1.9l-0.2,1.8l-2.5,0.5l-3.8,0.2l-1,1
		l-1.8,0.1l-1.8,0l-0.7-0.6l-1.5,0.4l-2.6,1.2l-0.5,0.9l-2.2,1.3l-0.4,0.7l-1.2,0.6l-1.4-0.4l-0.8,0.7l-0.4,2l-2.2,2.4l0.1,1
		l-0.8,1.2l0.2,1.6l-1.2,0.4l-0.7,0.4l-0.4-1.2l-0.8,0.3l-0.5-0.1l-0.5,0.8l-2.2,0l-0.8-0.4l-0.4,0.3l-0.9-0.8l0.1-0.8l-0.4-0.3
		l-0.6,0.3l0.1-0.9l0.6-0.7l-1.1-1.2l-0.3-0.8l-0.6-0.6l-0.6-0.1l-0.7,0.4l-0.9,0.4l-0.8,0.6l-1.2-0.2l-0.8-0.7l-0.5-0.1l-0.7,0.4
		l-0.4,0l-0.2-1l0.1-0.9l-0.2-1.1l-1-0.8l-0.6-1.6L441.4,422.5z"/>
	<path id="MM" class="st0" d="M754.6,406.2l-1.6,1.3l-2,0.1l-1.3,3.2l-1.2,0.5l1.4,2.6l1.8,2.1l1.1,1.9l-1,2.5l-1,0.5l0.7,1.4
		l1.9,2.3l0.3,1.6l0,1.3l1.1,2.6l-1.5,2.6l-1.4,2.9l-0.3-2.1l0.9-2.2l-0.9-1.7l0.2-3.1l-1.1-1.5l-0.9-3.4l-0.5-3.7l-1.2-2.4
		l-1.8,1.5l-3.2,2.1l-1.6-0.3l-1.7-0.7l1-3.6L740,412l-2.2-3.4l0.3-1.1l-1.6-0.4l-2-2.4l-0.2-2.4l1,0.5l0.1-2.2l1.4-0.7l-0.3-1.3
		l0.6-1l0.1-3.1l2.2,0.7l1.3-2.5l0.1-1.5l1.5-2.6l-0.1-1.8l3.6-2.2l2,0.6l-0.2-1.9l1-0.6l-0.2-1.2l1.6-0.2l0.9,1.9l1.2,0.8l0.1,2.4
		l-0.1,2.6l-2.7,2.6l-0.3,3.6l3-0.5l0.7,2.8l1.8,0.6l-0.8,2.5l2.1,1.1l1.2,0.6l2.1-0.9l0.1,1.2l-2.4,1.9l-0.6,1.1L754.6,406.2z"/>
	<path id="MN" class="st0" d="M721.5,305.1l3-0.7l5.4-3.7l4.3-2.1l2.4,1.4l2.9,0.1l1.9,2l2.8,0.2l4.1,1.1l2.7-3l-1.1-2.6l2.9-4.7
		l3.1,1.9l2.5,0.5l3.3,1.2l0.5,3.3l4,1.8l2.7-0.8l3.5-0.6l2.8,0.6l2.7,2.1l1.7,2.2l2.6,0l3.5,0.7l2.6-1.1l3.7-0.7l4.1-3.1l1.7,0.5
		l1.5,1.5l3.3-0.4l-1.4,3.2l-2,4.2l0.7,1.7l1.6-0.5l2.8,0.6l2.2-1.5l2.3,1.3l2.5,2.9L811,316l-2.2-0.5l-4.1,0.5l-2,1.2l-2.1,2.7
		l-4.3,1.5l-2.8,2.1l-2.9-0.8l-1.6-0.4l-1.5,2.5l0.9,1.5l0.5,1.3l-2,1.3l-2,2.1l-3.3,1.3l-4.2,0.1l-4.5,1.3l-3.3,2l-1.2-1.2l-3.4,0
		l-4.1-2.3l-2.8-0.6l-3.7,0.5l-5.8-0.9l-3.1,0.1l-1.6-2.3l-1.3-3.6l-1.7-0.4l-3.4-2.4l-3.8-0.6l-3.3-0.7l-1-1.7l1.1-4.7l-1.9-3.3
		l-4-1.6l-2.4-2.2L721.5,305.1z"/>
	<path id="MR" class="st0" d="M441.4,422.5l-1.8-2l-1.7-2.1l-1.9-0.8l-1.3-0.9l-1.6,0l-1.4,0.6l-1.4-0.3l-1,0.9l-0.2-1.6l0.8-1.4
		l0.3-2.8l-0.3-2.9l-0.3-1.5l0.3-1.5l-0.7-1.4l-1.5-1.3l0.6-1l11,0l-0.5-4.3l0.7-1.6l2.6-0.3l-0.1-7.9l9.2,0.2l0-4.7l10.5,7.5
		l-4.3,0.1l1.4,13.1l1.4,12.7l0.5,0.4l-0.6,2l-11.3,0l-0.4,0.6l-1.1-0.2l-1.6,0.6l-2-0.8l-0.9,0.1l-0.5,1.7L441.4,422.5z"/>
	<path id="MW" class="st0" d="M572.4,495.9l-0.8,2.2l0.8,3.7l1,0l1,0.9l1.2,2.1l0.2,3.7l-1.2,0.6l-0.9,2l-1.8-1.8l-0.2-2l0.6-1.3
		l-0.2-1.2l-1.1-0.7l-0.8,0.3l-1.6-1.4l-1.5-0.7l0.9-2.7l0.9-1l-0.5-2.4l0.6-2.3l0.5-0.8l-0.7-2.4l-1.3-1.3l2.7,0.5l0.6,0.8l1,1.3
		L572.4,495.9z"/>
	<path id="MX" class="st0" d="M203.1,389l-1.1,2.7l-0.5,2.2l-0.2,4.1l-0.3,1.5l0.5,1.6l0.9,1.5l0.6,2.3l1.9,2.2l0.7,1.7l1.1,1.5
		l3,0.8l1.2,1.2l2.5-0.8l2.1-0.3l2.1-0.5l1.8-0.5l1.8-1.2l0.7-1.7l0.2-2.5l0.5-0.9l1.9-0.8l3-0.7l2.5,0.1l1.7-0.3l0.7,0.6l-0.1,1.4
		l-1.5,1.8l-0.7,1.8l0.5,0.5l-0.4,1.3l-0.7,2.3l-0.7-0.8l-0.6,0l-0.5,0l-1,1.8l-0.5-0.3l-0.3,0.1l0,0.4l-2.6,0l-2.6,0l0,1.6l-1.3,0
		l1,1l1,0.7l0.3,0.6l0.5,0.2l-0.1,1l-3.6,0l-1.3,2.4l0.4,0.5l-0.3,0.7l-0.1,0.8l-3.2-3.1l-1.4-0.9l-2.3-0.8l-1.6,0.2l-2.3,1.1
		l-1.4,0.3l-2-0.8l-2.1-0.6l-2.6-1.3l-2.1-0.4l-3.2-1.4l-2.3-1.4l-0.7-0.8l-1.6-0.2l-2.9-0.9l-1.2-1.3l-3-1.7l-1.4-1.9l-0.7-1.4
		l0.9-0.3l-0.3-0.8l0.6-0.8l0-1l-0.9-1.3l-0.3-1.2l-0.9-1.5l-2.5-3l-2.8-2.4l-1.4-1.9l-2.4-1.3l-0.5-0.8l0.4-1.9l-1.4-0.7l-1.7-1.5
		l-0.7-2.2l-1.5-0.3l-1.6-1.7l-1.3-1.5l-0.1-1l-1.5-2.4l-1-2.5l0-1.3l-2-1.3l-0.9,0.1l-1.6-0.9l-0.4,1.3l0.5,1.6l0.3,2.4l1,1.3
		l2.1,2.2l0.5,0.8l0.4,0.2l0.4,1.1l0.5,0l0.6,2l0.9,0.8l0.6,1.1l1.8,1.6l0.9,2.9l0.8,1.4l0.8,1.4l0.2,1.6l1.4,0.1l1.1,1.4l1,1.4
		l-0.1,0.5l-1.2,1.1l-0.5,0l-0.7-1.8l-1.8-1.7l-2-1.5l-1.4-0.8l0.1-2.3l-0.4-1.7l-1.3-1l-1.9-1.4l-0.4,0.4l-0.7-0.8l-1.7-0.8
		l-1.7-1.8l0.2-0.2l1.2,0.2l1-1.2l0.1-1.4l-2.2-2.3l-1.6-0.9l-1-2l-1-2.1l-1.3-2.6l-1.1-3l3.2-0.3l3.6-0.4l-0.3,0.6l4.2,1.6l6.4,2.3
		l5.6,0l2.2,0l0-1.4l4.9,0l1,1.2l1.4,1l1.7,1.4l0.9,1.7l0.7,1.8l1.4,1l2.3,1l1.8-2.5l2.3-0.1l2,1.3l1.4,2.2l1,1.9l1.7,1.8l0.6,2.2
		l0.8,1.5l2.2,1l2,0.7L203.1,389z"/>
	<path id="MY" class="st0" d="M758.9,446.3l0.2,1.4l1.9-0.3l0.9-1.1l0.6,0.3l1.7,1.7l1.2,1.9l0.2,1.9l-0.3,1.3l0.3,1l0.2,1.7l1,0.8
		l1.1,2.5l-0.1,0.9l-2,0.2l-2.7-2.1l-3.3-2.2l-0.3-1.4l-1.6-1.9l-0.4-2.3l-1-1.5l0.3-2l-0.6-1.2l0.5-0.5L758.9,446.3z M808.1,451.2
		l-2.1,1l-2.4-0.5l-3.2,0l-1,3.2l-1.1,1l-1.4,3.9l-2.3,0.6l-2.7-0.8l-1.3,0.2l-1.6,1.4l-1.8-0.2l-1.8,0.6l-1.9-1.6l-0.5-1.9l2.1,1
		l2.2-0.5l0.6-2.4l1.2-0.5l3.4-0.6l2-2.2l1.4-1.8l1.3,1.4l0.6-1l1.3,0.1l0.2-1.8l0.1-1.4l2.2-1.9l1.4-2.2l1.1,0l1.4,1.4l0.1,1.2
		l1.8,0.8l2.3,0.8l-0.2,1.1l-1.9,0.1L808.1,451.2z"/>
	<path id="MZ" class="st0" d="M572.4,495.9l2.1-0.2l3.4,0.8l0.7-0.4l2-0.1l1-0.9l1.7,0l3.1-1.1l2.2-1.6l0.5,1.3l-0.1,2.8l0.3,2.5
		l0.1,4.5l0.5,1.4l-0.8,2.1l-1.1,2l-1.8,1.8l-2.6,1.1l-3.2,1.4l-3.2,3.1l-1.1,0.5l-2,2.1l-1.2,0.7l-0.2,2.1l1.3,2.3l0.6,1.8l0,0.9
		l0.5-0.1l-0.1,3l-0.5,1.4l0.7,0.5l-0.4,1.3l-1.2,1.1l-2.3,1l-3.4,1.7l-1.2,1.1l0.2,1.3l0.7,0.2l-0.2,1.6l-2.1,0l-0.2-1.4l-0.4-1.4
		l-0.2-1.1l0.5-3.4l-0.7-2.2l-1.3-4.3l3-3.4l0.7-2.2l0.4-0.3l0.3-1.7l-0.5-0.9l0.1-2.2l0.5-2l0-3.7l-1.5-0.9l-1.3-0.2l-0.6-0.7
		l-1.3-0.6l-2.3,0.1l-0.2-1.1l-0.3-2.1l8.5-2.4l1.6,1.4l0.8-0.3l1.1,0.7l0.2,1.2l-0.6,1.3l0.2,2l1.8,1.8l0.9-2l1.2-0.6l-0.2-3.7
		l-1.2-2.1l-1-0.9l-1,0l-0.8-3.7L572.4,495.9z"/>
	<path id="NA" class="st0" d="M521.3,546.8l-2.1-2.4l-1.1-2.3l-0.6-3l-0.7-2.2l-0.9-4.7l-0.1-3.6l-0.4-1.6l-1.1-1.2l-1.4-2.5
		l-1.5-3.6l-0.6-1.9l-2.3-2.9l-0.2-2.2l1.3-0.6l1.7-0.5l1.8,0.1l1.7,1.3l0.4-0.2l11.4-0.1l1.9,1.4l6.8,0.4l5.2-1.2l2.3-0.7l1.8,0.2
		l1.1,0.7l0,0.2l-1.6,0.7l-0.8,0l-1.8,1.1l-1.1-1.2l-4.3,1l-2.1,0.1l-0.1,10.6l-2.8,0.1l0,8.9l0,11.5l-2.5,1.6l-1.5,0.2l-1.8-0.6
		l-1.3-0.2l-0.5-1.4l-1.1-0.9L521.3,546.8z"/>
	<path id="NC" class="st0" d="M940.3,523.7l2.3,1.9l1.5,1.4l-1.1,0.7l-1.5-0.8l-2-1.4l-1.8-1.6l-1.9-2.1l-0.4-1l1.2,0l1.6,1l1.2,1
		L940.3,523.7z"/>
	<path id="NE" class="st0" d="M481.5,430.1l0.1-2l-3.2-0.6l-0.1-1.4l-1.6-1.9l-0.4-1.3l0.2-1.4l1.8-0.1l1-1l3.8-0.2l2.5-0.5l0.2-1.8
		l1.5-1.9l0-6.8l4-1.3l8.1-5.9l9.6-5.8l4.4,1.3l1.6,1.7l2-1.1l0.7,4.7l1,0.8l0,0.9l1.2,1l-0.6,1.3l-1.1,6l-0.1,3.8l-3.6,2.7
		l-1.2,3.8l1.2,1.1l0,1.8l1.8,0.1l-0.3,1.3l-0.8,0.2l-0.1,0.9l-0.5,0.1l-1.9-3.1l-0.7-0.1L510,427l-2.2-0.8l-1.5-0.2l-0.8,0.4
		l-1.6-0.1l-1.7,1.2l-1.4,0.1l-3.4-1.5l-1.3,0.7l-1.4,0l-1.1-1.1l-2.8-1.1l-3,0.3l-0.7,0.6l-0.4,1.6l-0.8,1.2l-0.2,2.5l-2.1-1.6
		l-1,0L481.5,430.1z"/>
	<path id="NG" class="st0" d="M499.3,450.3l-2.9,1l-1.1-0.1l-1.1,0.6l-2.2-0.1l-1.5-1.7l-0.9-2l-2-1.8l-2.1,0l-2.5,0l0.2-4.5
		l-0.1-1.8l0.5-1.8l0.9-0.9l1.4-1.8l-0.3-0.8l0.6-1.1l-0.6-1.7l0.1-0.9l0.2-2.5l0.8-1.2l0.4-1.6l0.7-0.6l3-0.3l2.8,1.1l1.1,1.1
		l1.4,0l1.3-0.7l3.4,1.5l1.4-0.1l1.7-1.2l1.6,0.1l0.8-0.4l1.5,0.2l2.2,0.8l2.2-1.6l0.7,0.1l1.9,3.1l0.5-0.1l1.1,1.1l-0.3,0.5
		l-0.1,0.9l-2.4,2.2l-0.7,1.8l-0.4,1.5l-0.6,0.6l-0.6,2l-1.5,1.2l-0.4,1.4l-0.6,1.1l-0.3,1.2l-1.9,0.9l-1.6-1.2l-1.1,0l-1.7,1.6
		l-0.8,0l-1.3,2.7L499.3,450.3z"/>
	<path id="NI" class="st0" d="M235.2,432.6l-1-0.9l-1.3-1.1l-0.6-1l-1.2-0.9l-1.4-1.3l0.3-0.4l0.5,0.4l0.2-0.2l0.9-0.1l0.4-0.7
		l0.4,0l-0.1-1.4l0.7-0.1l0.6,0l0.6-0.8l0.8,0.6l0.3-0.4l0.5-0.3l1-0.8l0-0.6l0.3,0l0.4-0.7l0.3-0.1l0.5,0.4l0.6,0.1l0.6-0.4l0.7,0
		l1-0.4l0.4-0.4l1,0.1l-0.2,0.3l-0.1,0.6l0.3,1.1l-0.6,1l-0.3,1.2l-0.1,1.3l0.1,0.7l0.1,1.3l-0.4,0.3l-0.3,1.2l0.2,0.8l-0.6,0.7
		l0.1,0.8l0.4,0.5l-0.7,0.6l-0.8-0.2l-0.5-0.6l-0.9-0.2l-0.6,0.4l-1.8-0.8L235.2,432.6z"/>
	<path id="NL" class="st0" d="M489.3,287.9l-0.2,0.9l0.5,0.2l0.2,0.4l0.1,0.4l0.4,0.1l0,0.2l-0.3,0.3l-0.4,0v0.3l0.3,0.5l-0.4,0.5
		l0.4,0.1l0.8-0.8l0.5-0.7v-0.5l-0.2-0.3l-0.5-0.2l0.1-0.5l-0.1-0.5l0.4-1l0.4-0.5l1.2-0.4l2.3,0.1l0.5,1.6l-0.7,4.2l-0.7,1.7
		l-1.7,0l0.5,4.7l-1.5-1l-1.8-2l-2.6,0.9l-2.1-0.4l0.7-1.2l0.9-1.2l1.3-1.2l0.8-2.1l0.2-2.2L489.3,287.9z"/>
	<path id="NO" class="st0" d="M554.5,175.9l8.8,6.2l-3.6,2.2l3.1,5.1l-4.8,3.2l-2.3,0.7l1.2-5.6l-3.6-3.3l-4.4,2.8l-1.4,5.9
		l-2.7,3.4l-3-1.9l-3.7,0.4l-3.1-4.2l-1.7,2.1l-1.7,0.3l-0.4,5.1l-5.3-1.2l-0.7,4.2l-2.7,0l-1.9,5.2l-2.8,7.9l-4.4,9.5l1,2.2l-1,2.6
		l-2.8-0.1l-1.8,5.9l0.2,8l1.8,3l-0.9,6.7l-2.3,3.8l-1.2,3.1l-1.9-3.4l-5.5,6.3l-3.7,1.2l-3.9-2.7l-1-5.9l-0.9-13.3l2.6-3.9l7.4-5.2
		l5.5-6.6l5.1-9.3l6.7-13.8l4.7-5.7l7.7-9.9l6.2-3.6l4.6,0.4l4.3-7l5.1,0.4L554.5,175.9z"/>
	<path id="NP" class="st0" d="M722.6,382.7l-0.2,1.4l0.4,2l-0.3,1.2l-2.3,0.1l-3.4-0.7l-2.2-0.3l-1.6-1.6l-3.8-0.4l-3.7-1.8
		l-2.6-1.6l-2.7-1.2l1.1-3l1.8-1.5l1.2-0.8l2.2,1l2.8,2.1l1.6,0.5l0.9,1.5l2.2,0.6l2.3,1.4l3.2,0.7L722.6,382.7z"/>
	<path id="NZ" class="st0" d="M960.6,588.9l0.6,1.5l2-1.5l0.8,1.6l0,1.6l-1,1.7l-1.8,2.8l-1.4,1.5l1,1.9l-2.2,0l-2.4,1.5l-0.8,2.6
		l-1.6,4l-2.2,1.8l-1.4,1.2l-2.6-0.1l-1.8-1.3l-3-0.3l-0.5-1.5l1.5-3l3.5-3.9l1.8-0.7l2-1.5l2.4-2l1.7-2l1.2-2.8l1.1-0.9l0.4-2.1
		l2-1.7L960.6,588.9z M965.1,571.9l2,3.7l0.1-2.4l1.3,0.9l0.4,2.7l2.3,1.2l1.9,0.3l1.6-1.3l1.4,0.4l-0.7,3.2l-0.9,2.1l-2.1-0.1
		l-0.7,1.1l0.3,1.6l-0.4,0.7l-1.1,2l-1.4,2.5l-2.2,1.5l-0.5-1l-1.2-0.5l1.6-3l-0.9-2l-3-1.5l0.1-1.3l2-1.3l0.5-2.7l-0.1-2.3
		l-1.1-2.3l0.1-0.6l-1.3-1.4l-2.2-3l-1.2-2.4l1-0.3l1.5,1.9l2.2,0.9L965.1,571.9z"/>
	<path id="OM" class="st0" d="M640.5,403.4l-1,2l-1.3-0.2l-0.6,0.7l-0.5,1.5l0.3,2l-0.3,0.4l-1.3,0l-1.8,1.1l-0.3,1.4l-0.6,0.6
		l-1.7,0l-1.1,0.7l0,1.2l-1.4,0.8l-1.5-0.3l-1.9,1l-1.3,0.2l-0.9-2l-2.2-4.8l8.4-3l1.9-6l-1.3-2.1l0.1-1.2l0.8-1.3l0-1.2l1.3-0.6
		l-0.5-0.4l0.2-2l1.4,0l1.3,2.1l1.6,1.1l2.1,0.4l1.7,0.6l1.3,1.7l0.8,1l1,0.4l0,0.7l-1,1.8l-0.4,0.8L640.5,403.4z M633.6,388.9
		l-0.4,0.6l-0.5-1.1l0.8-1.1l0.3,0.3L633.6,388.9z"/>
	<path id="PA" class="st0" d="M257.1,443.5l-0.9-0.8l-0.6-1.5l0.7-0.8l-0.7-0.2l-0.5-0.9l-1.4-0.8l-1.2,0.2l-0.6,1l-1.1,0.7
		l-0.6,0.1l-0.3,0.6l1.3,1.5l-0.8,0.4l-0.4,0.4l-1.3,0.1l-0.5-1.7l-0.4,0.5l-0.9-0.2l-0.6-1.1l-1.2-0.2l-0.7-0.3l-1.2,0l-0.1,0.6
		l-0.3-0.4l0.1-0.6l0.2-0.6l-0.1-0.5l0.4-0.3l-0.6-0.4l0-1.1l1.1-0.3l1,1l-0.1,0.6l1.1,0.1l0.3-0.2l0.8,0.7l1.4-0.2l1.2-0.7l1.7-0.6
		l1-0.8l1.5,0.2l-0.1,0.3l1.6,0.1l1.2,0.5l0.9,0.8l1.1,0.8l-0.3,0.4l0.7,1.7l-0.5,0.8l-0.9-0.2L257.1,443.5z"/>
	<path id="PE" class="st0" d="M280.4,513.4l-0.8,1.5l-1.4,0.7l-2.8-1.7l-0.2-1.2l-5.6-2.9l-5-3.2l-2.2-1.8l-1.2-2.4l0.5-0.8
		l-2.4-3.8l-2.8-5.2l-2.6-5.6l-1.1-1.3l-0.9-2.1l-2.2-1.8l-2-1.1l0.9-1.3l-1.4-2.7l0.9-2l2.2-1.8l0.3,1.2l-0.8,0.7l0.1,1l1.2-0.2
		l1.1,0.3l1.2,1.4l1.6-1.1l0.5-1.9l1.7-2.4l3.4-1.1l3.1-2.9l0.9-1.8l-0.4-2.1l0.7-0.3l1.9,1.3l0.9,1.3l1.3,0.7l1.7,2.9l2.1,0.4
		l1.5-0.7l1,0.5l1.7-0.2l2.1,1.3l-1.8,2.8l0.8,0.1l1.4,1.5l-2.5-0.1l-0.4,0.4l-2.3,0.5l-3.2,1.9l-0.2,1.3l-0.7,1l0.3,1.5l-1.7,0.8
		l0,1.2l-0.7,0.5l1.2,2.5l1.6,1.7l-0.6,1.2l1.9,0.2l1.1,1.5l2.5,0.1l2.3-1.7l-0.2,4.3l1.3,0.3l1.6-0.5l2.4,4.6l-0.6,1l-0.1,2
		l-0.1,2.4l-1.1,1.4l0.5,1.1l-0.6,1l1.2,2.4L280.4,513.4z"/>
	<path id="PG" class="st0" d="M912.6,482.7l-0.8,0.3l-1.2-1.1l-1.2-1.8l-0.6-2.1l0.4-0.3l0.3,0.8l0.8,0.6l1.4,1.8l1.3,1L912.6,482.7
		z M901.6,478.9l-1.5,0.2l-0.4,0.8l-1.5,0.7l-1.4,0.7l-1.5,0l-2.3-0.8l-1.6-0.8l0.2-0.9l2.5,0.4l1.5-0.2l0.4-1.3l0.4-0.1l0.3,1.5
		l1.6-0.2l0.8-1l1.6-1l-0.3-1.6l1.7-0.1l0.6,0.5l-0.1,1.5L901.6,478.9z M888.2,484.3l2.5,1.8l1.8,3l1.6-0.1l-0.1,1.3l2.2,0.5
		l-0.8,0.5l3,1.2l-0.3,0.8l-1.9,0.2l-0.7-0.7l-2.4-0.3l-2.8-0.4l-2.2-1.8l-1.6-1.6l-1.5-2.5l-3.7-1.2l-2.4,0.8l-1.7,0.9l0.4,2.1
		l-2.2,1l-1.6-0.5l-2.9-0.1l0-9.2l0-9.1l4.9,1.9l5.2,1.6l1.9,1.4l1.6,1.4l0.4,1.6l4.7,1.7l0.7,1.5l-2.6,0.3L888.2,484.3z
		 M904.9,476.2l-0.9,0.7l-0.5-1.6l-0.7-1.1l-1.3-0.9l-1.6-1.2l-2-0.8l0.8-0.7l1.5,0.8l1,0.6l1.2,0.7l1.1,1.2l1.1,0.9L904.9,476.2z"
		/>
	<path id="PH" class="st0" d="M829.8,440.1l0.3,1.9l0.2,1.6l-1,2.6l-1-2.9l-1.3,1.4l0.9,2.1l-0.8,1.3l-3.3-1.6l-0.8-2l0.9-1.3
		l-1.8-1.3l-0.9,1.2l-1.3-0.1l-2.1,1.6l-0.5-0.8l1.1-2.4l1.8-0.8l1.5-1.1l1,1.3l2.1-0.8l0.5-1.3l2-0.1l-0.2-2.2l2.3,1.3l0.2,1.4
		L829.8,440.1z M823.1,434.9l-1,0.9l-0.9,1.8l-0.9,0.8l-1.7-2l0.6-0.8l0.7-0.8l0.3-1.8l1.5-0.2l-0.5,1.9l2.1-2.7L823.1,434.9z
		 M807.8,437.6l-3.7,2.7l1.4-2l2-1.7l1.7-2l1.5-2.8l0.5,2.3l-1.9,1.6L807.8,437.6z M817.2,430.3l1.7,0.9l1.8,0l-0.1,1.2l-1.3,1.2
		l-1.8,0.9l-0.1-1.3l0.2-1.4L817.2,430.3z M827.4,429.5l0.8,3.2l-2.2-0.8l0.1,1l0.7,1.7l-1.3,0.6l-0.1-2l-0.8-0.1l-0.4-1.7l1.6,0.2
		l0-1.1l-1.7-2.2l2.7,0.1L827.4,429.5z M816.2,426.9l-0.7,2.5l-1.2-1.4l-1.4-2.2l2.4,0.1L816.2,426.9z M815.7,411.2l1.7,0.8l0.9-0.8
		l0.3,0.7l-0.5,1.2l1,2.1l-0.7,2.4l-1.7,1l-0.4,2.3l0.6,2.3l1.5,0.3l1.2-0.3l3.5,1.6l-0.3,1.6l0.9,0.7l-0.3,1.3l-2.2-1.4l-1-1.5
		l-0.7,1.1l-1.8-1.7l-2.5,0.4l-1.4-0.6l0.1-1.2l0.9-0.7l-0.8-0.7l-0.4,1l-1.4-1.7l-0.4-1.3l-0.1-2.8l1.1,1l0.3-4.6l0.9-2.7
		L815.7,411.2z"/>
	<path id="PL" class="st0" d="M517.6,297.2l-1.1-2.9l0.2-1.6l-0.7-2.4l-1-1.6l0.8-1.2l-0.7-2.4l1.9-1.4l4.4-2.2l3.5-1.6l2.8,0.8
		l0.2,1.2l2.7,0.1l3.5,0.5l5.2-0.1l1.4,0.5l0.7,1.5l0.1,2.1l0.8,1.8l0,1.8l-1.7,0.9l0.9,2.1l0.1,2l1.4,3.9l-0.3,1.2l-1.4,0.5
		l-2.5,3.6l0.7,1.9l-0.6-0.2l-2.7-1.6l-2,0.6l-1.3-0.4l-1.7,0.9l-1.4-1.5l-1.2,0.6l-0.2-0.3l-1.3-2.1l-2.1-0.3l-0.3-1.4l-1.9-0.5
		l-0.4,1.1l-1.5-0.9l0.2-1.2l-2.1-0.4L517.6,297.2z"/>
	<path id="PK" class="st0" d="M686.2,352l2.1,1.6l0.8,2.7l4.6,1.4l-2.7,2.9l-3.1,0.5l-4.3-0.8l-1.4,1.5l1,2.9l1,2.3l2.3,1.6
		l-2.4,1.9l0,2.3l-2.7,3.2l-1.8,3.3l-2.9,3.3l-3.3-0.2l-3.1,3.3l1.8,1.4l0.3,2.4l1.6,1.6l0.6,2.6l-6.2,0l-1.9,2l-2.1-0.8l-0.8-2.2
		l-2.2-2.3l-5.2,0.6l-4.6,0.1l-3.9,0.4l1.1-3.6l4-1.6l-0.2-1.4l-1.3-0.5l-0.1-2.8l-2.7-1.4l-1.1-1.9l-1.4-1.7l4.7,1.6l2.8-0.5
		l1.7,0.4l0.6-0.7l2,0.3l3.6-1.3l0.1-2.8l1.6-1.8l2.1,0l0.3-0.9l2.1-0.4l1,0.3l1.1-0.9l-0.2-2l1.2-2l1.8-0.8l-1.1-2.2l2.7,0.1
		l0.8-1.2l-0.1-1.3l1.4-1.4l-0.3-1.7l-0.7-1.5l1.6-1.5l3-0.7l3.2-0.4l1.4-0.6L686.2,352z"/>
	<path id="PR" class="st0" d="M289.7,411.1l1.4,0.3l0.5,0.6l-0.7,0.7l-2.1,0l-1.6,0.1l-0.2-1.3l0.4-0.4L289.7,411.1z"/>
	<path id="PS" class="st0" d="M575.2,368.1l0,2l-0.4,1l-1.3,0.4l0.1-0.9l0.7-0.5l-0.7-0.4l0.6-2.2L575.2,368.1z"/>
	<path id="PT" class="st0" d="M450.2,334.8l1-1l1.1-0.5l0.7,1.8l1.7,0l0.5-0.5l1.6,0.1l0.8,1.9l-1.3,1l0,2.9l-0.5,0.5l-0.1,1.7
		l-1.2,0.3l1.1,2.2l-0.8,2.3l1,1.1l-0.4,1l-1,1.3l0.2,1.2l-1.1,0.9l-1.5-0.5l-1.4,0.4l0.4-2.7l-0.3-2.2l-1.3-0.3l-0.7-1.4l0.2-2.4
		l1.1-1.3l0.2-1.5l0.6-2.2l-0.1-1.6l-0.6-1.3L450.2,334.8z"/>
	<path id="PY" class="st0" d="M299.7,527.2l1.1-3.6l0.1-1.6l1.3-2.6l4.9-0.9l2.6,0l2.6,1.5l0,0.9l0.8,1.7l-0.2,4.1l3,0.6l1.1-0.6
		l1.9,0.8l0.5,0.9l0.3,2.8l0.3,1.2l1,0.1l1.1-0.5l1,0.6l0,1.7l-0.4,1.8l-0.5,1.8l-0.5,2.7l-2.5,2.4l-2.2,0.5l-3.1-0.5l-2.8-0.9
		l2.8-4.7l-0.4-1.4l-2.9-1.2l-3.4-2.3l-2.3-0.5L299.7,527.2z"/>
	<path id="QA" class="st0" d="M618,392.4l-0.2-2.2l0.8-1.6l0.8-0.3l0.8,1l0,1.8l-0.6,1.8l-0.8,0.2L618,392.4z"/>
	<path id="RO" class="st0" d="M539.2,311.1l1.2-0.9l1.7,0.5l1.8,0l1.3,1l1-0.6l2.1-0.4l0.7-1l1.2,0l0.9,0.4l0.9,1.2l0.9,1.7l1.6,2.4
		l0.1,1.8l-0.3,1.7l0.5,1.8l1.3,0.7l1.3-0.6l1.3,0.7l0.1,1l-1.4,0.8l-0.9-0.4l-0.8,4.7l-1.6-0.4l-2-1.4l-3.3,0.9l-1.4,1l-4.1-0.2
		l-2.2-0.6l-1.1,0.3l-0.8-1.6l-0.5-0.7l0.6-0.7l-0.7-0.5l-0.9,0.9l-1.6-1.1l-0.2-1.6l-1.7-0.9l-0.3-1.3l-1.5-1.6l2.2-0.8l1.7-2.8
		l1.3-2.8L539.2,311.1z"/>
	<path id="RS" class="st0" d="M534,321.2l1.7,0.9l0.2,1.6l1.6,1.1l0.9-0.9l0.7,0.5l-0.6,0.7l0.5,0.7l-0.7,0.9l0.3,1.4l1.4,1.7
		l-1.1,1.2l-0.5,1.2l0.3,0.5l-0.5,0.5l-1.3,0.1l-1,0.2l-0.1-0.3l0.3-0.5l0.3-0.9l-0.4,0l-0.5-0.7l-0.5-0.2l-0.4-0.6l-0.5-0.2
		l-0.4-0.5l-0.5,0.2L533,331l-0.7,0.3l0.2-0.3l-1.1-0.8l-0.9-0.4l-0.4-0.5l-0.7-0.7l0.7-0.2l0.4-1.8l-1.4-1.5l0.7-1.7l-1,0l1.1-1.5
		l-0.9-1.1l-0.7-1.6l2.1-1.1l1.8,0.2l1.5,1.6L534,321.2z"/>
	<path id="RU" class="st0" d="M1008.5,216l-2.8,3l-4.6,0.7l-0.1,6.5l-1.1,1.3l-2.6-0.2l-2.1-2.3l-3.7-1.9l-0.6-2.9l-2.8-1.1
		l-3.2,0.9l-1.5-2.4l0.6-2.6l-3.4,1.6l1.3,3.2l-1.6,2.8l0,0l-3.6,2.9l-3.6-0.5l2.5,3.4l1.7,5.2l1.3,1.7l0.3,2.5l-0.7,1.6l-5.2-1.3
		l-7.8,4.5l-2.5,0.7l-4.3,4.1l-4.1,3.5l-1,2.6l-4-3.9l-7.3,4.4l-1.3-2.1l-2.7,2.4l-3.8-0.8l-0.9,3.6l-3.4,5.2l0.1,2.1l3.2,1.2
		l-0.4,7.5l-2.6,0.2l-1.2,4.2l1.2,2.1l-4.9,2.5l-1,5.4l-4.2,1.1l-0.8,4.7l-4,4.2l-1-3.1l-1.2-6.7l-1.6-10.6l1.3-7l2.4-3.1l0.1-2.4
		l4.4-1.2l5-6.8l4.8-5.7l5-4.6l2.3-8.4l-3.4,0.5l-1.7,4.9l-7.1,6.4l-2.3-7.1l-7.2,2l-7,9.6l2.3,3.4l-6.3,1.4l-4.3,0.6l0.2-3.9
		l-4.4-0.8l-3.5,2.7l-8.6-0.9l-9.2,1.6l-9.1,10.3l-10.7,11.8l4.4,0.6l1.4,3l2.7,1.1l1.8-2.4l3.1,0.3l4,5.2l0.1,3.9l-2.2,4.5
		l-0.2,5.3l-1.3,6.8l-4.2,6l-0.9,2.8l-3.8,4.7l-3.8,4.5l-1.8,2.3l-3.7,2.2l-1.8,0l-1.8-1.9l-3.8,2.8l-0.4,1.3l-0.4-0.7l0-1.9
		l1.4-0.1l0.4-4.6l-0.7-3.4l2.4-1.4l3.4,0.7l1.9-3.9l1-4.5l1.1-1.5l1.5-3.8l-4.6,1.2l-2.4,1.6l-4.3,0l-1.1-3.9l-3.3-3l-4.9-1.4
		l-1-4.3l-1-2.7l-1.1-1.9l-1.7-4.6l-2.5-1.7l-4.2-1.4l-3.7,0.1l-3.5,0.8l-2.3,2.3l1.5,1.1l0,2.5l-1.6,1.5l-2.5,4.7l0,1.9l-4,2.7
		l-3.4-1.6l-3.3,0.4l-1.5-1.5l-1.7-0.5l-4.1,3.1l-3.7,0.7l-2.6,1.1l-3.5-0.7l-2.6,0l-1.7-2.2l-2.7-2.1l-2.8-0.6l-3.5,0.6l-2.7,0.8
		l-4-1.8l-0.5-3.3l-3.3-1.2l-2.5-0.5l-3.1-1.9l-2.9,4.7l1.1,2.6l-2.7,3l-4.1-1.1l-2.8-0.2l-1.9-2l-2.9-0.1l-2.4-1.4l-4.3,2.1
		l-5.3,3.7l-3,0.7l-1.1,0.4l-1.5-2.6l-3.6,0.6l-1.2-1.8l-2-0.8l-1.3-2.5l-1.5-0.8l-4,1.1l-3.9-2.6l-1.5,2.3l-6.3-11.6l-3.6-3.7
		l1-1.5l-7,4.5l-2.7,0.3l0.2-2.6l-3.6-1.6l-2.9,1.2l-0.9-5l-5-1.1l-2.5,2l-7,1.8l-1.4,1.2l-10.5,1.7l-1.3,1.6l2,3.2l-2.7,1.2
		l0.5,1.3l-2.7,2.2l4.5,3.1l-0.7,2.1l-3.9-0.2l-0.8,1.3l-3.6-2.3l-4.4,0.1l-3,1.9l-3.3-1.8l-6.2-3.1l-4.4,0.1l-5.8,4.8l-0.3,3.2
		l-2.9-2.5l-2.2,4.8l0.8,0.9l-1.6,3.2l2.4,2.8l2.1-0.1l1.8,2.8l-0.3,2.1l1.4,0.7l-1.3,2.4l-2.7,0.7l-2.8,4.1l2.5,3.7l-0.3,2.6
		l3.1,4.5l-1.7,1.5l-0.5,0.9l-1.2-0.3l-1.9-2.3l-0.8-0.1l-1.8-0.9l-0.9-1.5l-2.6-0.8l-1.7,0.6l-0.5-0.7l-3.8-1.8l-4.1-0.6l-2.4-0.7
		l-0.3,0.5l-3.6-3.3l-3.2-1.5l-2.4-2.3l2-0.6l2.3-3.4l-1.6-1.6l4.1-1.7l-0.1-0.9l-2.5,0.7l0.1-1.8l1.4-1.2l2.7-0.3l0.4-1.4l-0.6-2.3
		l1.1-2.2l0-1.3l-4.1-1.4l-1.6,0l-1.7-2l-2.2,0.7l-3.6-1.5l0.1-0.9l-1-1.9l-2.2-0.2l-0.2-1.4l0.7-0.9l-1.8-2.6l-2.9,0.4l-0.9-0.2
		l-0.7,1l-1-0.2l-0.7-2.9l-0.7-1.5l0.5-0.4l2.3,0.2l1.1-1l-0.8-1.3l-1.9-0.8l0.2-0.9l-1.1-0.9l-1.8-3.2l0.6-1.3l-0.3-2.3l-2.7-1.2
		l-1.5,0.6l-0.4-1.2l-3-1.3l-0.9-3l-0.2-2.5l-1.4-1.2l1.2-1.7l-0.8-5l2-3.1l-0.4-1l3.2-3.1l-2.9-2.7l6-7.4l2.6-3.5l1.1-3.1l-4.2-4.3
		l1.1-4.1l-2.5-4.9l1.9-5.8l-3.3-8l2.6-5.5l-4.3-5l0.4-5.4l2.3-0.7l4.8-3.2l2.9-2.8l4.6,4.9l7.7,1.9l10.6,8.6l2.2,3.5l0.2,4.8
		l-3.1,3.7l-4.6,1.8l-12.5-5.3l-2.1,0.9l4.6,5.1l0.2,3.2l0.2,6.8l3.6,2l2.2,1.7l0.4-3.1l-1.7-2.8l1.8-2.5l6.8,4.1l2.4-1.6l-1.9-4.9
		l6.5-6.7l2.6,0.4l2.6,2.4l1.6-4.8l-2.3-4.3l1.4-4.4l-2.1-4.7l7.8,2.4l1.6,4.2l-3.5,0.9l0,4l2.2,2.4l4.3-1.5l0.7-4.6l5.9-3.5
		l9.8-6.5l2.1,0.4l-2.8,4.6l3.5,0.8l2-2.6l5.3-0.2l4.2-3.2l3.2,4.6l3.2-5.1l-2.9-4.6l1.5-2.7l8.3,2.4l3.9,2.5l10.2,8.8l1.9-4
		l-2.8-4.1l-0.1-1.7l-3.4-0.8l0.9-3.8l-1.5-6.5l-0.1-2.7l5.2-8l1.8-8.4l2.1-1.9l7.4,2.5l0.6,5.2l-2.7,7.3l1.7,2.8l0.9,5.9l-0.6,11.1
		l3.1,4.7l-1.2,5l-5.5,10.2l3.2,1l1.1-2.5l3.1-1.8l0.7-3.6l2.4-3.5l-1.6-4.3l1.3-5.1l-3.1-0.6l-0.7-4.4l2.2-8.3l-3.6-7l5-6l-0.6-6.6
		l1.4-0.2l1.5,5.2l-1.1,8.7l3,1.6l-1.3-6.4l4.7-3.6l5.8-0.5l5.2,5.2l-2.5-7.6l-0.3-10.3l4.9-2l6.7,0.4l6.1-1.3l-2.3-5.4l3.2-7
		l3.2-0.3l5.5-5.5l7.4-1.5l0.9-3.2l7.4-1.1l2.3,2.6l6.3-6.2l5.2,0.2l0.8-5.2l2.7-5.3l6.6-5.3l4.8,4.2l-3.8,3.1l6.4,1.9l0.8,6
		l2.6-2.9l8.2,0.2l6.3,5.8l2.3,4.4l-0.7,5.9l-3.1,3.2l-7.4,5.9l-2.1,3.1l3.5,1.4l4.1,2.6l2.5-1.9l1.4,6.4l1.2-2.6l4.5-1.6l9,1.6
		l0.7,4.6l11.7,1.4l0.2-7.5l6,1.7l4.5-0.1l4.5,5.1l1.3,6l-1.7,3.8l3.5,7l4.4,3.5l2.7-9.2l4.5,4l4.8-2.4l5.4,2.7l2.1-2.5l4.6,1.2
		l-2-8.4l3.7-4.1l25.3,6.1l2.4,5.4l7.3,6.7l11.3-1.6l5.6,1.4l2.3,3.5l-0.3,6l3.5,2.3l3.8-1.6l5-0.2l5.3,1.6l5.3-0.9l4.9,7l3.5-2.5
		l-2.3-5.1l1.2-3.6l8.9,2.3l5.8-0.5l8.1,3.8l3.9,3.4l6.9,5.9l7.4,7.3l-0.2,4.4l1.9,1.7l-0.7-5.1l7.6,1.1L1008.5,216z M881.1,306.5
		l-2.8-7.7l-1.2-4.5l0.1-4.5l-1-4.5l-0.7-3.1l-1.2,0.7l1.1,2.2l-2.6,2.2l-0.2,6.3l1.6,4.4l-0.1,5.9l-0.6,3.2l0.3,4.5l-0.3,4l0.5,3.4
		l1.8-3.1l2.1,2.4l0.1-2.8l-2.7-4.2l1.7-6.1L881.1,306.5z M538.1,279l-2.9-0.9l-3.9,1.6l-0.6,2.1l3.5,0.5l5.2-0.1l-0.2-1.2l0.3-1.3
		L538.1,279z M980.2,178.9l3.7-0.5l2.9-2.1l0.2-1.2l-4.1-2.5l-2.4,0l-0.4,0.4l-3.6,3.6l0.5,2.7L980.2,178.9z M870.3,151.8l-2.7,3.9
		l0.5,0.5l5.7,1.1l4.3-0.1l-0.3-2.6l-4-3.8L870.3,151.8z M894.9,142.3l3.2-4.2l-7-2.9l-5.2-1.7l-0.7,3.6l5.2,4.3L894.9,142.3z
		 M869.8,140.6l10.3,0.3l2.2-8.1l-10.1-6.1l-7.4-0.5l-3.7,2.2l-1.5,7.8l5.6,7L869.8,140.6z M622.6,166.5l-2.9,2l0.4,4.8l5.1,2.3
		l0.7,3.8l9.2,1.1l1.7-0.7l-5.4-7.1l-0.6-7.5l4.4-9.1l4.2-9.8l8.7-10.2l8.6-5.3l9.9-5.7l1.9-3.7l-1.9-4.8l-5.5,1.6l-4.8,4.5
		l-9.3,2.2l-9.3,7.4l-6.3,5.8l0.8,4.9l-6.7,9l2.6,1.2l-5.6,8.3L622.6,166.5z M770.1,98.6l0.8-5.7l-7.1-8.3l-2.1-1l-2.3,1.7
		l-5.1,18.6L770.1,98.6z M605.9,69.3l3,3.9l3.3-2.7l0.4-2.7l2.5-1.3l3.8-2.2l1.1-2.6l-4.2-3.8l-2.6,2.9l-1.6,4.1l-0.6-4.6l-4.3,0.2
		l-5.5,3.2l6.2,0.5L605.9,69.3z M737.1,82.3l4.7,5.7l7.8,4.2l6.1-1.8l0.7-13.6l-6.5-16l-5.4-9l-6.1,4.1l-7.3,11.8L735,71L737.1,82.3
		z"/>
	<path id="RW" class="st0" d="M560.8,466.8l1.1,1.6l-0.2,1.6l-0.8,0.4l-1.5-0.2l-0.9,1.6l-1.7-0.2l0.3-1.5l0.4-0.2l0.1-1.7l0.8-0.8
		l0.7,0.3L560.8,466.8z"/>
	<path id="SA" class="st0" d="M595.5,417.5l-0.4-1.2l-0.8-0.9l-0.2-1.2l-1.4-1l-1.5-2.5l-0.8-2.4l-1.9-2l-1.3-0.5l-1.9-2.8l-0.3-2.1
		l0.1-1.8l-1.6-3.4l-1.3-1.2l-1.5-0.6l-0.9-1.8l0.2-0.7l-0.8-1.6l-0.8-0.7l-1.1-2.3l-1.7-2.5l-1.4-2.2l-1.4,0l0.4-1.7l0.1-1.1
		l0.3-1.3l3.1,0.5l1.2-1l0.7-1.2l2.1-0.4l0.5-1.1l0.9-0.5l-2.8-3.3l5.6-1.6l0.5-0.5l3.4,0.9l4.2,2.3l7.9,6.5l5.2,0.3l2.5,0.3
		l0.7,1.5l2-0.1l1.1,2.7l1.4,0.7l0.5,1.1l1.9,1.3l0.2,1.3l-0.3,1l0.4,1l0.8,0.9l0.4,1l0.4,0.8l0.8,0.6l0.8-0.2l0.5,1.2l0.1,0.7
		l1.1,3.1l8.4,1.5l0.6-0.6l1.3,2.1l-1.9,6l-8.4,3l-8.1,1.1l-2.6,1.3l-2,3.1l-1.3,0.5l-0.7-1l-1.1,0.1l-2.7-0.3l-0.5-0.3l-3.2,0.1
		l-0.8,0.3l-1.2-0.8l-0.7,1.4l0.3,1.2L595.5,417.5z"/>
	<path id="SB" class="st0" d="M930.1,493l0.8,1l-2,0l-1.1-1.7l1.7,0.7L930.1,493z M926.5,491.3l-1.1,0.1l-1.7-0.3l-0.6-0.4l0.2-1.1
		l1.9,0.4l0.9,0.6L926.5,491.3z M928.8,490.5l-0.4,0.5l-2.1-2.4l-0.6-1.7h1l1,2.3L928.8,490.5z M923.8,486.9l0.1,0.6l-2.2-1.2
		l-1.5-1l-1.1-0.9l0.4-0.3l1.3,0.7l2.3,1.3L923.8,486.9z M917.2,484.2l-0.6,0.2l-1.2-0.6l-1.2-1.2l0.1-0.5l1.7,1.2L917.2,484.2z"/>
	<path id="SD" class="st0" d="M570.7,437.2l-0.4-0.1l0-1.4l-0.3-1l-1.4-1.1l-0.3-2l0.3-2.1l-1.3-0.2l-0.2,0.6l-1.7,0.1l0.7,0.8
		l0.2,1.7l-1.5,1.6l-1.4,2l-1.4,0.3l-2.4-1.7l-1.1,0.6l-0.3,0.8l-1.4,0.5l-0.1,0.6h-2.8l-0.4-0.6l-2-0.1l-1,0.5l-0.8-0.2l-1.4-1.6
		l-0.5-0.8l-2,0.4l-0.8,1.3l-0.7,2.5l-1,0.5l-0.9,0.3l-0.2-0.1l-1-0.8l-0.2-0.9l0.5-1.2l0-1.2l-1.6-1.8l-0.3-1.2l0-0.7l-1-0.8l0-1.7
		l-0.6-1.1l-1,0.2l0.3-1l0.7-1.2l-0.3-1.2l0.9-0.9l-0.6-0.7l0.7-1.8l1.3-2.1l2.4,0.2l-0.1-11.6l0-1.2l3.2,0v-6h11.3h10.9h11.1
		l0.9,2.9l-0.6,0.5l0.4,3.1l1,3.5l1.1,0.7l1.5,1.1l-1.4,1.7l-2.1,0.5l-0.9,0.9l-0.3,1.9l-1.2,4.3l0.3,1.2l-0.4,2.5l-1.1,2.8
		l-1.7,1.4l-1.2,2.2l-0.3,1.2l-1.3,0.8l-0.8,3L570.7,437.2z"/>
	<path id="SE" class="st0" d="M537.7,217.7l-2.7,4.7l0.4,4l-4.5,5.1l-5.4,5.3l-2,8.4l2,4.1l2.7,3.1l-2.6,6.2l-2.9,1.3l-1.1,8.8
		l-1.6,4.8l-3.4-0.5l-1.6,3.9l-3.2,0.2l-0.9-4.7l-2.3-5.8l-2.1-7.5l1.2-3.1l2.3-3.8l0.9-6.7l-1.8-3l-0.2-8l1.8-5.9l2.8,0.1l1-2.6
		l-1-2.2l4.4-9.5l2.8-7.9l1.9-5.2l2.7,0l0.7-4.2l5.3,1.2l0.4-5.1l1.7-0.3l3.7,3.8l4.4,5.2l0.1,11.1l0.9,2.7L537.7,217.7z"/>
	<path id="SI" class="st0" d="M514.2,316.8l2.3,0.3l1.4-0.9l2.5-0.1l0.5-0.7l0.5,0l0.5,1.4l-2.2,1.1l-0.3,1.6l-1,0.4l0,1.1l-1.1-0.1
		l-1-0.7l-0.5,0.7l-2-0.1l0.6-0.4l-0.7-1.7L514.2,316.8z"/>
	<path id="SJ" class="st0" d="M544.8,104.7l-6.3,5.4l-4.9-3l1.9-3.4l-1.7-4.3l5.8-2.8l1.1,5.2L544.8,104.7z M526.7,78.1l9.2,11.3
		l-7.1,5.7l-1.6,10.1l-2.5,2.5l-1.3,10.5l-3.4,0.5l-6-7.6l2.5-4.6l-4.2-3.9L507,90.6l-2.2-11.8l7.6-5.7l1.5,5.6l4-0.2l1.1-5.4
		l4.1-0.6L526.7,78.1z M546.9,66.6l5.5,5.8l-4.2,8.5l-8.1,1.8l-8.3-2.6l-0.5-4.3l-4-0.3l-3.1-7.5l8.7-4.7l4.1,4.1l2.8-5.1
		L546.9,66.6z"/>
	<path id="SK" class="st0" d="M528.4,304.3l0.2,0.3l1.2-0.6l1.4,1.5l1.7-0.9l1.3,0.4l2-0.6l2.7,1.6l-0.8,1.1l-0.5,1.7l-0.6,0.4
		l-3-1.3l-0.9,0.3l-0.7,1l-1.3,0.5l-0.3-0.3l-1.4,0.7l-1.1,0.1l-0.2,0.8l-2.4,0.5l-1-0.5l-1.4-1.1l-0.3-1.5l0.2-0.5l0.4-0.9l1.2,0.1
		l1-0.4l0.1-0.4l0.5-0.2l0.2-1l0.6-0.2l0.4-0.8L528.4,304.3z"/>
	<path id="SL" class="st0" d="M443.4,444.7l-0.8-0.2l-2-1.1l-1.5-1.5l-0.5-1l-0.3-2.1l1.5-1.2l0.3-0.8l0.5-0.6l0.8-0.1l0.7-0.5
		l2.2,0l0.8,1l0.6,1.2l-0.1,0.8l0.5,0.7l0,1l0.8-0.2l-1.3,1.3l-1.3,1.5l-0.1,0.8L443.4,444.7z"/>
	<path id="SN" class="st0" d="M428.6,425.4l-1.2-2.2l-1.4-1l1.2-0.5l1.4-2l0.7-1.5l1-0.9l1.4,0.3l1.4-0.6l1.6,0l1.3,0.9l1.9,0.8
		l1.7,2.1l1.8,2l0.1,1.8l0.6,1.6l1,0.8l0.2,1.1l-0.1,0.9l-0.4,0.2l-1.5-0.2l-0.2,0.3l-0.6,0.1l-2-0.7l-1.4,0l-5.2-0.1l-0.8,0.3
		l-0.9-0.1l-1.5,0.5l-0.5-2.2l2.6,0.1l0.7-0.4l0.5,0l1-0.7l1.2,0.6l1.2,0.1l1.2-0.6l-0.6-0.8l-0.9,0.5l-0.9,0l-1.1-0.7l-0.9,0
		l-0.6,0.7L428.6,425.4z"/>
	<path id="SO" class="st0" d="M618.9,430.7l-0.1-0.8l-1.1,0l-1.3,1l-1.5,0.3l-1.3,0.4l-0.9,0.1l-1.6,0.1l-1,0.5l-1.4,0.2l-2.5,0.9
		l-3.1,0.3l-2.6,0.7l-1.4,0l-1.3-1.2l-0.5-1.2l-0.9-0.5l-1,1.5l-0.6,1l1,1.6l1,1.4l1.1,1l9.2,3.3l2.4,0l-7.9,8.4l-3.7,0.1l-2.5,2
		l-1.8,0.1l-0.8,0.9l-2.4,3.2l0,10.1l1.7,2.3l0.6-0.7l0.6-1.5l3.1-3.4l2.6-2.1l4.2-2.8l2.8-2.3l3.3-3.8l2.4-3.1l2.4-4.1l1.7-3.6
		l1.3-3.1l0.8-3.1l0.6-1l0-1.5L618.9,430.7z"/>
	<path id="SR" class="st0" d="M315.3,447l3.4,0.6l0.3-0.5l2.3-0.2l3,0.8l-1.5,2.4l0.2,1.9l1.1,1.7l-0.5,1.2l-0.2,1.3l-0.7,1.2
		l-1.6-0.6l-1.3,0.3l-1.1-0.2l-0.3,0.8l0.5,0.6l-0.3,0.6l-1.5-0.2l-1.7-2.4l-0.4-1.6l-0.9,0l-1.2-2l0.5-1.4l-0.2-0.7l1.7-0.7
		L315.3,447z"/>
	<path id="SS" class="st0" d="M570.7,437.2l0,2.2l-0.4,0.9l-1.5,0.1l-1,1.6l1.7,0.2l1.4,1.4l0.5,1.1l1.3,0.7l1.7,3l-1.9,1.8
		l-1.7,1.7l-1.7,1.3l-2,0l-2.3,0.7l-1.8-0.6l-1.2,0.8l-2.5-1.9l-0.7-1.2l-1.6,0.6l-1.3-0.2l-0.8,0.5l-1.3-0.3l-1.7-2.3l-0.5-0.9
		l-2.1-1.1l-0.7-1.7l-1.2-1.2l-1.9-1.5l0-0.9l-1.5-1.1l-1.9-1.1l0.9-0.3l1-0.5l0.7-2.5l0.8-1.3l2-0.4l0.5,0.8l1.4,1.6l0.8,0.2l1-0.5
		l2,0.1l0.4,0.6h2.8l0.1-0.6l1.4-0.5l0.3-0.8l1.1-0.6l2.4,1.7l1.4-0.3l1.4-2l1.5-1.6l-0.2-1.7l-0.7-0.8l1.7-0.1l0.2-0.6l1.3,0.2
		l-0.3,2.1l0.3,2l1.4,1.1l0.3,1l0,1.4L570.7,437.2z"/>
	<path id="SV" class="st0" d="M229.3,426l-0.3,0.7l-1.6,0l-1-0.3l-1.2-0.6l-1.6-0.2l-0.8-0.6l0.1-0.4l1-0.7l0.5-0.3l-0.1-0.3
		l0.7-0.2l0.8,0.2l0.6,0.6l0.8,0.5l0.1,0.4l1.2-0.3l0.6,0.2l0.4,0.3L229.3,426z"/>
	<path id="SY" class="st0" d="M584.3,364.9l-5.5,3.5l-3.1-1.3l-0.1,0l0.4-0.5l0-1.4l0.7-1.8l1.5-1.3l-0.5-1.3l-1.3-0.2l-0.3-2.6
		l0.7-1.4l0.8-0.8l0.8-0.8l0.2-1.9l0.9,0.7l3.1-1l1.5,0.7l2.3,0l3.2-1.3l1.5,0.1l3.2-0.5l-1.4,2.2l-1.5,0.9l0.3,2.5l-1.1,4.1
		L584.3,364.9z"/>
	<path id="SZ" class="st0" d="M565.4,541l-0.6,1.4l-1.6,0.3l-1.7-1.7l0-1.1l0.8-1.2l0.3-0.9l0.8-0.2l1.4,0.6l0.4,1.4L565.4,541z"/>
	<path id="TD" class="st0" d="M516.1,427.5l0.3-1.3l-1.8-0.1l0-1.8l-1.2-1.1l1.2-3.8l3.6-2.7l0.1-3.8l1.1-6l0.6-1.3l-1.2-1l0-0.9
		l-1-0.8l-0.7-4.7l2.8-1.7l11.2,5.8l11.2,5.7l0.1,11.6l-2.4-0.2l-1.3,2.1l-0.7,1.8l0.6,0.7l-0.9,0.9l0.3,1.2l-0.7,1.2l-0.3,1l1-0.2
		l0.6,1.1l0,1.7l1,0.8l0,0.7l-1.8,0.5l-1.4,1.1l-2,3.1l-2.6,1.3l-2.7-0.2l-0.8,0.3l0.3,1l-1.5,1l-1.2,1.1l-3.5,1.1l-0.7-0.6
		l-0.5-0.1l-0.5,0.7l-2.3,0.2l0.4-0.8l-0.9-1.9l-0.4-1.2l-1.2-0.5l-1.7-1.6l0.6-1.3l1.3,0.3l0.8-0.2l1.6,0l-1.5-2.6l0.1-1.9
		l-0.2-1.9L516.1,427.5z"/>
	<path id="TF" class="st0" d="M668.8,619.3l1.8,1.3l2.6,0.5l0.1,0.8l-0.8,2l-4.3,0.3l-0.1-2.3l0.4-1.8L668.8,619.3z"/>
	<path id="TG" class="st0" d="M480.7,446.5l-2.3,0.6l-0.6-1l-0.7-1.8l-0.2-1.4l0.6-2.5l-0.7-1l-0.3-2.2l0-2.1l-1.2-1.5l0.2-0.9
		l2.5,0.1l-0.4,1.5l0.9,0.8l1,1l0.1,1.4l0.6,0.6l-0.1,6.5L480.7,446.5z"/>
	<path id="TH" class="st0" d="M763.1,429.4l-2.5-1.3l-2.4,0.1l0.4-2.2l-2.5,0l-0.2,3.1l-1.5,4.2l-0.9,2.5l0.2,2l1.8,0.1l1.1,2.6
		l0.5,2.4l1.6,1.6l1.7,0.3l1.5,1.5l-0.9,1.1l-1.9,0.3l-0.2-1.4l-2.3-1.2l-0.5,0.5l-1.1-1.1l-0.5-1.4l-1.5-1.6l-1.4-1.3l-0.5,1.7
		l-0.5-1.6l0.3-1.8l0.8-2.7l1.4-2.9l1.5-2.6l-1.1-2.6l0-1.3l-0.3-1.6l-1.9-2.3l-0.7-1.4l1-0.5l1-2.5l-1.1-1.9l-1.8-2.1l-1.4-2.6
		l1.2-0.5l1.3-3.2l2-0.1l1.6-1.3l1.6-0.7l1.2,0.9l0.2,1.8l1.9,0.1l-0.7,3.1l0.1,2.6l3-1.7l0.8,0.5l1.6-0.1l0.6-1l2.1,0.2l2.1,2.4
		l0.2,2.9l2.3,2.5l-0.1,2.4l-0.9,1.3l-2.6-0.4l-3.6,0.5l-1.8,2.4L763.1,429.4z"/>
	<path id="TJ" class="st0" d="M674.6,340.9l-1,1.1l-3.1-0.6l-0.3,2.1l3-0.3l3.5,1.2l5.3-0.5l0.7,3.3l0.9-0.4l1.7,0.8l-0.1,1.4l0.4,2
		l-2.9,0l-1.9-0.3l-1.7,1.6l-1.2,0.3l-1,0.7l-1.1-1.1l0.3-3l-0.8-0.2l0.3-1.1l-1.5-0.8l-1.2,1.2l-0.3,1.4l-0.4,0.5l-1.7-0.1
		l-0.9,1.6l-0.9-0.7l-2,1.1l-0.9-0.4l1.6-3.6l-0.6-2.7l-2.1-0.9l0.7-1.6l2.3,0.2l1.3-2l0.9-2.4l3.7-0.9l-0.6,1.7l0.4,1L674.6,340.9z
		"/>
	<path id="TL" class="st0" d="M825.9,488.5l0.3-0.7l2.4-0.6l2-0.1l0.9-0.4l1.1,0.3l-1,0.8l-2.9,1.2l-2.3,0.8l-0.1-0.9L825.9,488.5z"
		/>
	<path id="TM" class="st0" d="M647.1,357.2l-0.2-2.9l-2.1-0.1l-3.2-3.1l-2.2-0.4l-3.1-1.8l-2-0.3l-1.2,0.7l-1.9-0.1l-2,2l-2.5,0.7
		l-0.5-2.5l0.4-3.7l-2.2-1.2l0.7-2.5l-1.9-0.2l0.6-3.1l2.6,0.9l2.5-1.2l-2-2.2l-0.8-2.1l-2.3,1l-0.3,2.7l-0.9-2.4l1.2-1.3l3.2-0.8
		l1.9,1.1l2,2.9l1.4-0.2l3.2-0.1l-0.5-1.9l2.4-1.3l2.4-2.2l3.8,2l0.3,3l1.1,0.8l3-0.2l0.9,0.7l1.4,3.8l3.2,2.5l1.8,1.7l2.9,1.8
		l3.7,1.5l-0.1,2.2l-0.8-0.1l-1.3-0.9l-0.4,1.3l-2.4,0.7l-0.6,2.8l-1.6,1.1l-2.2,0.5l-0.6,1.6l-2.1,0.5L647.1,357.2z"/>
	<path id="TN" class="st0" d="M502.1,374.9l-1.2-5.9l-1.7-1.3l0-0.8l-2.3-2l-0.2-2.5l1.7-1.9l0.7-2.8l-0.4-3.3l0.6-1.8l3.1-1.4
		l2,0.4l-0.1,1.8l2.4-1.3l0.2,0.7l-1.4,1.7l0,1.6l1,0.9l-0.4,3l-1.8,1.7l0.5,1.8l1.5,0.1l0.7,1.6l1.1,0.5l-0.2,2.5l-1.4,0.9
		l-0.9,1.1l-1.9,1.3l0.3,1.4l-0.2,1.4L502.1,374.9z"/>
	<path id="TR" class="st0" d="M579,336.9l4,1.4l3.3-0.6l2.4,0.3l3.3-1.9l3-0.2l2.7,1.8l0.5,1.3l-0.3,1.8l2.1,0.9l1.1,1.1l-1.9,1
		l0.9,4.1l-0.5,1.1l1.5,2.8l-1.3,0.6l-1-0.9l-3.3-0.5l-1.2,0.5l-3.2,0.5l-1.5-0.1l-3.2,1.3l-2.3,0l-1.5-0.7l-3.1,1l-0.9-0.7
		l-0.2,1.9l-0.8,0.8l-0.8,0.8l-1-1.6l1.1-1.3l-1.7,0.3l-2.3-0.8l-1.9,2l-4.3,0.4l-2.3-1.9l-3-0.1l-0.6,1.4l-1.9,0.4l-2.7-1.8
		l-3.1,0.1l-1.7-3.5l-2-2l1.4-2.8l-1.8-1.7l3.1-3.5l4.3-0.1l1.2-2.8l5.3,0.5l3.4-2.4l3.3-1.1l4.6-0.1L579,336.9z M551.7,339.2
		l-2.3,2l-0.9-1.7l0-0.8l0.7-0.4l0.9-2.3l-1.4-1l2.9-1.2l2.4,0.5l0.3,1.4l2.4,1.2l-0.5,0.9l-3.3,0.2L551.7,339.2z"/>
	<path id="TT" class="st0" d="M302.6,433.5l1.6-0.4l0.6,0.1l-0.1,2.1l-2.3,0.3l-0.5-0.3l0.8-0.8L302.6,433.5z"/>
	<path id="TW" class="st0" d="M817,393.5l-1.7,4.9l-1.2,2.5l-1.5-2.5l-0.3-2.2l1.7-3l2.2-2.3l1.3,0.9L817,393.5z"/>
	<path id="TZ" class="st0" d="M570.6,466.3l0.5,0.3l10.2,5.7l0.2,1.6l4,2.8l-1.3,3.4l0.2,1.6l1.8,1l0.1,0.7l-0.8,1.7l0.2,0.9
		l-0.2,1.3l1,1.8l1.2,2.8l1,0.6l-2.2,1.6l-3.1,1.1l-1.7,0l-1,0.9l-2,0.1l-0.7,0.4l-3.4-0.8l-2.1,0.2l-0.8-3.9l-1-1.3l-0.6-0.8
		l-2.7-0.5l-1.6-0.8l-1.8-0.5l-1.1-0.5l-1.2-0.7l-1.5-3.5l-1.6-1.6l-0.6-1.6l0.3-1.5l-0.5-2.6l1.2-0.1l1-1l1.1-1.5l0.7-0.6l0-0.9
		l-0.6-0.6l-0.2-1.1l0.8-0.4l0.2-1.6l-1.1-1.6l1-0.3l3.1,0L570.6,466.3z"/>
	<path id="UA" class="st0" d="M564.6,292.7l1,0.2l0.7-1l0.9,0.2l2.9-0.4l1.8,2.6l-0.7,0.9l0.2,1.4l2.2,0.2l1,1.9l-0.1,0.9l3.6,1.5
		l2.2-0.7l1.7,2l1.6,0l4.1,1.4l0,1.3l-1.1,2.2l0.6,2.3l-0.4,1.4l-2.7,0.3l-1.4,1.2l-0.1,1.8l-2.2,0.3l-1.9,1.3l-2.6,0.2l-2.4,1.5
		l-1.3,1l1.5,1.5l1.4,1l2.9-0.2l-0.5,1.4l-3.1,0.7l-3.8,2.3l-1.6-0.8l0.6-1.9l-3.1-1.2l0.5-0.8l3.2-1.6l-0.4-0.8l-0.5,0.4l-0.4-0.2
		l-4.4-1l-0.2-1.5l-2.6,0.5l-1,2.2l-2.2,3l-1.3-0.7l-1.3,0.6l-1.3-0.7l0.7-0.4l0.5-1.4l0.8-1.3l-0.2-0.7l0.6-0.3l0.3,0.6l1.7,0.1
		l0.7-0.3l-0.5-0.4l0.2-0.6l-1-1l-0.4-1.7l-1-0.7l0.2-1.4l-1.3-1.1l-1.2-0.2l-2.1-1.3l-1.9,0.4l-0.7,0.6l-1.2,0l-0.7,1l-2.1,0.4
		l-1,0.6l-1.3-1l-1.8,0l-1.7-0.5l-1.2,0.9L539,310l-1.6-1.1l0.5-1.7l0.8-1.1l0.6,0.2l-0.7-1.9l2.5-3.6l1.4-0.5l0.3-1.2l-1.4-3.9
		l1.3-0.2l1.5-1.2l2.2-0.1l2.8,0.4l3.1,1.1l2.2,0.1l1.1,0.6l1.1-0.8l0.7,1l2.5-0.2l1.1,0.4l0.2-2.3l0.9-1L564.6,292.7z"/>
	<path id="UG" class="st0" d="M564.9,466.5l-3.1,0l-1,0.3l-1.7,0.9l-0.7-0.3l0-2.1l0.6-1.1l0.2-2.2l0.6-1.3l1.1-1.5l1.1-0.7l0.9-1
		l-1.1-0.4l0.2-3.3l1.2-0.8l1.8,0.6l2.3-0.7l2,0l1.7-1.3l1.3,1.9l0.3,1.4l1.2,3.2l-1,2l-1.4,1.8l-0.8,1.1l0,3L564.9,466.5z"/>
	<path id="US" class="st0" d="M109.5,280.1L109.5,280.1l-1.5-1.8l-2.5-1.6l-0.8-4.4l-3.6-4.1l-1.5-4.9l-2.7-0.3l-4.5-0.1l-3.3-1.5
		l-5.8-5.6l-2.7-1.1l-4.9-2l-3.9,0.5l-5.5-2.6L63,248l-3.1,1.2l0.6,3.9l-1.5,0.4l-3.2,1.2l-2.5,1.9l-3.1,1.2l-0.4-3.2l1.3-5.5l3-1.8
		l-0.8-1.5l-3.6,3.2l-1.9,3.8l-4,3.9l2.1,2.6l-2.7,3.8l-3,2.2l-2.8,1.6l-0.7,2.3l-4.4,2.6l-0.9,2.4l-3.3,2.1l-1.9-0.4l-2.6,1.4
		l-2.8,1.7l-2.3,1.6l-4.8,1.4l-0.4-0.8l3.1-2.3l2.7-1.5l3-2.7l3.5-0.6l1.4-2.1l3.9-3.1l0.6-1l2.1-1.8l0.5-4l1.4-3.2l-3.2,1.6
		l-0.9-0.9l-1.5,2l-1.8-2.7l-0.8,1.9l-1-2.7l-2.8,2.2l-1.7,0l-0.2-3.2l0.5-2l-1.8-2l-3.6,1.1l-2.4-2.6l-1.9-1.4l0-3.3l-2.2-2.5
		l1.1-3.4l2.3-3.4l1-3.2l2.3-0.5l1.9,1l2.3-3l2,0.5l2.1-2l-0.5-2.9l-1.6-1.2l2.1-2.5l-1.7,0.1l-3,1.4l-0.9,1.4l-2.2-1.4l-4,0.7
		l-4.1-1.6L7.7,222l-3.5-3.9l3.9-2.9l6.3-3.4h2.3l-0.4,3.5l5.9-0.3l-2.3-4.3l-3.4-2.7l-2-3.6l-2.7-3.2l-3.9-2.4l1.6-4l5-0.3l3.5-3.6
		l0.7-3.9l2.9-3.9l2.7-1l5.3-3.8l2.6,0.6l4.3-4.6l4.2,1.8l2,3.9l1.2-1.6l4.7,0.5l-0.2,2l4.3,1.4l2.9-0.8l5.9,2.6l5.4,0.8l2.2,1.1
		l3.7-1.3l4.3,2.5l3,1.1l0,27.6l0,35.4l2.8,0.2l2.7,1.6l2,2.4l2.5,3.6l2.7-3.1l2.8-1.8l1.5,2.9l1.9,2.2l2.6,2.4l1.8,3.8l2.9,5.9
		l4.8,3.2l0.1,3.1L109.5,280.1z M285.4,314.5l-1.2-1.2l-1.9,0.7l-0.9-1.1l-2.1,3.1l-0.9,3.1l-1,1.8l-1.2,0.6l-0.9,0.2l-0.3,1l-5.2,0
		l-4.3,0l-1.3,0.7l-2.9,2.7l0.3,0.5l0.2,1.5l-2.1,1.3l-2.3-0.3l-2.2-0.1l-1.3,0.4l0.2,1.1v0l0.1,0.4l-2.4,2.3l-2.1,1.1l-1.4,0.5
		l-1.7,1l-2,0.5l-1.4-0.2l-1.7-0.8l1-1.4l0.6-1.3l1.3-2.1l-0.1-1.6l-0.5-2.2l-1-0.4l-1.7,1.7l-0.6,0l-0.1-1l1.5-1.6l0.3-1.8
		l-0.2-1.8l-2.1-1.6l-2.4-0.8l-0.4,1.5l-0.6,0.4l-0.5,2l-0.3-1.3l-1.1,0.9l-0.7,1.3l-0.7,1.9l-0.1,1.6l0.9,2.4l-0.1,2.5l-1.1,1.8
		l-0.6,0.5l-0.8,0.4l-1,0l-0.3-0.3l-0.8-2l0-1l0.1-0.9l-0.4-1.9l0.5-2.2l0.6-2.7l1.5-3l-0.4,0l-2.1,2.5l-0.4-0.5l1.1-1.4l1.7-2.6
		l1.9-0.4l2.2-0.8l2.2,0.4l0.1,0l2.5-0.4l-1.4-1.6l-0.8-0.1l-0.9-0.2l-0.6-1.1l-2.8,0.4l-2.5,0.9l-2-1.6l-1.6-0.5l0.9-2.2l-2.5,1.4
		l-2.3,1.3l-2.2,1l-1.7-1.4l-2.8,0.9l0-0.6l1.9-1.7l2-1.7l2.9-1.4l-3.4-1.1l-2.3,0.5l-2.7-1.3l-2.9-0.7l-2-0.3l-0.9-0.7l-0.5-2.3
		l-0.9,0l0,1.6l-5.8,0l-9.6,0h-9.5h-8.4h-8.4h-8.3h-8.5h-2.8H139h-8l1,3.5l0.4,3.4l-0.7,1.1l-1.5-3.9l-4.1-1.4l-0.3,0.8l0.8,1.9
		l0.9,3.5l0.5,5.4l-0.3,3.6l-0.3,3.5l-1.1,3.6l0.9,2.9l0.1,3.2l-0.6,3.1l1.5,2l0.4,2.9l2.2,3l1.2,1.2l-0.1,0.8l2.3,4.9l2.7,3.5
		l0.3,1.9l0.7,0.5l2.6,0.3l1,0.9l1.6,0.2l0.3,1l1.3,0.4l1.8,1.9l0.5,1.7l3.2-0.3l3.6-0.4l-0.3,0.6l4.2,1.6l6.4,2.3l5.6,0l2.2,0
		l0-1.4l4.9,0l1,1.2l1.4,1l1.7,1.4l0.9,1.7l0.7,1.8l1.4,1l2.3,1l1.8-2.5l2.3-0.1l2,1.3l1.4,2.2l1,1.9l1.7,1.8l0.6,2.2l0.8,1.5l2.2,1
		l2,0.7l1.1-0.1l-0.5-1.1l-0.1-1.5l0-2.2l0.6-1.4l1.5-1.5l2.8-1.4l2.6-2.4l2.4-0.8l1.7-0.2l2,0.7l2.4-0.4l2.1,1.7l2,0.1l1.1-0.6
		l1,0.5l0.5-0.4l-0.6-0.6l0-1.3l-0.5-0.9l1.2-0.5l2.1-0.2l2.5,0.4l3.2-0.4l1.8,0.8l1.4,1.5l0.5,0.2l2.8-1.5l1.1,0.5l2.2,2.7l0.8,1.8
		l-0.6,2.1l0.4,1.2l1.3,2.4l1.5,2.7l1.1,0.7l0.4,1.4l1.4,0.4l0.8-0.4l0.7-1.9l0.1-1.2l0.1-2.1l-1.3-3.6l0-1.4l-1.2-2.3l-0.9-2.7
		l-0.5-2.2l0.4-2.3l1.3-1.9l1.6-1.6l3.1-2.2l0.4-1.1l1.4-1.2l1.4-0.2l1.8-2l2.9-1l1.8-2.5l-0.4-3.5l-0.3-1.2l-0.8-0.2l-0.1-3.3
		l-1.9-1.1l1.9,0.6l-0.6-2.3l0.5-1.6l0.3,3l1.4,1.4l-0.9,2.4l0.3,0.1l1.6-2.8l0.9-1.4l0-1.4l-0.7-0.6l-0.6-1.9l0.9,0.9l0.6,0.2
		l0.2,0.9l2-2.8l0.6-2.6l-0.8-0.2l0.9-1l-0.1,0.5l1.8,0l3.9-1.1l-0.8-0.7l-4.1,0.7l2.3-1.1l1.6-0.2l1.2-0.2l2.1-0.6l1.3,0.1l1.9-0.6
		l0.2-1.1l-0.8-0.8l0.3,1.4l-1.2-0.1l-0.9-2l0-2l0.5-0.9l1.5-2.3l3-1.1l2.9-1.3l3-1.9l-0.5-1.3l-1.8-2.3L285.4,314.5z M45.9,264
		l-1.5,0.8l-2.5,1.9l0.4,2.4l1.4,1.3l2.8-2l2.4-2.5l-1.2-1.6L45.9,264z M0.3,235.5l2-1.3l0.2-0.7l-2.3-0.7V235.5z M8.8,250.8l-2.8,1
		l1.7,1.5l1.8,1l1.7-0.9l-0.3-2.2L8.8,250.8z M106.1,283.3l-2.7,0.4l-1.3-0.6l-0.2,1.5l0.5,2.1l1.4,1.5l1,2.1l1.7,2.1l1.1,0
		l-2.4-3.7L106.1,283.3z M37.4,404l-1-0.3l-0.3,0.3l0,0.2l0.3,0.2l0.5,0.6l0.9-0.2l0.2-0.4L37.4,404z M34.4,403.5l1.5,0.1l0.1-0.3
		l-1.4-0.1L34.4,403.5z M40.3,406.8l-0.5-0.3l-1.1-0.5l-0.2-0.1l-0.2,0.3l0.2,0.6l-0.5,0.5l-0.1,0.3l0.5,1.1l-0.1,0.8L39,410
		l0.4-0.5l0.9-0.5l1.1-0.6l0.1-0.2l-0.7-1L40.3,406.8z M32.4,401.6l-0.8,0.4l0.1,0.1l0.4,0.7l1,0.1l0.2,0l0.2-0.2l-0.8-1L32.4,401.6
		z M28,400.1l-0.4,0.3l-0.1,0.2l0.9,0.5l0.3-0.3l-0.1-0.7L28,400.1z"/>
	<path id="UY" class="st0" d="M313.9,552l1.8-0.3l2.8,2.5l1-0.1l2.9,2.1l2.2,1.8l1.6,2.2l-1.2,1.6l0.8,1.9l-1.2,2.1l-3.2,1.9
		l-2.1-0.7l-1.5,0.4l-2.6-1.5l-1.9,0.1l-1.7-1.9l0.2-2.2l0.6-0.7l0-3.3l0.8-3.4L313.9,552z"/>
	<path id="UZ" class="st0" d="M662,351.2l0.1-2.2l-3.7-1.5l-2.9-1.8l-1.8-1.7l-3.2-2.5l-1.4-3.8l-0.9-0.7l-3,0.2l-1.1-0.8l-0.3-3
		l-3.8-2l-2.4,2.2l-2.4,1.3l0.5,1.9l-3.2,0.1l-0.1-14.1l7.2-2.3l0.5,0.3l4.3,2.8l2.3,1.5l2.7,3.5l3.3-0.6l4.8-0.3l3.4,2.8l-0.2,3.8
		l1.4,0l0.6,3.1l3.6,0.1l0.8,1.8l1,0l1.2-2.6l3.7-2.6l1.6-0.7l0.8,0.4l-2.4,2.4l2.1,1.4l2-0.9l3.3,2l-3.6,2.6l-2.1-0.4l-1.2,0.1
		l-0.4-1l0.6-1.7l-3.7,0.9l-0.9,2.4l-1.3,2l-2.3-0.2l-0.7,1.6l2.1,0.9l0.6,2.7l-1.6,3.6l-2.1-0.7L662,351.2z"/>
	<path id="VE" class="st0" d="M275.5,430.6l-0.1,0.7l-1.6,0.3l0.9,1.3l0,1.5l-1.2,1.6l1.1,2.2l1.2-0.2l0.6-2l-0.9-1l-0.1-2.1
		l3.5-1.2l-0.4-1.3l1-0.9l1,2l2,0l1.8,1.6l0.1,0.9l2.5,0l3-0.3l1.6,1.3l2.1,0.3l1.6-0.9l0-0.7l3.5-0.2l3.4,0l-2.4,0.8l1,1.3l2.2,0.2
		l2.1,1.4l0.4,2.3l1.5-0.1l1.1,0.7l-2.2,1.7l-0.2,1l1,1l-0.7,0.5l-1.7,0.4l0.1,1.3l-0.8,0.8l1.9,2.1l0.4,0.8l-1,1.1l-3.1,1l-2,0.4
		l-0.8,0.7l-2.2-0.7l-2.1-0.4l-0.5,0.3l1.3,0.7l-0.1,1.9l0.4,1.8l2.4,0.2l0.2,0.6l-2,0.8l-0.3,1.2l-1.2,0.5l-2.1,0.7l-0.5,0.9
		l-2.2,0.2l-1.5-1.5l-0.9-2.8l-0.7-1l-1-0.6l1.4-1.4l-0.1-0.6l-0.8-0.8l-0.6-1.9l0.2-2l0.6-0.9l0.5-1.5l-1-0.5l-1.6,0.3l-2-0.1
		l-1.1,0.3l-2-2.4l-1.6-0.4l-3.6,0.3l-0.7-1l-0.7-0.2l-0.1-0.6l0.3-1l-0.2-1.1l-0.6-0.6l-0.4-1.3L270,438l0.8-1.7l0.3-2l0.8-1.1
		l1.1-0.8l0.7-1.4L275.5,430.6z"/>
	<path id="VN" class="st0" d="M778.5,402.1l-3.7,2.6l-2.3,2.8l-0.6,2.1l2.1,3.1l2.6,3.8l2.5,1.8l1.7,2.3l1.3,5.3l-0.4,5l-2.3,1.9
		l-3.2,1.8l-2.3,2.4l-3.5,2.6l-1-1.8l0.8-1.9l-2.1-1.6l2.4-1.1l2.9-0.2l-1.2-1.7l4.7-2.2l0.3-3.4l-0.6-1.9l0.5-2.9l-0.7-2l-2.1-2
		l-1.8-2.6l-2.3-3.5l-3.4-1.8l0.8-1.1l1.8-0.8l-1.1-2.6l-3.5,0l-1.3-2.7l-1.6-2.4l1.5-0.7l2.2,0l2.7-0.3l2.4-1.6l1.4,1.1l2.6,0.6
		l-0.4,1.7l1.3,1.2L778.5,402.1z"/>
	<path id="VU" class="st0" d="M946.1,510.2l-0.9,0.4l-0.9-1.3l0.1-0.8L946.1,510.2z M944,505.7l0.5,2.3l-0.8-0.4l-0.6,0.2l-0.4-0.8
		l-0.1-2.2L944,505.7z"/>
	<path id="YE" class="st0" d="M624.4,416.6l-2,0.8l-0.5,1.3l-0.1,1l-2.8,1.2l-4.5,1.3l-2.5,2l-1.2,0.2l-0.8-0.2l-1.6,1.2l-1.8,0.6
		l-2.4,0.1l-0.7,0.2l-0.6,0.8l-0.7,0.2l-0.4,0.7l-1.4-0.1l-0.9,0.4l-1.9-0.1l-0.7-1.7l0.1-1.6l-0.5-0.8l-0.5-2.1l-0.8-1.2l0.6-0.1
		l-0.3-1.3l0.3-0.6l-0.1-1.3l1.2-0.9l-0.3-1.2l0.7-1.4l1.2,0.8l0.8-0.3l3.2-0.1l0.5,0.3l2.7,0.3l1.1-0.1l0.7,1l1.3-0.5l2-3.1
		l2.6-1.3l8.1-1.1l2.2,4.8L624.4,416.6z"/>
	<path id="ZA" class="st0" d="M563.9,549l-0.5,0.5l-1.2,1.6l-0.8,1.7l-1.6,2.3l-3.2,3.4l-2,2l-2.1,1.5l-2.9,1.3l-1.4,0.2l-0.4,0.9
		l-1.7-0.5l-1.4,0.6l-3-0.6l-1.7,0.4l-1.2-0.2l-2.9,1.3l-2.4,0.5l-1.7,1.3l-1.3,0.1l-1.2-1.2l-0.9-0.1l-1.2-1.5L527,565l-0.4-0.9
		l0-2l-0.9-2.2l0.9-0.6l-0.1-2.5l-1.8-3.1l-1.4-2.7l0,0l-2-4.2l1.3-1.6l1.1,0.9l0.5,1.4l1.3,0.2l1.8,0.6l1.5-0.2l2.5-1.6l0-11.5
		l0.8,0.5l1.7,2.9l-0.3,1.9l0.6,1.1l2-0.3l1.4-1.4l1.3-0.9l0.7-1.5l1.4-0.7l1.2,0.4l1.3,0.9l2.3,0.2l1.8-0.7l0.3-1l0.5-1.5l1.5-0.2
		l0.8-1.2l0.9-2l2.5-2.3l4-2.2l1.1,0l1.4,0.5l0.9-0.4l1.5,0.3l1.3,4.3l0.7,2.2l-0.5,3.4l0.2,1.1l-1.4-0.6l-0.8,0.2l-0.3,0.9
		l-0.8,1.2l0,1.1l1.7,1.7l1.6-0.3l0.6-1.4l2.1,0l-0.7,2.3l-0.3,2.6l-0.7,1.4L563.9,549z M556.8,548l-1.2-1l-1.3,0.6l-1.5,1.2l-1.5,2
		l2.1,2.5l1-0.3l0.5-1l1.6-0.5l0.5-1l0.9-1.6L556.8,548z"/>
	<path id="ZM" class="st0" d="M567.4,489.5l1.3,1.3l0.7,2.4l-0.5,0.8l-0.6,2.3l0.5,2.4l-0.9,1l-0.9,2.7l1.5,0.7l-8.5,2.4l0.3,2.1
		l-2.1,0.4l-1.6,1.2l-0.3,1l-1,0.2l-2.4,2.4l-1.6,1.9l-0.9,0.1l-0.9-0.3l-3.1-0.3l-0.5-0.2l0-0.2l-1.1-0.7l-1.8-0.2l-2.3,0.7
		l-1.8-1.8l-1.9-2.4l0.1-9.2l5.8,0l-0.2-1l0.4-1.1l-0.5-1.3l0.3-1.4l-0.3-0.9l1,0.1l0.2,0.9l1.3-0.1l1.8,0.3l0.9,1.3l2.2,0.4
		l1.7-0.9l0.6,1.5l2.1,0.4l1,1.2l1.2,1.6l2.1,0l-0.2-3.1l-0.8,0.5l-2-1.1l-0.8-0.5l0.3-2.9l0.5-3.4l-0.6-1.2l0.8-1.8l0.8-0.3
		l3.8-0.5l1.1,0.3l1.2,0.7l1.1,0.5l1.8,0.5L567.4,489.5z"/>
	<path id="ZW" class="st0" d="M563,527.3l-1.5-0.3l-0.9,0.4l-1.4-0.5l-1.1,0l-1.8-1.4l-2.2-0.5l-0.8-1.9l0-1.1l-1.2-0.3l-3.2-3.3
		l-0.9-1.7l-0.6-0.5l-1.1-2.3l3.1,0.3l0.9,0.3l0.9-0.1l1.6-1.9l2.4-2.4l1-0.2l0.3-1l1.6-1.2l2.1-0.4l0.2,1.1l2.3-0.1l1.3,0.6
		l0.6,0.7l1.3,0.2l1.5,0.9l0,3.7l-0.5,2l-0.1,2.2l0.5,0.9l-0.3,1.7l-0.4,0.3l-0.7,2.2L563,527.3z"/>
</g>
</svg>
